<svg width="235" height="235" viewBox="0 0 235 235" fill="none" xmlns="http://www.w3.org/2000/svg">
<g clip-path="url(#clip0_278_62)">
<path d="M234.8 117.4C234.8 102.6 232.1 88.5 227.1 75.5H7.7C2.7 88.5 0 102.7 0 117.4C0 132.1 2.7 146.3 7.7 159.3H227.1C232.1 146.3 234.8 132.2 234.8 117.4Z" fill="#D5012C"/>
<path d="M117.4 0C67.3 0 24.6 31.4 7.70001 75.5H227.1C210.3 31.4 167.5 0 117.4 0Z" fill="#010101"/>
<path d="M7.70001 159.3C24.6 203.5 67.3 234.8 117.4 234.8C167.5 234.8 210.2 203.4 227.1 159.3H7.70001Z" fill="#FDD850"/>
</g>
<defs>
<clipPath id="clip0_278_62">
<rect width="234.8" height="234.8" fill="white"/>
</clipPath>
</defs>
</svg>
