<svg width="235" height="235" viewBox="0 0 235 235" fill="none" xmlns="http://www.w3.org/2000/svg">
<g clip-path="url(#clip0_278_67)">
<path d="M133.3 1.1C128.1 0.4 122.8 0 117.4 0C112 0 106.7 0.4 101.5 1.1V101.5H1.1C0.4 106.7 0 112 0 117.4C0 122.8 0.4 128.1 1.1 133.3H101.5V233.7C106.7 234.4 112 234.8 117.4 234.8C122.8 234.8 128.1 234.4 133.3 233.7V133.3H233.7C234.4 128.1 234.8 122.8 234.8 117.4C234.8 112 234.4 106.7 233.7 101.5H133.3V1.1Z" fill="#D5032E"/>
<path d="M172 85.6001L211 46.6001C207.6 42.2001 204 38.0001 200 34.1001L149.2 84.9001V70.9001C164.1 57.1001 177.7 41.1001 192.6 27.4001C191.2 26.2001 189.7 25.0001 188.2 23.9001L149.2 62.9001V4.4001C144 2.9001 138.7 1.8001 133.3 1.1001V101.5H233.7C233 96.1001 231.9 90.8001 230.4 85.6001H172Z" fill="#EDEDEE"/>
<path d="M1.09998 133.3C1.79998 138.7 2.89998 144 4.39998 149.2H62.8L23.8 188.2C27.2 192.6 30.8 196.8 34.8 200.7L85.6 149.9V163.9C70.7 177.7 57.1 193.7 42.2 207.4C43.6 208.6 45.1 209.8 46.6 210.9L85.6 171.9V230.4C90.8 231.9 96.1 233 101.5 233.7V133.3H1.09998Z" fill="#EDEDEE"/>
<path d="M101.5 1.1C96.1 1.8 90.7 2.9 85.6 4.4V62.9L46.5 23.8C42.1 27.2 37.9 30.8 34 34.8L84.8 85.6H70L27.1 42.3C26 43.7 24.8 45.1 23.8 46.5L62.8 85.5H4.39998C2.89998 90.7 1.79998 96 1.09998 101.4H101.5V1V1.1Z" fill="#EDEDEE"/>
<path d="M133.3 233.7C138.7 233 144.1 231.9 149.2 230.4V171.9L188.2 210.9C192.6 207.5 196.8 203.9 200.7 199.9L149.9 149.1H164.7L207.6 192.3C208.7 190.9 209.9 189.5 210.9 188.1L171.9 149.1H230.3C231.8 143.9 232.9 138.6 233.6 133.2H133.2V233.6L133.3 233.7Z" fill="#EDEDEE"/>
<path d="M211 188.3C219.7 176.8 226.4 163.6 230.4 149.3H172L211 188.3Z" fill="#0D54B2"/>
<path d="M85.6 4.3999C71.3 8.3999 58.1 15.0999 46.6 23.7999L85.6 62.7999V4.3999Z" fill="#0D54B2"/>
<path d="M188.3 23.7999C176.8 15.0999 163.6 8.3999 149.3 4.3999V62.8999L188.3 23.8999V23.7999Z" fill="#0D54B2"/>
<path d="M23.8 46.6001C15.1 58.1001 8.40002 71.3001 4.40002 85.6001H62.8L23.8 46.6001Z" fill="#0D54B2"/>
<path d="M230.5 85.6001C226.5 71.3001 219.8 58.1001 211.1 46.6001L172.1 85.6001H230.5Z" fill="#0D54B2"/>
<path d="M4.40002 149.2C8.40002 163.5 15.1 176.7 23.8 188.2L62.8 149.2H4.40002Z" fill="#0D54B2"/>
<path d="M46.5 211C58 219.8 71.2 226.4 85.5 230.4V171.9L46.5 210.9V211Z" fill="#0D54B2"/>
<path d="M149.3 230.5C163.6 226.5 176.8 219.8 188.3 211.1L149.3 172.1V230.6V230.5Z" fill="#0D54B2"/>
<path d="M84.8 85.5998L34 34.7998C31.6 37.1998 29.3 39.6998 27.1 42.3998L70 85.5998H84.8Z" fill="#D60732"/>
<path d="M150 149.2L200.8 200C203.2 197.6 205.5 195.1 207.7 192.4L164.8 149.2H150Z" fill="#D60732"/>
<path d="M149.3 70.7998V84.7998L200.1 33.9998C197.7 31.6998 195.3 29.3998 192.7 27.2998C177.8 40.8998 164.1 56.9998 149.3 70.7998Z" fill="#D60732"/>
<path d="M85.6 164V150L34.8 200.8C37.2 203.1 39.6 205.4 42.2 207.5C57.1 193.9 70.8 177.8 85.6 164Z" fill="#D60732"/>
</g>
<defs>
<clipPath id="clip0_278_67">
<rect width="234.8" height="234.8" fill="white"/>
</clipPath>
</defs>
</svg>
