<svg width="237" height="237" viewBox="0 0 237 237" fill="none" xmlns="http://www.w3.org/2000/svg">
<g clip-path="url(#clip0_278_91)">
<path d="M118.3 0C103.6 0 89.4 2.7 76.4 7.6V229C89.4 233.9 103.5 236.6 118.3 236.6C133.1 236.6 147.2 233.9 160.2 229V7.6C147.2 2.7 133.1 0 118.3 0Z" fill="#EFEEED"/>
<path d="M160.2 7.6001V229C204.9 212.1 236.7 168.9 236.7 118.3C236.7 67.7001 204.9 24.5001 160.2 7.6001Z" fill="#D6212F"/>
<path d="M0 118.3C0 168.9 31.8 212.1 76.5 229V7.6001C31.8 24.5001 0 67.7001 0 118.3Z" fill="#2057A7"/>
</g>
<defs>
<clipPath id="clip0_278_91">
<rect width="236.7" height="236.7" fill="white"/>
</clipPath>
</defs>
</svg>
