<svg width="235" height="235" viewBox="0 0 235 235" fill="none" xmlns="http://www.w3.org/2000/svg">
<g clip-path="url(#clip0_278_86)">
<path d="M117.4 0C102.6 0 88.5 2.7 75.5 7.7V227.1C88.5 232.1 102.6 234.8 117.4 234.8C132.2 234.8 146.3 232.1 159.3 227.1V7.7C146.3 2.7 132.2 0 117.4 0Z" fill="#EFEEEE"/>
<path d="M0 117.4C0 167.5 31.4 210.2 75.5 227.1V7.7002C31.4 24.6002 0 67.3002 0 117.4Z" fill="#6EA549"/>
<path d="M159.3 7.7002V227.1C203.5 210.2 234.8 167.5 234.8 117.4C234.8 67.3002 203.5 24.6002 159.3 7.7002Z" fill="#D5012C"/>
</g>
<defs>
<clipPath id="clip0_278_86">
<rect width="234.8" height="234.8" fill="white"/>
</clipPath>
</defs>
</svg>
