<?xml version="1.0" standalone="no"?>
<!DOCTYPE svg PUBLIC "-//W3C//DTD SVG 20010904//EN"
 "http://www.w3.org/TR/2001/REC-SVG-20010904/DTD/svg10.dtd">
<svg version="1.0" xmlns="http://www.w3.org/2000/svg"
 width="816.000000pt" height="820.000000pt" viewBox="0 0 816.000000 820.000000"
 preserveAspectRatio="xMidYMid meet">

<g transform="translate(0.000000,820.000000) scale(0.100000,-0.100000)"
fill="#000000" stroke="none">
<path d="M4196 7324 c-11 -7 -35 -45 -55 -83 -104 -202 -227 -433 -252 -476
-10 -16 -44 -81 -76 -142 -32 -62 -74 -143 -93 -180 -86 -165 -122 -198 -215
-198 -52 1 -71 7 -140 45 -44 24 -115 62 -157 84 -43 23 -109 58 -147 78 -91
49 -99 41 -73 -68 11 -44 25 -110 32 -149 6 -38 18 -104 25 -145 7 -41 20
-104 28 -140 19 -78 44 -205 57 -280 23 -143 50 -281 55 -290 3 -5 12 -45 20
-87 24 -142 36 -207 51 -273 24 -111 37 -218 30 -253 -3 -18 -20 -46 -36 -62
-24 -23 -39 -29 -80 -29 -50 -1 -53 1 -108 59 -31 33 -88 96 -127 139 -38 44
-81 92 -95 106 -14 15 -40 45 -59 66 -31 36 -91 103 -291 324 -43 47 -91 100
-107 119 -34 39 -63 37 -63 -4 0 -14 -6 -41 -14 -59 -7 -18 -17 -53 -21 -77
-4 -24 -13 -55 -20 -69 -7 -14 -16 -45 -20 -70 -10 -58 -39 -116 -70 -136 -33
-21 -101 -20 -216 6 -52 11 -125 27 -164 36 -38 8 -92 19 -120 23 -27 5 -77
15 -110 23 -33 9 -94 22 -135 31 -41 9 -104 23 -140 31 -81 17 -94 10 -84 -48
3 -23 15 -60 25 -83 11 -23 19 -50 19 -61 0 -10 8 -48 19 -83 23 -81 39 -139
55 -210 7 -31 17 -62 21 -69 4 -7 14 -38 21 -69 19 -83 34 -139 55 -207 11
-33 19 -69 19 -80 0 -10 7 -32 16 -49 38 -72 10 -131 -81 -174 -150 -71 -272
-134 -285 -147 -13 -14 -11 -18 20 -45 19 -16 42 -35 51 -42 9 -8 96 -79 194
-158 98 -79 230 -187 295 -239 64 -52 133 -108 152 -125 20 -16 50 -41 69 -55
18 -14 52 -41 74 -60 22 -20 63 -53 90 -75 28 -21 59 -47 70 -57 11 -10 39
-32 62 -50 64 -50 347 -281 353 -288 3 -3 24 -21 48 -39 24 -19 54 -56 69 -84
l26 -51 -18 -56 c-10 -30 -26 -82 -36 -115 -10 -33 -28 -88 -39 -123 -11 -34
-20 -70 -20 -80 0 -9 -7 -30 -15 -46 -8 -15 -15 -39 -15 -52 0 -29 25 -31 127
-10 37 8 106 17 153 21 47 4 104 11 127 16 23 5 86 13 140 19 54 6 141 17 193
25 174 26 374 54 460 65 47 6 114 15 150 20 119 17 165 13 199 -16 18 -14 36
-35 42 -46 14 -25 13 -292 -2 -733 -17 -520 -25 -859 -21 -872 6 -20 206 -18
222 2 8 10 10 53 6 157 -3 79 -8 325 -11 548 -3 223 -10 505 -16 627 -9 211
-9 224 10 260 40 79 87 94 231 75 41 -6 113 -16 160 -22 90 -11 308 -43 425
-61 39 -5 125 -16 193 -24 67 -7 146 -18 175 -24 28 -5 86 -13 127 -16 41 -4
113 -13 159 -22 96 -17 136 -12 123 15 -5 9 -13 35 -17 57 -4 22 -11 45 -17
52 -5 7 -16 36 -23 65 -8 29 -23 85 -35 123 -63 203 -55 232 95 351 22 18 96
78 165 134 69 55 193 156 275 222 83 67 153 125 156 130 3 4 31 27 62 51 71
53 349 278 362 293 12 14 240 198 338 274 40 30 73 62 75 71 3 16 -29 34 -278
153 -122 58 -126 76 -72 276 12 41 26 89 31 105 12 33 34 118 56 212 7 34 18
70 23 80 5 10 12 38 16 63 4 24 11 49 16 55 5 6 16 40 24 75 31 138 47 196 56
212 12 21 13 65 2 71 -7 5 -81 -8 -212 -38 -36 -8 -83 -17 -105 -21 -22 -4
-47 -10 -56 -15 -9 -4 -47 -13 -85 -19 -38 -6 -98 -17 -134 -25 -301 -68 -339
-71 -386 -27 -30 27 -65 113 -80 197 -4 22 -13 54 -19 70 -7 17 -16 54 -20 83
-11 85 -45 104 -85 50 -22 -30 -212 -245 -316 -358 -22 -25 -67 -74 -99 -110
-130 -147 -183 -206 -247 -273 -65 -69 -67 -71 -118 -71 -48 -1 -54 2 -91 41
-23 25 -39 52 -39 66 0 13 14 89 31 168 29 132 45 215 84 434 8 44 26 134 40
200 14 66 32 159 40 206 8 48 17 93 20 100 3 8 12 55 20 104 8 50 24 133 36
185 12 52 27 129 34 170 8 41 17 85 20 97 12 37 -20 40 -82 7 -30 -16 -93 -50
-141 -75 -48 -25 -123 -65 -167 -89 -68 -37 -89 -43 -140 -44 -76 -1 -123 28
-161 99 -14 28 -37 68 -50 90 -13 22 -28 51 -34 65 -15 35 -17 40 -46 90 -14
25 -54 99 -89 165 -35 66 -77 145 -94 175 -17 30 -35 66 -41 80 -15 35 -17 40
-44 85 -13 22 -39 69 -57 105 -68 134 -72 140 -93 124z"/>
</g>
</svg>
