<?xml version="1.0" standalone="no"?>
<!DOCTYPE svg PUBLIC "-//W3C//DTD SVG 20010904//EN"
 "http://www.w3.org/TR/2001/REC-SVG-20010904/DTD/svg10.dtd">
<svg version="1.0" xmlns="http://www.w3.org/2000/svg"
 width="216.000000pt" height="202.000000pt" viewBox="0 0 216.000000 202.000000"
 preserveAspectRatio="xMidYMid meet">

<g transform="translate(0.000000,202.000000) scale(0.100000,-0.100000)"
fill="#BBB" stroke="none">
<path d="M1135 1883 c-382 -81 -655 -427 -655 -828 0 -243 118 -493 303 -643
316 -254 765 -251 1091 8 76 60 165 168 206 248 l21 44 -43 -27 c-288 -178
-635 -147 -877 81 -155 145 -231 315 -231 517 0 226 109 446 282 567 l71 50
-49 -1 c-27 0 -80 -7 -119 -16z"/>
<path d="M1581 1740 c-6 -16 -16 -43 -22 -60 -9 -24 -23 -34 -70 -51 -33 -12
-59 -24 -59 -28 0 -3 21 -15 48 -25 64 -26 78 -40 97 -97 9 -27 20 -49 24 -49
5 0 18 27 30 59 21 58 23 60 81 83 33 12 60 26 60 30 0 3 -22 14 -49 23 -59
19 -76 37 -97 98 -9 26 -19 47 -24 47 -4 0 -13 -13 -19 -30z"/>
<path d="M1850 1348 c-30 -81 -43 -95 -105 -113 -29 -9 -60 -21 -70 -29 -16
-11 -11 -16 51 -40 85 -34 99 -46 113 -99 10 -41 36 -87 43 -77 2 3 17 37 34
75 l30 70 78 29 c68 26 76 32 60 43 -9 7 -40 19 -69 28 -63 18 -76 32 -105
113 -13 34 -26 62 -30 62 -4 0 -18 -28 -30 -62z"/>
</g>
</svg>
