<?xml version="1.0" encoding="UTF-8"?>
<svg
  xmlns="http://www.w3.org/2000/svg"
  viewBox="0 0 384.48 436.29"
>
  <title>Snowflake solid silhouette</title>
  <path
    fill="#000000"
    d="M192.24 0
      C178.44 0 166.91 11.53 166.91 25.33
      V42.08
      C162.2 37.98 156.13 35.78 150.02 35.84
      C145.13 35.89 140.16 37.39 135.91 40.33
      C124.54 48.16 121.59 64.18 129.42 75.55
      L166.91 129.95
      V173.62
      L129.53 152.03
      L101.16 92.36
      C95.23 79.89 79.88 74.44 67.41 80.37
      C62.73 82.6 58.95 86.15 56.47 90.35
      C53.37 95.61 52.24 101.96 53.43 108.1
      L38.93 99.73
      C26.98 92.83 11.24 97.06 4.35 109.01
      C-2.55 120.96 1.67 136.69 13.62 143.59
      L28.12 151.97
      C22.21 154 17.26 158.15 14.26 163.47
      C11.85 167.74 10.68 172.79 11.09 177.94
      C12.19 191.7 24.59 202.27 38.35 201.17
      L104.21 195.9
      L141.6 217.48
      L104.05 239.16
      L38.19 233.9
      C24.43 232.8 12.03 243.37 10.93 257.13
      C10.52 262.28 11.69 267.33 14.1 271.6
      C17.1 276.92 22.05 281.07 27.96 283.1
      L13.47 291.46
      C1.5 298.37 -2.71 314.11 4.19 326.06
      C11.09 338.01 26.83 342.22 38.77 335.32
      L53.28 326.95
      C52.08 333.09 53.21 339.45 56.31 344.71
      C58.81 348.93 62.6 352.47 67.25 354.68
      C79.71 360.61 95.07 355.18 101 342.71
      L129.37 283.03
      L166.91 261.36
      V305.04
      L129.42 359.44
      C121.59 370.81 124.54 386.83 135.91 394.66
      C140.16 397.6 145.13 399.1 150.02 399.15
      C156.13 399.21 162.2 397.01 166.91 392.91
      V409.96
      C166.91 423.76 178.44 435.29 192.24 435.29
      C206.04 435.29 217.57 423.76 217.57 409.96
      V392.91
      C222.28 397.01 228.35 399.21 234.46 399.15
      C239.35 399.1 244.31 397.6 248.57 394.66
      C259.94 386.83 262.89 370.81 255.06 359.44
      L217.57 305.04
      V261.36
      L255.1 283.03
      L283.48 342.71
      C289.41 355.18 304.77 360.61 317.23 354.68
      C321.88 352.47 325.67 348.93 328.17 344.71
      C331.27 339.45 332.4 333.09 331.2 326.95
      L345.71 335.32
      C357.66 342.22 373.39 338.01 380.3 326.06
      C387.2 314.11 382.98 298.37 371.02 291.46
      L356.52 283.1
      C362.42 281.07 367.37 276.92 370.37 271.6
      C372.78 267.33 373.95 262.28 373.54 257.13
      C372.44 243.37 360.04 232.8 346.28 233.9
      L280.42 239.16
      L242.88 217.48
      L280.27 195.9
      L346.13 201.17
      C359.89 202.27 372.29 191.7 373.39 177.94
      C373.8 172.79 372.63 167.74 370.22 163.47
      C367.22 158.15 362.27 154 356.36 151.97
      L370.87 143.59
      C382.81 136.69 387.05 120.96 380.14 109.01
      C373.24 97.05 357.51 92.82 345.55 99.73
      L331.05 108.1
      C332.24 101.96 331.11 95.61 328.01 90.35
      C325.53 86.15 321.75 82.6 317.07 80.37
      C304.6 74.44 289.25 79.89 283.32 92.36
      L254.95 152.03
      L217.57 173.62
      V129.95
      L255.06 75.55
      C262.89 64.18 259.94 48.16 248.57 40.33
      C244.31 37.39 239.35 35.89 234.46 35.84
      C228.35 35.78 222.28 37.98 217.57 42.08
      V25.33
      C217.57 11.53 206.04 0 192.24 0 Z"
  />
</svg>