<?xml version="1.0" standalone="no"?>
<!DOCTYPE svg PUBLIC "-//W3C//DTD SVG 20010904//EN"
 "http://www.w3.org/TR/2001/REC-SVG-20010904/DTD/svg10.dtd">
<svg version="1.0" xmlns="http://www.w3.org/2000/svg"
 width="252.000000pt" height="202.000000pt" viewBox="0 0 252.000000 202.000000"
 preserveAspectRatio="xMidYMid meet">

<g transform="translate(0.000000,202.000000) scale(0.100000,-0.100000)"
fill="#000000" stroke="none">
<path d="M1277 2003 c-3 -10 -8 -36 -11 -58 -4 -22 -14 -72 -23 -112 -20 -88
-12 -103 52 -103 59 0 75 8 75 36 0 20 -18 111 -45 232 -6 27 -41 30 -48 5z"/>
<path d="M790 1939 c0 -18 83 -267 99 -297 14 -27 24 -27 78 -1 31 15 43 27
43 43 0 14 -37 64 -96 131 -129 148 -124 143 -124 124z"/>
<path d="M1714 1843 c-53 -60 -103 -118 -111 -130 -20 -30 -5 -55 47 -78 37
-17 42 -17 56 -3 18 18 121 318 109 318 -2 0 -47 -48 -101 -107z"/>
<path d="M1185 1623 c-193 -41 -361 -183 -427 -363 -21 -55 -38 -150 -38 -204
0 -67 27 -171 61 -243 44 -93 168 -215 263 -261 341 -165 747 31 822 394 66
317 -131 611 -454 679 -89 18 -135 18 -227 -2z"/>
<path d="M460 1522 c30 -26 85 -75 123 -109 38 -35 77 -63 86 -63 33 0 82 80
65 107 -11 17 -273 113 -307 113 -18 0 -12 -9 33 -48z"/>
<path d="M2138 1565 c-3 -3 -63 -25 -133 -49 -72 -24 -131 -50 -136 -59 -16
-28 34 -107 67 -107 13 0 122 91 219 182 39 37 39 38 14 38 -14 0 -28 -2 -31
-5z"/>
<path d="M440 1106 c-155 -30 -174 -36 -164 -46 9 -8 212 -48 296 -57 44 -5
47 -4 53 19 4 14 5 42 3 64 -3 37 -5 39 -38 41 -19 1 -87 -9 -150 -21z"/>
<path d="M1980 1070 c0 -46 4 -62 16 -67 27 -10 353 51 340 64 -8 8 -286 62
-323 63 l-33 0 0 -60z"/>
<path d="M530 668 c-66 -61 -118 -113 -117 -115 5 -5 299 98 315 110 6 5 12
17 12 26 0 27 -49 91 -70 91 -11 0 -72 -48 -140 -112z"/>
<path d="M1885 735 c-20 -33 -24 -49 -17 -61 10 -18 311 -129 321 -119 6 6 10
2 -132 129 -59 53 -116 96 -127 96 -12 0 -29 -16 -45 -45z"/>
<path d="M896 495 c-17 -17 -109 -291 -103 -308 1 -5 51 45 111 113 73 85 106
130 104 144 -2 12 -20 30 -43 43 -48 27 -49 27 -69 8z"/>
<path d="M1639 490 c-39 -21 -54 -43 -42 -65 14 -25 206 -245 214 -245 9 0 4
18 -48 179 -36 114 -55 151 -77 151 -6 -1 -27 -10 -47 -20z"/>
<path d="M1240 384 c-11 -12 -8 -41 19 -167 33 -155 46 -189 55 -146 3 13 14
65 25 115 31 142 36 195 20 205 -24 15 -105 11 -119 -7z"/>
</g>
</svg>
