<?xml version="1.0" standalone="no"?>
<!DOCTYPE svg PUBLIC "-//W3C//DTD SVG 20010904//EN"
 "http://www.w3.org/TR/2001/REC-SVG-20010904/DTD/svg10.dtd">
<svg version="1.0" xmlns="http://www.w3.org/2000/svg"
    width="236.000000pt" height="202.000000pt" viewBox="0 0 236.000000 202.000000"
    preserveAspectRatio="xMidYMid meet"
>
    <g transform="translate(0.000000,202.000000) scale(0.100000,-0.100000)"
    fill="#000000" stroke="none">
        <path d="M1050 1784 c0 -5 -11 -64 -25 -132 -32 -159 -33 -190 -1 -198 36 -9
        78 -1 89 17 8 12 3 57 -18 160 -15 79 -31 148 -36 154 -6 5 -9 5 -9 -1z"/>
        <path d="M554 1643 c7 -28 66 -190 92 -250 15 -36 42 -43 88 -22 36 17 40 39
        14 73 -30 42 -190 226 -196 226 -2 0 -1 -12 2 -27z"/>
        <path d="M1514 1617 c-99 -107 -164 -189 -164 -207 0 -25 38 -50 76 -50 36 0
        28 -14 99 179 25 68 44 125 42 127 -2 3 -26 -20 -53 -49z"/>
        <path d="M941 1350 c-113 -24 -205 -74 -286 -155 -94 -94 -165 -251 -165 -364
        l0 -41 570 0 570 0 0 38 c0 49 -31 166 -58 218 -66 130 -189 236 -329 285 -66
        24 -231 34 -302 19z"/>
        <path d="M180 1296 c34 -33 253 -206 260 -206 19 0 61 64 58 89 -3 24 -14 30
        -158 78 -168 57 -182 60 -160 39z"/>
        <path d="M1773 1259 c-92 -31 -154 -56 -157 -65 -9 -25 34 -94 58 -94 12 0 61
        33 110 73 115 92 164 137 151 136 -5 -1 -78 -23 -162 -50z"/>
        <path d="M260 860 c-47 -11 -115 -24 -152 -31 -38 -7 -68 -15 -68 -19 0 -10
        117 -20 243 -20 95 0 107 2 108 18 3 48 -10 73 -36 71 -5 -1 -48 -9 -95 -19z"/>
        <path d="M1732 868 c-7 -7 -12 -27 -12 -45 l0 -33 128 1 c137 1 246 12 222 22
        -15 6 -305 67 -319 67 -4 0 -12 -5 -19 -12z"/>
        <path d="M282 691 c-8 -4 -12 -19 -10 -32 l3 -24 780 0 780 0 0 30 0 30 -770
        2 c-424 2 -776 -1 -783 -6z"/>
        <path d="M592 528 c-16 -16 -15 -23 4 -42 14 -14 68 -16 452 -16 240 0 447 3
        460 6 18 5 22 13 20 33 l-3 26 -460 3 c-350 2 -464 -1 -473 -10z"/>
        <path d="M862 380 c-17 -7 -22 -17 -20 -32 l3 -23 209 0 c187 0 210 2 220 17
        23 37 -5 43 -202 45 -104 2 -197 -2 -210 -7z"/>
    </g>
</svg>
