<svg width="54" height="24" viewBox="0 0 54 24" fill="none" xmlns="http://www.w3.org/2000/svg">
<g clip-path="url(#clip0_15_627)">
<path d="M14.1411 15.5173C14.0828 15.6362 13.9314 15.9266 13.8275 15.9723C13.5754 16.0821 13.9115 15.5822 13.9448 15.5231C13.9805 15.4599 14.1261 15.459 14.1411 15.5173Z" fill="#007784"/>
<path d="M17.3881 20.0812C17.8773 20.8033 17.438 20.4788 17.4505 20.4988C17.3623 20.3507 17.2675 20.2318 17.1968 20.0637C17.2558 20.0404 17.354 20.0313 17.3881 20.0812Z" fill="#007784"/>
<path d="M5.25901 20.5038C5.22158 20.5629 5.08182 20.5562 5.09513 20.508C5.11759 20.4298 5.33721 19.894 5.50775 20.0737C5.46366 20.2193 5.35052 20.3574 5.25901 20.5038Z" fill="#007784"/>
<path d="M46.8638 2.70861C46.7556 2.51894 46.437 1.91582 46.2773 1.90334C46.2041 1.89752 46.1267 1.94743 46.0776 2.0223L44.715 4.10618L43.9921 3.06798C43.8989 2.93322 43.715 2.93239 43.6027 3.05301L41.9905 5.19928L41.9839 0.0723511C47.0052 0.0532177 51.5115 3.24767 53.1878 8.00025C52.8658 8.13918 52.6404 8.31138 52.3775 8.57426C52.2003 8.79887 51.6105 9.00601 51.3851 8.71651L48.8253 4.42479C48.7613 4.31748 48.7022 4.26923 48.5924 4.26923C48.3087 4.26923 48.3004 4.65939 48.1274 4.91977L46.8646 2.70944L46.8638 2.70861Z" fill="#007784"/>
<path d="M48.752 6.5087C49.1105 6.2999 48.5582 5.81574 48.4725 5.49713C48.4542 5.3765 48.5648 5.23259 48.6347 5.10364L50.3417 7.99529C48.8452 7.71578 48.851 8.85131 48.0374 8.84548C47.3469 8.84049 47.2504 7.95619 46.1981 7.94538C45.1458 7.93456 45.0201 8.79723 44.3954 8.84215C43.7265 8.8904 43.6384 8.25401 42.8813 7.98947L45.1665 4.37158C45.4153 4.65193 45.5966 4.96721 45.8254 5.26337C45.8728 5.3241 45.971 5.33574 46.0134 5.26254L46.4635 4.48472C46.624 4.6486 46.7347 5.24756 46.9709 4.98385L47.337 4.57539L48.3885 6.40139C48.4691 6.54198 48.6114 6.59273 48.7528 6.51037L48.752 6.5087Z" fill="#007784"/>
<path d="M42.3114 7.91946C42.2349 8.0118 42.0818 7.9777 41.9878 8.00681L41.9895 6.07018L43.7797 3.66602L44.4169 4.58941L42.3114 7.9203V7.91946Z" fill="#007784"/>
<path d="M45.8485 16.9936C45.6555 16.9936 45.4825 16.9903 45.3951 17.1126C45.3369 17.195 45.3619 17.3339 45.4001 17.4221C45.4276 17.4844 45.5016 17.5418 45.6247 17.5626L52.4362 17.5668C50.3615 21.396 46.3543 23.8101 41.9869 23.7952L41.9761 13.3791L50.1219 13.3757C50.3041 13.3724 50.4164 13.2576 50.4239 13.1037C50.4314 12.9498 50.3133 12.8076 50.1203 12.8076H41.9861L41.9877 8.80119C42.3854 8.52833 42.8387 8.64895 43.1324 8.9867C43.4602 9.33942 43.8611 9.54989 44.3228 9.54906C44.7845 9.54823 45.1855 9.34108 45.5116 8.9842C45.7687 8.70303 46.1422 8.54663 46.5032 8.72299C46.6713 8.80535 46.8202 8.94261 46.9499 9.07571C47.5996 9.74289 48.6146 9.68965 49.2277 8.99502C49.4123 8.78621 49.6453 8.65062 49.9081 8.65062C50.171 8.65062 50.4064 8.7779 50.5911 8.9892C51.2242 9.71294 52.2832 9.74455 52.9271 9.01582C53.0776 8.89769 53.1949 8.7388 53.4054 8.69138C54.189 11.4524 53.9486 14.399 52.7266 16.9953L45.8494 16.9928L45.8485 16.9936ZM44.5175 10.9574C44.5175 10.8035 44.3927 10.6788 44.2388 10.6788C44.0849 10.6788 43.9601 10.8035 43.9601 10.9574C43.9601 11.1113 44.0849 11.2361 44.2388 11.2361C44.3927 11.2361 44.5175 11.1113 44.5175 10.9574ZM45.7553 10.9574C45.7553 10.8035 45.6306 10.6788 45.4758 10.6788C45.3211 10.6788 45.1963 10.8035 45.1963 10.9574C45.1963 11.1113 45.3211 11.2361 45.4758 11.2361C45.6306 11.2361 45.7553 11.1113 45.7553 10.9574ZM51.4613 10.6754L46.5789 10.6788C46.3967 10.6788 46.3127 10.8418 46.3244 10.9849C46.336 11.128 46.4458 11.2403 46.6205 11.2403L51.4812 11.2386C51.6626 11.2386 51.7732 11.0922 51.7666 10.9516C51.7599 10.8019 51.6634 10.6754 51.4613 10.6754ZM51.8198 13.0921C51.8198 12.9382 51.695 12.8134 51.5411 12.8134C51.3872 12.8134 51.2624 12.9382 51.2624 13.0921C51.2624 13.246 51.3872 13.3708 51.5411 13.3708C51.695 13.3708 51.8198 13.246 51.8198 13.0921ZM53.0577 13.0921C53.0577 12.9382 52.9329 12.8126 52.7782 12.8126C52.6234 12.8126 52.4986 12.9373 52.4986 13.0921C52.4986 13.2468 52.6234 13.3716 52.7782 13.3716C52.9329 13.3716 53.0577 13.2468 53.0577 13.0921ZM43.4028 15.5046C43.5849 15.4288 43.6382 15.2442 43.5567 15.0803C43.4951 14.9563 43.3162 14.9031 43.1632 14.9921C43.0509 15.0578 43.0226 15.235 43.0833 15.3823C43.1382 15.5154 43.2497 15.5678 43.4028 15.5046ZM46.2387 15.5104C46.4283 15.5104 46.5265 15.3482 46.5215 15.2184C46.5149 15.0562 46.3909 14.9472 46.2195 14.9472H44.7404C44.5558 14.9472 44.4268 15.0795 44.4393 15.2517C44.4501 15.3939 44.5691 15.512 44.7413 15.512H46.2395L46.2387 15.5104ZM47.7028 15.2284C47.7028 15.0745 47.578 14.9488 47.4233 14.9488C47.2686 14.9488 47.1438 15.0736 47.1438 15.2284C47.1438 15.3831 47.2686 15.5079 47.4233 15.5079C47.578 15.5079 47.7028 15.3831 47.7028 15.2284ZM52.0211 14.9472L48.533 14.9488C48.3467 14.9488 48.2327 15.0853 48.246 15.2558C48.256 15.3823 48.3625 15.5129 48.5339 15.5129L52.0419 15.5112C52.2274 15.5112 52.3389 15.369 52.3323 15.2184C52.3256 15.0678 52.215 14.9472 52.0211 14.9472ZM44.2837 17.5593C44.4717 17.5593 44.5591 17.3938 44.5474 17.2532C44.5375 17.1251 44.4268 16.997 44.2629 16.9978H42.7481C42.5734 16.9986 42.4594 17.15 42.4661 17.2906C42.4727 17.4312 42.5817 17.5626 42.7464 17.5626L44.2829 17.5593H44.2837ZM48.2311 18.6607C48.2311 18.5068 48.1063 18.3821 47.9515 18.3821C47.7968 18.3821 47.672 18.5068 47.672 18.6607C47.672 18.8146 47.7968 18.9394 47.9515 18.9394C48.1063 18.9394 48.2311 18.8146 48.2311 18.6607ZM49.2776 18.6607C49.2776 18.5068 49.1528 18.3821 48.9989 18.3821C48.845 18.3821 48.7202 18.5068 48.7202 18.6607C48.7202 18.8146 48.845 18.9394 48.9989 18.9394C49.1528 18.9394 49.2776 18.8146 49.2776 18.6607ZM42.8163 20.1057C42.8163 19.9518 42.6915 19.827 42.5376 19.827C42.3837 19.827 42.2589 19.9518 42.2589 20.1057C42.2589 20.2596 42.3837 20.3844 42.5376 20.3844C42.6915 20.3844 42.8163 20.2596 42.8163 20.1057ZM44.0541 20.1057C44.0541 19.9518 43.9293 19.827 43.7754 19.827C43.6215 19.827 43.4968 19.9518 43.4968 20.1057C43.4968 20.2596 43.6215 20.3844 43.7754 20.3844C43.9293 20.3844 44.0541 20.2596 44.0541 20.1057ZM49.5488 20.3794C49.7401 20.3794 49.8066 20.164 49.7858 20.0608C49.7576 19.9161 49.6494 19.8229 49.4872 19.8229H44.9052C44.7221 19.8237 44.6123 19.9726 44.6215 20.1174C44.6306 20.2621 44.7313 20.3844 44.9052 20.3844L49.5488 20.3794ZM44.2014 22.1946C44.2014 22.0407 44.0766 21.9159 43.9219 21.9159C43.7671 21.9159 43.6423 22.0407 43.6423 22.1946C43.6423 22.3485 43.7671 22.4733 43.9219 22.4733C44.0766 22.4733 44.2014 22.3485 44.2014 22.1946ZM45.4392 22.1938C45.4392 22.0399 45.3144 21.9151 45.1597 21.9151C45.005 21.9151 44.8802 22.0399 44.8802 22.1938C44.8802 22.3477 45.005 22.4725 45.1597 22.4725C45.3144 22.4725 45.4392 22.3477 45.4392 22.1938Z" fill="#007784"/>
<path d="M26.8052 8.82406H25.3494C25.2545 8.8249 25.1913 8.75419 25.1913 8.6502V1.62573L23.6382 1.61242C23.5608 1.61242 23.4893 1.55668 23.4893 1.47349V0.246456C23.4893 0.16909 23.5558 0.102539 23.6415 0.102539H28.5704C28.6561 0.102539 28.7227 0.16909 28.7227 0.246456L28.7252 1.47349C28.7119 1.55585 28.6586 1.61242 28.5729 1.61242L26.9557 1.6199L26.9516 8.69096C26.9516 8.7675 26.8867 8.82323 26.8043 8.82406H26.8052Z" fill="#007784"/>
<path d="M39.425 7.32055L38.3219 8.82461L35.1657 8.82627C35.0925 8.80298 35.0293 8.77303 35.0293 8.68402V0.254485C35.0293 0.167137 35.095 0.104745 35.1707 0.104745L36.6007 0.100586C36.6665 0.100586 36.7239 0.120551 36.7505 0.152163C36.7879 0.197917 36.7912 0.246998 36.7912 0.327692V7.30974L39.425 7.32055Z" fill="#007784"/>
<path d="M31.7742 0.107964C31.7575 0.371673 31.78 0.636214 31.8091 0.917392C31.8341 1.15614 31.7742 1.38991 31.8507 1.59705L31.3366 1.62034L31.3349 3.69673L32.8498 3.70089C32.958 3.70089 33.0403 3.75746 33.0395 3.8706V5.02609C33.047 5.14838 32.9663 5.2166 32.849 5.21743L31.3358 5.22159L31.3241 7.09583C31.1078 6.98186 30.5946 8.65063 30.5779 8.81618L29.7344 8.82367C29.6329 8.82367 29.5688 8.76876 29.5688 8.65063V0.285989C29.5688 0.167029 29.6246 0.105469 29.7302 0.105469L31.7742 0.107964Z" fill="#007784"/>
<path d="M31.324 7.09681C31.324 7.15837 31.3191 7.30811 31.374 7.30811L34.0011 7.31726C34.0842 7.31726 34.145 7.38547 34.145 7.46533L34.1475 8.65743C34.1475 8.7348 34.0984 8.8263 34.0011 8.8263L30.5762 8.81715C30.5928 8.65244 31.1061 6.98367 31.3224 7.09681H31.324Z" fill="#007784"/>
<path d="M31.8503 1.59788C31.7737 1.39074 31.8328 1.15614 31.8087 0.918224C31.7796 0.636214 31.7571 0.372505 31.7737 0.108796L33.9999 0.105469C34.0781 0.105469 34.1446 0.170356 34.1446 0.247722L34.1479 1.43816C34.1479 1.5488 34.0756 1.61784 33.9641 1.61701L31.8494 1.59788H31.8503Z" fill="#007784"/>
<path d="M3.18697 6.76666C3.21775 6.51377 3.13955 6.1286 3.3209 6.13609L4.9356 6.20763C4.99133 6.68347 4.9356 7.146 4.7451 7.58025C4.23016 8.75072 2.90662 9.12007 1.727 8.84222C0.764506 8.61595 0.00415945 7.79321 0.00332756 6.76583L0 2.17297C0 1.14309 0.751196 0.317856 1.71785 0.088255C2.67868 -0.139683 3.88409 0.0566432 4.48971 0.910161L3.21525 2.63467C3.18447 2.50157 3.20693 2.35515 3.19196 2.20624C3.14953 1.78697 2.85421 1.49831 2.42912 1.51411C2.07972 1.52659 1.74946 1.82108 1.74946 2.24035V6.69844C1.74946 7.1094 2.05976 7.3964 2.42163 7.41553C2.81761 7.43716 3.13789 7.17928 3.1878 6.76666H3.18697Z" fill="#007784"/>
<path d="M9.39521 8.75219L9.16228 7.4378L7.49683 7.43198L7.21566 8.81292L5.63174 8.82789C5.56186 8.82789 5.47451 8.7863 5.49531 8.6873L7.35791 0.13049C7.81129 0.0689304 8.2472 0.0847363 8.67063 0.245291C9.03001 0.381721 9.42432 0.653748 9.515 1.06969L11.1738 8.6898C11.1913 8.77215 11.1239 8.82373 11.0598 8.82373H9.54079C9.50169 8.82373 9.40436 8.80543 9.39437 8.75052L9.39521 8.75219ZM8.94099 6.0369L8.36949 2.73264L7.74224 6.08682L8.94099 6.0369Z" fill="#007784"/>
<path d="M20.5226 6.45776C20.877 5.99772 20.8637 5.81055 20.5816 5.32306C20.4785 5.14503 20.4327 4.92791 20.2888 4.77401C19.6391 4.07772 18.7623 3.91051 17.8705 3.82982L17.8672 0.243544C17.8672 0.162019 17.9329 0.0913086 18.0094 0.0913086L20.639 0.0962999C21.555 0.0979637 22.3061 0.66864 22.6564 1.50635C23.1039 2.65602 22.9259 4.22746 21.7737 4.9354L22.9259 8.63647C22.9425 8.69055 22.94 8.74046 22.9226 8.77207C22.9051 8.80368 22.8494 8.82448 22.7961 8.82448H21.2796C21.2031 8.82448 21.1457 8.75793 21.1282 8.69304L20.5226 6.45776ZM21.0051 3.33401C21.1715 2.93304 21.1565 2.47633 20.9876 2.09616C20.7355 1.52798 20.1565 1.59037 19.63 1.6303V3.83647C20.1807 3.86476 20.7505 3.94961 21.0051 3.33484V3.33401Z" fill="#007784"/>
<path d="M20.5225 6.45816C20.4093 6.04222 20.2413 5.65788 20.1689 5.23279C19.9626 5.21033 19.827 5.20367 19.6307 5.23528L19.6216 8.72007C19.6216 8.79826 19.4984 8.82655 19.4435 8.82738L18.0443 8.82904C17.9436 8.82904 17.8638 8.77081 17.8638 8.65684L17.8704 3.83105C18.7622 3.91175 19.639 4.07896 20.2887 4.77525C20.4326 4.92915 20.4784 5.14627 20.5816 5.3243C20.8636 5.81178 20.8769 5.99813 20.5225 6.45899V6.45816Z" fill="#007784"/>
<path d="M13.5423 0.103979C13.5148 0.652193 13.4483 1.20623 13.2985 1.75112C13.1488 2.29601 13.0357 2.6637 13.0515 3.22439C13.0556 3.37996 13.6072 3.7751 13.7494 3.7177C13.7553 3.7568 13.7428 3.81254 13.7711 3.82751C13.8176 3.85164 13.8958 3.86994 13.9699 3.86661C13.9191 4.06211 14.7111 4.0854 14.8309 4.09289C15.3442 4.12533 16.0213 4.20519 16.4456 4.42731C16.315 4.65608 16.1112 4.77587 15.9073 4.94807L17.0662 8.66578C17.0878 8.73483 17.0495 8.82051 16.9688 8.82051L15.414 8.82384C15.3358 8.82384 15.2784 8.76228 15.2585 8.69074L14.2927 5.23757C14.1105 5.20346 13.9557 5.20679 13.7611 5.23424L13.7553 8.68907C13.7553 8.76228 13.6862 8.82467 13.6138 8.82384H12.1406C12.0449 8.82384 11.9941 8.74897 11.9941 8.64914V0.249559C11.9941 0.144741 12.0532 0.0973234 12.1406 0.0981553L13.5431 0.103979H13.5423Z" fill="#007784"/>
<path d="M16.4456 4.42749C16.0221 4.20538 15.3441 4.12468 14.8309 4.09307C14.7111 4.08559 13.9191 4.06229 13.9698 3.8668C14.3999 3.846 14.9049 3.91422 15.1411 3.32441C15.3009 2.92344 15.2917 2.45259 15.102 2.06493C14.84 1.52919 14.2951 1.59824 13.7619 1.63068L13.7502 3.71789C13.608 3.77529 13.0564 3.38014 13.0523 3.22458C13.0365 2.66306 13.1479 2.30368 13.2993 1.75131C13.4507 1.19893 13.5156 0.65238 13.5431 0.104165L14.6944 0.0900225C15.6328 0.0783761 16.4339 0.636574 16.785 1.51006C17.136 2.38354 17.1111 3.71955 16.4464 4.42832L16.4456 4.42749Z" fill="#007784"/>
<path d="M19.927 23.5036L19.912 21.4089L19.447 22.4146L18.9712 21.4064L18.9612 23.4936C18.9612 23.5577 18.769 23.5593 18.769 23.4944L18.7632 20.8989C18.7965 20.854 18.942 20.8357 18.9687 20.8948L19.4453 21.9995L19.917 20.8948C19.937 20.849 20.1183 20.844 20.1183 20.8964L20.1208 23.5102C20.0892 23.5443 19.9278 23.5543 19.9278 23.5028L19.927 23.5036Z" fill="#007784"/>
<path d="M8.88726 23.5677C8.50709 23.5943 8.21094 23.3331 8.21094 22.9712V21.4247C8.21177 21.0579 8.51125 20.8174 8.86813 20.8333C9.19423 20.8474 9.46459 21.0778 9.46459 21.4172V22.9737C9.46543 23.2981 9.22917 23.5444 8.88643 23.5685L8.88726 23.5677ZM9.26245 22.9521L9.25995 21.4306C9.25995 21.1735 9.037 21.0071 8.81156 21.0196C8.58612 21.0321 8.41641 21.2134 8.41641 21.458V22.9354C8.41475 23.1975 8.59943 23.3855 8.84733 23.3822C9.05447 23.3797 9.26328 23.2191 9.26328 22.9521H9.26245Z" fill="#007784"/>
<path d="M14.686 22.9543C14.6602 23.3312 14.4007 23.5716 14.0729 23.5708C13.7252 23.5699 13.4665 23.3037 13.4615 22.931C13.4615 22.8853 13.4515 22.8046 13.4831 22.7855C13.5214 22.763 13.5871 22.7705 13.632 22.783C13.7061 22.8046 13.5979 23.1448 13.8575 23.3195C13.9881 23.4069 14.1736 23.4152 14.3059 23.3046C14.5654 23.0874 14.533 22.6823 14.2717 22.4785L13.7734 22.0908C13.4631 21.8496 13.3533 21.4236 13.5663 21.0776C13.7135 20.8397 14.0255 20.7873 14.2734 20.8704C14.7027 21.0144 14.6977 21.61 14.6303 21.6408C14.32 21.7822 14.5937 21.3263 14.2759 21.0909C14.152 20.9994 13.9473 20.9794 13.815 21.1009C13.5804 21.3147 13.6212 21.6973 13.8625 21.8887L14.419 22.3296C14.6087 22.4793 14.7027 22.6873 14.6844 22.9552L14.686 22.9543Z" fill="#007784"/>
<path d="M11.2901 22.9518C11.266 23.3253 11.0064 23.569 10.6803 23.5699C10.3309 23.5707 10.0681 23.3028 10.0664 22.931C10.0664 22.8827 10.0489 22.802 10.0889 22.7837C10.1288 22.7654 10.1937 22.7704 10.2386 22.7854C10.3052 22.807 10.207 23.1223 10.4408 23.3045C10.5639 23.4002 10.7511 23.4226 10.8891 23.3203C11.1687 23.1123 11.1462 22.6914 10.8783 22.4818L10.3784 22.0916C10.0689 21.8504 9.95743 21.4211 10.1721 21.0767C10.3201 20.8388 10.6304 20.7864 10.8808 20.8721C11.3142 21.0201 11.2968 21.6199 11.236 21.6432C10.9224 21.7663 11.2003 21.3296 10.8842 21.0925C10.7594 20.9985 10.5581 20.9769 10.4233 21.0983C10.1829 21.313 10.2261 21.6965 10.4715 21.8903L11.0281 22.3304C11.2177 22.4801 11.3084 22.6872 11.2909 22.9518H11.2901Z" fill="#007784"/>
<path d="M7.40201 22.9912C7.40866 22.923 7.39701 22.8556 7.42447 22.8331C7.46357 22.8015 7.51431 22.8206 7.56672 22.8273C7.61913 22.8339 7.60998 22.9038 7.60915 22.9704C7.60582 23.3297 7.3446 23.5693 6.98939 23.571C6.66329 23.5727 6.37462 23.353 6.37379 23.0095L6.36963 21.4214C6.3688 21.0861 6.62336 20.8441 6.94946 20.8357C7.15993 20.8308 7.34876 20.8882 7.47188 21.0412C7.58086 21.1777 7.65823 21.3956 7.58419 21.5645C7.56755 21.6036 7.48187 21.5878 7.45441 21.5911C7.34793 21.6052 7.51181 21.0421 7.00852 21.0204C6.76228 21.0104 6.57428 21.1918 6.57428 21.4597V22.9354C6.57428 23.1742 6.71902 23.358 6.93698 23.3805C7.15493 23.403 7.37705 23.2674 7.40284 22.9928L7.40201 22.9912Z" fill="#007784"/>
<path d="M23.7736 22.9516C23.7503 23.3243 23.4891 23.5672 23.1688 23.5697C22.8152 23.5722 22.5482 23.3052 22.5524 22.9333C22.5524 22.8826 22.5374 22.8052 22.5757 22.7861C22.8785 22.6338 22.6223 23.1138 22.9533 23.3251C23.0831 23.4075 23.267 23.4133 23.3976 23.3002C23.6488 23.0839 23.6205 22.6846 23.3635 22.4841L22.866 22.0964C22.554 21.8535 22.4384 21.4218 22.6572 21.074C22.8061 20.837 23.1172 20.7879 23.3668 20.8727C23.7844 21.0158 23.7877 21.6048 23.7195 21.6422C23.4275 21.8003 23.6704 21.3253 23.3701 21.0957C23.2478 21.0025 23.0482 20.9751 22.9093 21.094C22.6622 21.3061 22.7088 21.698 22.9558 21.8926L23.4941 22.3177C23.6887 22.4716 23.7894 22.6804 23.7728 22.9525L23.7736 22.9516Z" fill="#007784"/>
<path d="M21.6601 22.2802C21.4347 22.3227 21.2558 22.2594 21.0603 22.3118L21.0653 23.3426L21.9854 23.3625C22.0261 23.3633 22.032 23.5181 21.9895 23.5222C21.6135 23.553 21.2591 23.5264 20.8565 23.5347L20.854 20.8702C21.2383 20.8627 21.6085 20.8502 21.9887 20.8752C22.0286 20.8777 22.0286 21.0374 21.9887 21.0382L21.0653 21.0574V22.098C21.2833 22.1288 21.4696 22.0789 21.6651 22.123C21.7034 22.1313 21.7075 22.2719 21.6593 22.2811L21.6601 22.2802Z" fill="#007784"/>
<path d="M17.7831 22.2782L17.19 22.3131L17.195 23.3438L18.115 23.3646C18.1558 23.3654 18.1616 23.5193 18.1192 23.5235C17.7432 23.5551 17.3888 23.5277 16.9828 23.5368L16.9795 20.8706L18.1192 20.8764C18.1583 20.8789 18.1583 21.0378 18.1192 21.0386L17.1958 21.0578V22.0993L17.7723 22.1134C17.8363 22.1151 17.8472 22.2748 17.7831 22.279V22.2782Z" fill="#007784"/>
<path d="M5.45204 22.2779L4.85891 22.3128L4.8639 23.3435L5.78397 23.3635C5.82473 23.3643 5.83055 23.5182 5.78813 23.5224C5.41211 23.554 5.05773 23.5265 4.65093 23.5357L4.64844 20.8695C5.03776 20.8637 5.40629 20.8495 5.78813 20.8753C5.82722 20.8778 5.82722 21.0367 5.78813 21.0375L4.86556 21.0567V22.0982L5.44206 22.1123C5.50611 22.114 5.51693 22.2737 5.45287 22.2779H5.45204Z" fill="#007784"/>
<path d="M12.9739 20.9002L12.4456 22.3011L12.4356 23.5132C12.3907 23.5465 12.2876 23.5473 12.2393 23.5132L12.2302 22.3011L11.6978 20.8961C11.7626 20.8437 11.8442 20.8537 11.9132 20.8903L12.34 22.0208L12.7651 20.8869C12.8283 20.8537 12.9023 20.8387 12.9755 20.8994L12.9739 20.9002Z" fill="#007784"/>
<path d="M15.819 23.495C15.819 23.5532 15.6485 23.5499 15.6252 23.5124L15.6169 21.0642L15.1103 21.0376C15.077 21.0143 15.0787 20.9128 15.1103 20.8687C15.5187 20.8654 15.9447 20.8495 16.3573 20.8753C16.3997 20.8778 16.3972 21.0276 16.3589 21.0359C16.1942 21.0733 16.0254 21.0309 15.8332 21.0592L15.8199 23.495H15.819Z" fill="#007784"/>
<path d="M1.03563 22.2788C0.842631 22.317 0.653792 22.2788 0.430014 22.2979L0.419199 23.3402L1.34592 23.3585C1.38419 23.361 1.38835 23.5199 1.35008 23.5233C0.973237 23.5507 0.599719 23.5316 0.212891 23.5324V20.8695C0.598055 20.862 0.950776 20.8546 1.32929 20.872C1.39501 20.8754 1.39584 21.0417 1.33012 21.0426L0.426686 21.0575L0.419199 22.0899L1.02897 22.1165C1.05643 22.134 1.05892 22.2397 1.03563 22.2796V22.2788Z" fill="#007784"/>
<path d="M2.57048 23.4758C2.57048 23.5607 2.38081 23.5549 2.37498 23.5099L2.36167 21.0667C2.19529 21.0251 2.04888 21.0675 1.88167 21.0442C1.81512 21.0351 1.81096 20.8737 1.88084 20.8728L3.00223 20.8604C3.09041 20.8595 3.13367 20.8862 3.13283 20.9594C3.132 21.1349 2.78344 21.0043 2.5738 21.0617L2.57048 23.4758Z" fill="#007784"/>
<path d="M29.0851 23.5301L29.0569 21.4496L28.6101 22.4196L28.1426 21.4371L28.1251 23.5135C28.0869 23.5501 27.9604 23.5484 27.9238 23.5035L27.9272 20.8947C27.9496 20.8448 28.1135 20.8473 28.136 20.9005L28.6051 21.9986L29.0693 20.9055C29.0951 20.8448 29.2291 20.8456 29.2798 20.8956V23.5135C29.2648 23.5468 29.1791 23.5376 29.0851 23.531V23.5301Z" fill="#007784"/>
<path d="M31.2748 23.5049C31.2298 23.5473 31.0843 23.5607 31.0585 23.4974L30.2332 21.4759L30.2083 23.5166C30.1534 23.5449 30.0752 23.5457 30.0161 23.5116V20.8986C30.0161 20.8545 30.195 20.8396 30.2116 20.8803L31.0485 22.9234L31.0784 20.9028C31.0793 20.8412 31.2273 20.8512 31.2714 20.8895L31.2748 23.5049Z" fill="#007784"/>
<path d="M33.6283 23.9608C33.62 24.0091 33.4644 24.0124 33.4469 23.9708C33.4003 23.8602 33.4494 23.7088 33.4136 23.5648C33.1341 23.495 32.9312 23.2728 32.9312 22.9742L32.9337 21.4211C32.9337 21.0625 33.2198 20.8279 33.5468 20.8321C33.8737 20.8362 34.1374 21.0817 34.1374 21.4377L34.1357 22.9892C34.1357 23.2828 33.9294 23.5016 33.6516 23.5657C33.6191 23.7013 33.6557 23.8069 33.6283 23.9617V23.9608ZM33.9253 22.9917L33.9219 21.3803C33.9219 21.154 33.7007 21.0076 33.5093 21.0193C33.318 21.0309 33.1474 21.1831 33.1416 21.3978C33.1258 21.9343 33.125 22.4659 33.1416 23.0041C33.1491 23.2346 33.3529 23.3885 33.5484 23.3818C33.7439 23.3752 33.9261 23.2279 33.9253 22.9917Z" fill="#007784"/>
<path d="M35.8679 20.9181C35.8679 20.8341 36.006 20.8532 36.0667 20.8881L36.0575 22.967C36.0559 23.3322 35.7439 23.576 35.4228 23.5701C35.0817 23.5643 34.8122 23.3006 34.8122 22.9304L34.8105 20.9039C34.8105 20.8407 35.0069 20.8482 35.0069 20.8981L35.0252 22.9695C35.0277 23.2066 35.2207 23.3746 35.4245 23.3813C35.6283 23.388 35.8496 23.2116 35.8512 22.967L35.867 20.9172L35.8679 20.9181Z" fill="#007784"/>
<path d="M39.6603 22.9521C39.637 23.3248 39.3766 23.5693 39.0522 23.5702C38.7011 23.571 38.4374 23.3031 38.4383 22.9313C38.4383 22.883 38.4225 22.8007 38.4615 22.784C38.771 22.6526 38.5131 23.0769 38.8134 23.3056C38.9391 23.4013 39.1237 23.4221 39.261 23.3198C39.5388 23.1126 39.5172 22.6909 39.2493 22.4821L38.7502 22.0944C38.4391 21.8523 38.3268 21.4222 38.5431 21.0762C38.692 20.8382 39.0006 20.7875 39.2518 20.8724C39.6803 21.0188 39.6703 21.6169 39.6071 21.6435C39.2993 21.7708 39.5663 21.3274 39.2543 21.0945C39.137 21.0071 38.954 20.978 38.8184 21.0803C38.5497 21.2825 38.5872 21.6901 38.8417 21.8923L39.3991 22.3332C39.5888 22.4829 39.6769 22.69 39.6603 22.9529V22.9521Z" fill="#007784"/>
<path d="M37.558 22.2721C37.3558 22.3279 37.1695 22.2688 36.954 22.2996L36.9507 23.3419L37.8724 23.3611C37.914 23.3619 37.9199 23.5241 37.8774 23.5241L36.7427 23.5333L36.7402 20.8704C37.1237 20.8596 37.4881 20.8513 37.8733 20.8729C37.9165 20.8754 37.9149 21.0376 37.8733 21.0376L36.9499 21.0559V22.0966L37.5513 22.1182C37.5871 22.1249 37.5938 22.2613 37.5572 22.2713L37.558 22.2721Z" fill="#007784"/>
<path d="M26.4433 23.3559C26.4957 23.3567 26.4882 23.5165 26.45 23.5198C26.0706 23.5531 25.7054 23.5298 25.3228 23.5298L25.3261 20.9035C25.3261 20.8469 25.4617 20.8519 25.5241 20.8786L25.5366 23.3401L26.4433 23.3551V23.3559Z" fill="#007784"/>
<path d="M27.1702 23.5074C27.1136 23.5706 27.0321 23.5499 26.9639 23.5091V20.8886C27.0321 20.8512 27.0961 20.8512 27.166 20.887L27.1702 23.5066V23.5074Z" fill="#007784"/>
<path d="M32.238 23.5076C32.1815 23.5708 32.1 23.5492 32.0317 23.5092V20.8888C32.1 20.8505 32.1648 20.8505 32.2347 20.8871L32.238 23.5076Z" fill="#007784"/>
<path d="M4.92144 14.3445C4.87486 14.4294 4.77586 14.4061 4.70682 14.3686L3.88657 12.3421L3.85413 14.3562C3.8533 14.4185 3.70855 14.4102 3.66113 14.3678V11.749C3.70522 11.7124 3.84997 11.7008 3.87493 11.7615L4.70016 13.783L4.72512 11.7432C4.78002 11.7149 4.85739 11.7141 4.91562 11.7473L4.92144 14.3445Z" fill="#007784"/>
<path d="M18.6444 14.3401C18.6444 14.4258 18.5163 14.3958 18.4755 14.39C18.4273 14.3833 18.4181 14.3243 18.3932 14.2627L17.612 12.3336L17.5846 14.37C17.5621 14.4124 17.4032 14.4116 17.3916 14.3675L17.3857 11.7529C17.4248 11.7221 17.5713 11.6913 17.5929 11.7454L18.4256 13.7819L18.4497 11.7454C18.4963 11.7113 18.5795 11.7138 18.6419 11.7471V14.3409L18.6444 14.3401Z" fill="#007784"/>
<path d="M21.3528 13.7844C21.347 14.1213 21.1124 14.3792 20.8021 14.3916C20.5816 14.4008 20.3845 14.4016 20.149 14.39L20.144 11.7396C20.3795 11.7163 20.5983 11.7188 20.8412 11.7329C21.1215 11.7487 21.3353 12.0016 21.3486 12.2895C21.3711 12.7844 21.3619 13.2603 21.3536 13.7844H21.3528ZM21.1423 13.7711V12.3402C21.1423 12.1846 21.0525 12.0008 20.9061 11.9451C20.7305 11.8777 20.5434 11.9026 20.357 11.9268V14.1953C20.535 14.2153 20.6989 14.2311 20.8661 14.1853C21.0333 14.1396 21.1423 13.9591 21.1423 13.7711Z" fill="#007784"/>
<path d="M37.8534 14.335C37.8534 14.4298 37.6538 14.4165 37.6529 14.3558L37.6363 13.1587C37.3809 13.1395 37.1372 13.1437 36.8726 13.1562L36.856 14.3566C36.8552 14.4173 36.7079 14.4082 36.6622 14.3699L36.6597 11.7428C36.7262 11.7145 36.7953 11.7162 36.8618 11.7403L36.8735 12.959L37.638 12.9565L37.6471 11.7611C37.6471 11.702 37.8484 11.707 37.8484 11.7578L37.8534 14.3341V14.335Z" fill="#007784"/>
<path d="M25.5096 14.3592L25.0829 13.1721C25.0088 13.1031 24.8117 13.1355 24.696 13.1613L24.6719 14.3684C24.6711 14.4116 24.518 14.4108 24.4756 14.3684L24.4781 11.7196C24.7426 11.7163 24.9855 11.6889 25.2318 11.7296C25.5496 11.782 25.6976 12.1006 25.706 12.4018C25.7143 12.7029 25.5986 12.9916 25.2867 13.1289L25.706 14.3584C25.6968 14.4133 25.5304 14.4175 25.5096 14.3584V14.3592ZM25.4955 12.3885C25.4838 12.1714 25.3907 11.9775 25.1977 11.9235C25.033 11.8769 24.8624 11.9043 24.6894 11.911L24.6861 12.9558C24.8707 12.9558 25.0679 12.9991 25.2426 12.9259C25.4414 12.8427 25.5071 12.6139 25.4955 12.3876V12.3885Z" fill="#007784"/>
<path d="M34.2188 14.3668L33.7862 13.1781C33.7155 13.0999 33.51 13.1373 33.3952 13.1631L33.3728 14.3702C33.3728 14.4134 33.2081 14.4134 33.1831 14.3702V11.7206C33.4535 11.7198 33.7097 11.6823 33.9642 11.7381C34.2671 11.8046 34.3993 12.1157 34.4076 12.4036C34.416 12.718 34.2995 12.9959 33.9884 13.1265L34.4076 14.3593C34.4226 14.4026 34.2404 14.4251 34.2188 14.366V14.3668ZM33.9867 12.9019C34.2895 12.6964 34.2737 12.159 33.9859 11.9643C33.807 11.8437 33.5841 11.9202 33.3902 11.9111L33.3877 12.9526C33.5741 12.9451 33.802 13.0267 33.9867 12.901V12.9019Z" fill="#007784"/>
<path d="M8.26051 14.3677L7.8246 13.169C7.7306 13.1057 7.53926 13.134 7.43528 13.1648L7.42113 14.3569C7.42113 14.4151 7.22647 14.421 7.22647 14.3569L7.22314 11.7206C7.47521 11.7115 7.7123 11.694 7.95687 11.7256C8.28796 11.7689 8.44519 12.0933 8.45101 12.4045C8.45684 12.7156 8.34619 12.9934 8.03257 13.1257L8.45101 14.3577C8.45184 14.4068 8.27964 14.4201 8.26051 14.3661V14.3677ZM8.23971 12.3862C8.22723 12.1699 8.13573 11.9769 7.94439 11.9245C7.77635 11.8787 7.59749 11.8962 7.43195 11.9186L7.43361 12.9577C7.61496 12.9552 7.79632 12.9943 7.96269 12.936C8.17649 12.8612 8.25386 12.6249 8.23971 12.3853V12.3862Z" fill="#007784"/>
<path d="M30.8473 14.3403C30.8473 14.4293 30.646 14.4176 30.6452 14.3519L30.6302 13.1565L29.8707 13.1523L29.8499 14.3644C29.8499 14.4118 29.7076 14.4101 29.6577 14.3735V11.7481C29.7051 11.7123 29.8075 11.714 29.8507 11.7464L29.8657 12.9577L30.6269 12.9627L30.6427 11.7739C30.6435 11.7032 30.8457 11.6965 30.8457 11.7664L30.8473 14.3411V14.3403Z" fill="#007784"/>
<path d="M12.4093 13.8575L11.6564 13.845C11.5874 14.0114 11.5757 14.1753 11.53 14.3558C11.515 14.4165 11.3187 14.414 11.3311 14.3558L11.9035 11.7462C11.9509 11.7121 12.1281 11.7012 12.1406 11.7561L12.7229 14.3566C12.7337 14.4032 12.5457 14.4165 12.5282 14.3708C12.4675 14.2119 12.4675 14.0596 12.4093 13.8558V13.8575ZM12.3668 13.6445L12.0266 12.123L11.6789 13.6595C11.9168 13.6712 12.1289 13.7028 12.3668 13.6445Z" fill="#007784"/>
<path d="M28.87 13.7363C28.8625 13.6456 29.0488 13.6623 29.0621 13.7105C29.1121 13.886 29.0447 14.0849 28.9382 14.218C28.8184 14.3677 28.6296 14.4309 28.4199 14.4251C28.0905 14.4159 27.8384 14.1772 27.8376 13.8411L27.8359 12.2871C27.8359 11.9269 28.1096 11.6849 28.4599 11.689C28.8101 11.6932 29.0755 11.9311 29.0771 12.2913C29.0771 12.3537 29.0854 12.4236 29.0322 12.4377C28.9673 12.4544 28.86 12.4668 28.8683 12.3728C28.8933 12.0966 28.7269 11.8895 28.4782 11.8779C28.2294 11.8662 28.0398 12.0517 28.0398 12.3271L28.0414 13.8037C28.0414 14.0691 28.2311 14.2537 28.4765 14.2413C28.7219 14.2288 28.8949 14.0291 28.87 13.7371V13.7363Z" fill="#007784"/>
<path d="M1.17969 13.8221C1.18302 13.758 1.17221 13.7031 1.19383 13.6898C1.22212 13.6723 1.34274 13.6615 1.36021 13.6998C1.42926 13.857 1.36021 14.0608 1.26371 14.1972C1.15474 14.3503 0.973384 14.4227 0.765412 14.4277C0.426833 14.436 0.145654 14.1914 0.146486 13.842L0.14815 12.2523C0.14815 11.9303 0.413523 11.7016 0.723817 11.6933C0.935117 11.6874 1.12978 11.7465 1.2504 11.9004C1.36021 12.041 1.42593 12.2506 1.36271 12.4287C1.34607 12.4619 1.25539 12.442 1.23127 12.4461C1.11813 12.4653 1.29033 11.9362 0.820316 11.8821C0.600698 11.8563 0.360282 11.9936 0.35945 12.2506L0.351963 13.8046C0.351131 14.0542 0.518341 14.2355 0.749606 14.243C0.980871 14.2505 1.16638 14.0916 1.18052 13.8246L1.17969 13.8221Z" fill="#007784"/>
<path d="M15.5104 13.1478L14.9988 13.1636L14.9763 14.3674C14.9755 14.4165 14.7808 14.4148 14.7808 14.3557L14.7783 11.7253C15.2234 11.7195 15.7441 11.5922 15.9413 12.0672C16.1385 12.5422 15.9288 13.1354 15.5104 13.1487V13.1478ZM15.5969 12.9141C15.8939 12.6953 15.8772 12.1612 15.5877 11.9641C15.4097 11.8426 15.1876 11.92 14.9938 11.9108L14.9905 12.9698C15.1735 12.9673 15.4147 13.048 15.5969 12.9149V12.9141Z" fill="#007784"/>
<path d="M27.0321 13.1248C26.8383 13.188 26.6386 13.1173 26.419 13.1614V14.2029L27.3399 14.2196C27.3873 14.2204 27.3873 14.3843 27.3391 14.3868C26.9531 14.4059 26.5887 14.4009 26.2061 14.3884V11.7339L27.3507 11.7364C27.5928 12.0475 26.6112 11.8454 26.4182 11.9169L26.4199 12.9568L27.0196 12.9751C27.0521 12.9759 27.0637 13.114 27.0313 13.1248H27.0321Z" fill="#007784"/>
<path d="M39.329 13.0631C39.3232 13.2354 38.9464 13.1014 38.7018 13.1596L38.7034 14.2045L39.5961 14.2145C39.6568 14.2145 39.6535 14.2702 39.6535 14.301C39.6535 14.3318 39.6535 14.3958 39.5952 14.3958L38.488 14.39L38.4863 11.7296C38.8732 11.7296 39.24 11.7105 39.6268 11.738C39.6693 11.7413 39.6626 11.896 39.6219 11.8968L38.701 11.9168L38.7076 12.96L39.2758 12.9691C39.3332 12.97 39.3299 13.0257 39.329 13.0631Z" fill="#007784"/>
<path d="M35.4616 14.2402C35.9375 14.2335 35.8551 13.7119 35.9075 13.6845C35.9317 13.672 36.0215 13.6703 36.0564 13.6861C36.1197 13.8525 36.0664 14.0555 35.9525 14.2077C35.8385 14.36 35.6546 14.4274 35.4433 14.4257C35.1139 14.4232 34.8444 14.1844 34.8452 13.8425L34.8477 12.247C34.8477 11.9175 35.1264 11.6913 35.4408 11.6904C35.6455 11.6896 35.826 11.7503 35.9408 11.8918C36.0556 12.0332 36.1346 12.2603 36.0481 12.4317C36.0315 12.4649 35.9283 12.4458 35.9034 12.4358C35.856 12.4175 35.95 11.915 35.4999 11.8776C35.2637 11.8585 35.049 12.0274 35.0499 12.2894L35.0515 13.8317C35.0515 14.0763 35.2454 14.2435 35.4633 14.241L35.4616 14.2402Z" fill="#007784"/>
<path d="M9.76809 13.1253C9.58008 13.186 9.38791 13.1253 9.16663 13.1544L9.16497 14.2034L10.0717 14.2134C10.1283 14.2134 10.1308 14.3781 10.09 14.3823C9.71817 14.4147 9.34632 14.3931 8.95284 14.3914L8.95117 11.7294L10.0642 11.7261C10.1241 11.7261 10.1283 11.8583 10.0967 11.8949L9.15998 11.9207V12.9514C9.36296 12.9822 9.54098 12.9514 9.74812 12.9664C9.79388 12.9697 9.81301 13.1103 9.76892 13.1253H9.76809Z" fill="#007784"/>
<path d="M2.7819 13.1245C2.58059 13.1911 2.37927 13.1137 2.16797 13.1628L2.16963 14.201L3.10384 14.2176C3.13379 14.2542 3.13462 14.3449 3.10384 14.389L1.96582 14.3907V11.727L3.08055 11.7236C3.13213 11.7236 3.14128 11.875 3.108 11.8859L2.16714 11.92L2.17213 12.9498C2.3801 12.979 2.55813 12.9515 2.76943 12.964C2.8052 12.9665 2.82183 13.1087 2.7819 13.122V13.1245Z" fill="#007784"/>
<path d="M22.7737 13.1253C22.5716 13.1894 22.3711 13.1153 22.1581 13.1636V14.2018L23.0715 14.2167C23.1273 14.2176 23.1339 14.3881 23.0757 14.3898C22.6855 14.4006 22.3237 14.4064 21.9526 14.3848L21.9551 11.7294L23.0724 11.7261C23.1256 11.7261 23.1256 11.855 23.0948 11.8925L22.1581 11.9199V12.9564L22.7571 12.9673C22.792 12.9673 22.8136 13.1112 22.7737 13.1236V13.1253Z" fill="#007784"/>
<path d="M32.2972 13.1331L31.6924 13.163V14.2004L32.6075 14.2179C32.6665 14.2187 32.6657 14.3859 32.6058 14.3884C32.2207 14.4017 31.8555 14.4075 31.4819 14.3842L31.4853 11.728L32.6141 11.7305C32.6574 11.7305 32.6616 11.8902 32.62 11.8952C32.3246 11.9285 32.0385 11.8927 31.6999 11.9119L31.6899 12.9534L32.2897 12.9742C32.3321 12.9759 32.3355 13.1298 32.2972 13.1314V13.1331Z" fill="#007784"/>
<path d="M14.3249 14.208C14.4131 14.208 14.4073 14.3768 14.3632 14.381C13.9847 14.4159 13.6195 14.3976 13.2368 14.3877V11.7464C13.2809 11.7007 13.3907 11.7015 13.4373 11.7464L13.444 14.2021C13.7459 14.2221 14.0063 14.2088 14.3241 14.2088L14.3249 14.208Z" fill="#007784"/>
<path d="M6.15176 14.3459C6.15176 14.425 6.01366 14.4017 5.9571 14.3767L5.95294 11.926C5.77741 11.8844 5.61769 11.926 5.44798 11.9002C5.40722 11.8943 5.40555 11.7413 5.44964 11.738C5.85893 11.7072 6.25408 11.7338 6.67169 11.7255C6.72493 11.7246 6.73075 11.8661 6.70164 11.8902L6.15841 11.9243L6.15259 14.3459H6.15176Z" fill="#007784"/>
<path d="M16.7261 11.7222H16.5132V14.3975H16.7261V11.7222Z" fill="#007784"/>
<path d="M34.0715 19.3758C34.064 19.439 33.8851 19.444 33.8801 19.3957L33.8419 18.9889C33.5798 18.9232 33.3718 18.7103 33.371 18.4283L33.3677 16.8718C33.3677 16.5024 33.648 16.2545 33.9849 16.2604C34.3219 16.2662 34.5789 16.5241 34.5781 16.8901L34.5747 18.4016C34.5747 18.6945 34.3809 18.9315 34.0923 18.9873C34.0556 19.1154 34.0889 19.2177 34.0706 19.3741L34.0715 19.3758ZM34.3651 18.4058V16.8385C34.3643 16.6014 34.163 16.4392 33.9525 16.4484C33.7587 16.4575 33.5765 16.6206 33.5765 16.8427V18.4166C33.5765 18.6512 33.7778 18.8167 33.9799 18.8109C34.1821 18.8051 34.3651 18.6487 34.3643 18.4058H34.3651Z" fill="#007784"/>
<path d="M27.9923 18.9981C27.6254 19.0089 27.3434 18.751 27.3442 18.3866L27.3484 16.8343C27.3492 16.4808 27.6487 16.2553 27.9798 16.2603C28.33 16.2653 28.6037 16.5124 28.6037 16.8734V18.3866C28.6037 18.7335 28.3467 18.9873 27.9923 18.9972V18.9981ZM28.3974 18.37L28.3957 16.8718C28.3957 16.6147 28.1953 16.445 27.9623 16.4483C27.7577 16.4508 27.5572 16.6097 27.5572 16.8485L27.553 18.3783C27.553 18.6296 27.7394 18.8076 27.9632 18.8101C28.1869 18.8126 28.3982 18.6479 28.3982 18.3692L28.3974 18.37Z" fill="#007784"/>
<path d="M36.1554 16.319C36.1886 16.2791 36.3284 16.2791 36.3542 16.3232L36.3492 18.3829C36.3484 18.7456 36.0605 18.991 35.7369 18.9985C35.4133 19.006 35.103 18.7564 35.103 18.3796V16.324C35.1055 16.2774 35.2935 16.2799 35.2944 16.3273L35.3168 18.4179C35.3193 18.6466 35.5165 18.8014 35.7037 18.8105C35.905 18.8205 36.1329 18.6616 36.1354 18.4212L36.1554 16.319Z" fill="#007784"/>
<path d="M12.6482 18.9379L12.2147 17.7242C12.08 17.6992 11.956 17.7001 11.8213 17.7234L11.8063 18.9412C11.788 18.9803 11.6815 18.9679 11.6158 18.9595L11.6133 16.2917C11.877 16.2875 12.1207 16.2609 12.3661 16.3017C12.6756 16.3532 12.8253 16.6602 12.8387 16.9539C12.8528 17.2758 12.7363 17.5586 12.4202 17.7034L12.842 18.9346C12.8179 18.9745 12.6681 18.9928 12.649 18.9387L12.6482 18.9379ZM12.6282 16.9705C12.619 16.7484 12.5242 16.5446 12.3245 16.4922C12.1607 16.4489 11.9943 16.4764 11.8196 16.4813L11.8262 17.5279C12.0059 17.5312 12.1748 17.5603 12.3345 17.5121C12.5541 17.4455 12.6382 17.2159 12.6282 16.9705Z" fill="#007784"/>
<path d="M26.7775 18.9369L26.344 17.7224C26.2068 17.7008 26.0837 17.7008 25.9514 17.7224L25.9348 18.9394C25.9214 18.9827 25.77 18.9852 25.7426 18.9419L25.7393 16.299C25.9888 16.284 26.2409 16.2649 26.4938 16.3032C26.8041 16.3506 26.9546 16.6592 26.9688 16.9521C26.9846 17.2773 26.8673 17.5602 26.5495 17.7033L26.9729 18.9411C26.9397 18.9752 26.7974 18.9927 26.7783 18.9386L26.7775 18.9369ZM26.7575 16.9704C26.7475 16.7457 26.6527 16.5428 26.4505 16.492C26.2875 16.4504 26.1228 16.4795 25.9481 16.4795L25.9539 17.5286C26.1319 17.5311 26.3008 17.5618 26.4613 17.5136C26.681 17.4479 26.7683 17.2149 26.7575 16.9704Z" fill="#007784"/>
<path d="M20.976 16.334C21.0242 16.2699 21.1149 16.2832 21.1831 16.324L21.1723 18.3804C21.1706 18.7356 20.8853 18.9885 20.5683 18.9985C20.2306 19.0085 19.927 18.7606 19.927 18.3862L19.9253 16.3223C19.9253 16.279 20.1125 16.2782 20.1125 16.3223L20.1341 18.3995C20.1366 18.6375 20.3321 18.8072 20.5392 18.8113C20.7464 18.8155 20.9577 18.6524 20.9593 18.4162L20.976 16.3348V16.334Z" fill="#007784"/>
<path d="M19.17 18.4288C18.9071 18.408 18.66 18.4138 18.4088 18.4255C18.3348 18.6052 18.3539 18.7815 18.2749 18.9387C18.2499 18.9878 18.1418 18.9753 18.0811 18.9371L18.6692 16.3258C18.6817 16.2684 18.8481 16.2867 18.8988 16.3141L19.4919 18.9396C19.437 18.9787 19.3197 18.9862 19.2948 18.9396C19.2174 18.7898 19.2332 18.6293 19.17 18.4305V18.4288ZM19.1276 18.2192L18.784 16.6585L18.4421 18.2283C18.6792 18.2458 18.8913 18.2641 19.1276 18.2192Z" fill="#007784"/>
<path d="M17.3251 17.7134L16.7153 17.7358V18.7674L17.652 18.779C17.6745 18.8398 17.6695 18.8955 17.6495 18.9595L16.5073 18.9612V16.2983C16.8942 16.2925 17.256 16.285 17.6337 16.3017C17.6745 16.3033 17.6645 16.3857 17.667 16.4106C17.682 16.5645 16.9241 16.4348 16.7153 16.4938V17.5204L17.3159 17.5428C17.3575 17.5445 17.3542 17.6801 17.3251 17.7134Z" fill="#007784"/>
<path d="M32.0079 18.9214C32.0079 18.9913 31.8565 18.9664 31.8157 18.958L31.7966 17.726L31.0313 17.7277L31.0138 18.9414C31.0096 18.9855 30.8225 18.9797 30.8225 18.9339L30.8208 16.3226C30.8449 16.2785 30.9963 16.2752 31.0146 16.3176L31.0338 17.5272C31.3116 17.533 31.5529 17.5496 31.8016 17.5172L31.8157 16.3176C31.8157 16.2735 32.0046 16.2802 32.0071 16.3251L32.0096 18.9206L32.0079 18.9214Z" fill="#007784"/>
<path d="M16.0544 18.3689C16.0353 18.7524 15.774 19.0037 15.433 18.9987C15.0919 18.9937 14.8249 18.7233 14.8307 18.344C14.8307 18.3007 14.8215 18.2325 14.8506 18.2175C14.8914 18.1959 14.938 18.2059 14.9871 18.2092C15.0894 18.215 14.9563 18.5519 15.2125 18.7391C15.3464 18.8373 15.5386 18.8473 15.675 18.7333C15.9313 18.5195 15.9063 18.116 15.6476 17.9155L15.1485 17.5279C14.8357 17.285 14.72 16.8574 14.9355 16.5088C15.0811 16.2742 15.3747 16.2185 15.6443 16.3025C16.071 16.4356 16.0527 17.0329 16.0186 17.0637C15.9845 17.0945 15.9171 17.0845 15.8714 17.0787C15.7732 17.0654 15.9063 16.7126 15.6501 16.5246C15.5203 16.429 15.3182 16.4098 15.1867 16.528C14.9463 16.7451 14.9946 17.1311 15.24 17.3249L15.7973 17.765C15.9812 17.9106 16.0685 18.1085 16.0552 18.3698L16.0544 18.3689Z" fill="#007784"/>
<path d="M10.3555 18.3705C10.3347 18.7565 10.0718 19.006 9.72661 18.9985C9.38138 18.9911 9.12349 18.7157 9.13264 18.3405C9.13347 18.2973 9.12599 18.2332 9.15177 18.2199C9.47039 18.0552 9.20335 18.5452 9.53361 18.7531C9.67503 18.8421 9.86803 18.838 9.99448 18.719C10.2366 18.4911 10.1966 18.1068 9.94207 17.9079L9.4263 17.5061C9.11767 17.2657 9.02449 16.8215 9.25077 16.4879C9.4055 16.26 9.70748 16.215 9.96786 16.3099C10.3605 16.4521 10.3622 17.0186 10.3148 17.0661C10.2865 17.0952 10.2183 17.0844 10.17 17.0736C10.0652 17.0519 10.2216 16.705 9.92876 16.5079C9.8098 16.428 9.6143 16.4097 9.48287 16.5328C9.24994 16.7499 9.29403 17.1285 9.53777 17.3206L10.0926 17.7599C10.2782 17.9071 10.3705 18.1068 10.3555 18.3713V18.3705Z" fill="#007784"/>
<path d="M39.652 18.3954C39.6213 18.7755 39.3501 19.011 39.0098 18.9977C38.6696 18.9843 38.4233 18.7098 38.4292 18.3455C38.4292 18.2955 38.4142 18.2198 38.4624 18.209C38.7969 18.1308 38.4774 18.5027 38.8218 18.7473C38.9391 18.8304 39.1255 18.8504 39.2644 18.7389C39.5331 18.5226 39.5006 18.1125 39.2336 17.9054L38.7627 17.5402C38.4466 17.2956 38.3152 16.8713 38.529 16.5128C38.6696 16.2774 38.9691 16.2158 39.2344 16.2973C39.6495 16.4246 39.6745 17.0161 39.6005 17.0677C39.5672 17.091 39.4973 17.0893 39.459 17.0685C39.3783 17.0236 39.4998 16.7191 39.2427 16.5211C39.1313 16.4346 38.9358 16.403 38.7993 16.5153C38.5331 16.7333 38.5939 17.1342 38.8534 17.338L39.3842 17.7565C39.5805 17.9112 39.6737 18.1292 39.6512 18.3954H39.652Z" fill="#007784"/>
<path d="M14.0962 17.7116L13.5022 17.7282L13.4989 18.7731L14.4164 18.793C14.4572 18.7939 14.4539 18.9311 14.4164 18.9594L13.2817 18.9619V16.2974L14.4098 16.2999C14.4547 16.2999 14.4597 16.4654 14.4164 16.4662L13.4997 16.4854L13.4922 17.5144C13.7143 17.6009 14.2584 17.3971 14.0953 17.7107L14.0962 17.7116Z" fill="#007784"/>
<path d="M22.9259 18.9247C22.8694 19.0021 22.7795 18.9688 22.718 18.9405L22.2713 17.8682C22.1307 18.0778 21.8861 18.9472 21.7655 18.9655C21.7305 18.9705 21.6041 18.9721 21.6282 18.9114L22.1573 17.6286L21.6157 16.3192C21.6665 16.2868 21.7771 16.2735 21.812 16.3068L22.2713 17.389L22.7238 16.3192C22.7454 16.2677 22.8744 16.2851 22.9276 16.3176L22.3819 17.632L22.9259 18.9247Z" fill="#007784"/>
<path d="M30.2983 17.3871C30.0953 17.8671 29.6445 17.6633 29.3425 17.7539L29.3342 18.9419C29.3117 18.9843 29.1686 18.981 29.1445 18.9377L29.1387 16.3048C29.5613 16.2848 30.0762 16.17 30.2842 16.6059C30.4006 16.8505 30.4031 17.14 30.2983 17.3879V17.3871ZM30.1611 16.9786C30.1527 16.764 30.0679 16.5569 29.8724 16.4978C29.7035 16.447 29.5255 16.4795 29.3466 16.4803V17.546C29.5255 17.5443 29.711 17.5834 29.8832 17.5252C30.0962 17.4536 30.171 17.2091 30.1619 16.9786H30.1611Z" fill="#007784"/>
<path d="M37.6961 17.7035C37.499 17.7525 37.3168 17.696 37.0905 17.7301L37.088 18.7724L37.9981 18.7874C38.0588 18.7882 38.0547 18.9538 38.0106 18.9563C37.6337 18.9762 37.266 18.9688 36.8809 18.9588L36.885 16.2959L37.9948 16.2976C38.058 16.2976 38.0638 16.4673 37.9981 16.4689L37.0888 16.4856L37.0822 17.5154C37.291 17.5612 37.4923 17.513 37.687 17.5429C37.7244 17.5487 37.7369 17.6926 37.6953 17.7026L37.6961 17.7035Z" fill="#007784"/>
<path d="M8.38934 17.7075C8.20633 17.7474 8.02581 17.6983 7.79704 17.7299V18.7731L8.72376 18.7956C8.7612 18.7964 8.75537 18.9578 8.71711 18.9595C8.34442 18.9728 7.97007 18.9719 7.5874 18.9595L7.58907 16.2949L8.70297 16.2991C8.76453 16.2991 8.76536 16.4696 8.70546 16.4705L7.79537 16.4846L7.78872 17.5153C7.99336 17.5594 8.17472 17.517 8.37853 17.5394C8.44258 17.5469 8.44175 17.695 8.38851 17.7066L8.38934 17.7075Z" fill="#007784"/>
<path d="M7.19844 18.7824C7.265 18.784 7.26583 18.9546 7.22007 18.957C6.83824 18.977 6.48136 18.9695 6.09619 18.9587L6.09869 16.3266C6.10368 16.2792 6.28586 16.2767 6.29169 16.3225L6.30333 18.7624L7.19928 18.7815L7.19844 18.7824Z" fill="#007784"/>
<path d="M24.7311 18.9248C24.7153 18.9888 24.5348 18.9822 24.5348 18.9347L24.5181 16.4848L24.0256 16.4699C23.9832 16.4682 23.9782 16.3068 24.0206 16.3043C24.4308 16.2852 24.8409 16.2902 25.2627 16.3018C25.3051 16.3026 25.3101 16.4649 25.2685 16.4657L24.7402 16.4832L24.7319 18.9248H24.7311Z" fill="#007784"/>
<path d="M32.8264 16.2935H32.6201V18.9671H32.8264V16.2935Z" fill="#007784"/>
<path d="M4.69168 18.944L4.25161 17.7369C4.15012 17.682 3.97043 17.7003 3.85979 17.7327L3.8523 18.9523C3.78575 18.9731 3.73251 18.9714 3.64849 18.9523L3.646 16.2919C3.91636 16.2919 4.17175 16.2553 4.42464 16.3069C4.72163 16.3668 4.86055 16.6662 4.87553 16.9483C4.893 17.2785 4.77071 17.5647 4.45376 17.7028L4.88551 18.9398C4.86222 18.9739 4.71081 18.993 4.69334 18.9448L4.69168 18.944ZM4.66589 16.974C4.65841 16.7636 4.57355 16.5606 4.38471 16.4999C4.21168 16.4441 4.03033 16.4791 3.85563 16.4807L3.85896 17.5256C4.03948 17.5289 4.22582 17.5672 4.3947 17.5031C4.59768 17.4266 4.67338 17.2028 4.66506 16.9732L4.66589 16.974Z" fill="#007784"/>
<path d="M2.85912 16.334C2.90737 16.2699 2.99805 16.2832 3.06627 16.324L3.05545 18.3804C3.05379 18.7356 2.76845 18.9893 2.4515 18.9985C2.11292 19.0085 1.81011 18.7597 1.80928 18.3846L1.80762 16.3223C1.80762 16.279 1.99479 16.2782 1.99479 16.3223L2.01642 18.3995C2.01892 18.6375 2.21441 18.8072 2.42155 18.8113C2.62869 18.8155 2.83999 18.6524 2.84166 18.4162L2.85829 16.3348L2.85912 16.334Z" fill="#007784"/>
<path d="M1.34438 18.3938C1.31443 18.7739 1.04407 19.011 0.70216 18.9977C0.360253 18.9844 0.11651 18.7099 0.122333 18.3447C0.122333 18.2956 0.105695 18.2199 0.153945 18.2091C0.493355 18.1292 0.164759 18.5419 0.539109 18.7623C0.663893 18.8363 0.848572 18.8405 0.980842 18.7199C1.22625 18.4961 1.18549 18.1051 0.927602 17.9055L0.455088 17.5394C0.133147 17.2899 0.00337277 16.8465 0.237965 16.4904C0.387706 16.2633 0.696336 16.2151 0.954222 16.3074C1.34188 16.4463 1.36434 17.0128 1.29197 17.0669C1.26119 17.0902 1.19048 17.0902 1.15221 17.0669C1.0815 17.0245 1.18549 16.7125 0.935089 16.5195C0.822784 16.433 0.626458 16.4031 0.489196 16.517C0.227983 16.7342 0.288711 17.1343 0.545764 17.3356L1.07984 17.7549C1.27533 17.9088 1.36518 18.1317 1.34438 18.3929V18.3938Z" fill="#007784"/>
</g>
<defs>
<clipPath id="clip0_15_627">
<rect width="53.8573" height="24" fill="white"/>
</clipPath>
</defs>
</svg>
