<svg width="113" height="24" viewBox="0 0 113 24" fill="none" xmlns="http://www.w3.org/2000/svg">
<mask id="mask0_13_316" style="mask-type:luminance" maskUnits="userSpaceOnUse" x="0" y="0" width="113" height="24">
<path d="M0 0H112.012V24H0V0Z" fill="white"/>
</mask>
<g mask="url(#mask0_13_316)">
<path d="M15.3989 3.14913C14.1625 3.14913 13.2624 4.13355 13.1491 5.56805H17.3677C17.4231 3.99309 16.6361 3.14913 15.3989 3.14913ZM21.4454 8.40746H13.1206C13.1491 10.264 14.2744 11.3324 16.5799 11.3324C17.958 11.3324 19.3923 11.0517 20.6857 10.4614L21.079 13.6939C19.5043 14.3416 17.6205 14.6523 15.9045 14.6523C11.3212 14.6523 8.79053 12.4298 8.79053 7.50944C8.79053 3.20656 11.1816 0.0298805 15.5117 0.0298805C19.7294 0.0298805 21.585 2.86994 21.585 6.52502C21.585 7.1149 21.5288 7.735 21.4454 8.40895" fill="#007784"/>
<path d="M31.8208 8.37973C29.2902 8.37973 27.9963 8.91514 27.9963 10.2081C27.9963 10.9385 28.5028 11.4445 29.4021 11.4445C30.8377 11.4445 31.8208 10.123 31.8208 8.77342V8.37973ZM32.2145 14.3693C32.2145 13.6664 32.2145 12.9358 32.3264 12.2327H32.2983C31.6238 13.6936 29.9652 14.6519 28.024 14.6519C25.3529 14.6519 23.9463 13.0769 23.9463 10.8265C23.9463 7.28359 27.3771 5.76504 31.8191 5.70865V5.00576C31.8191 3.79597 31.2858 3.26185 29.5417 3.26185C28.9523 3.26185 28.4164 3.34569 27.9665 3.45848C27.9108 3.90833 27.8252 4.47099 27.7137 5.00512H24.986V0.730361C26.5054 0.28051 28.2206 -0.00125122 29.9077 -0.00125122C34.7728 -0.00125122 36.122 1.79905 36.122 5.00427V11.0772C36.797 11.19 37.6686 11.3025 38.3717 11.3581V14.1428C36.5437 14.339 34.2382 14.4514 32.2132 14.3669" fill="#007784"/>
<path d="M60.4635 3.43075L57.1745 14.3413H52.4503L50.9309 9.47581C50.6227 8.46371 50.3699 7.42398 50.1163 6.13056H50.0882C49.8073 7.45122 49.5255 8.49246 49.1595 9.6452L47.7822 14.3413H43.1427L39.9367 3.43075C39.4868 3.37457 39.0369 3.31775 38.6147 3.20518V0.364911H45.4759V3.20518C45.1393 3.28968 44.8009 3.34543 44.4076 3.37372L45.1112 5.96054C45.3925 7.0292 45.7015 8.09768 45.9275 9.22257H45.9832C46.2365 7.70462 46.6029 6.4955 46.9676 5.31404L48.5143 0.364911H52.2826L53.8016 5.31404C54.2233 6.69214 54.5038 7.84487 54.8124 9.22257H54.8694C55.0669 8.12575 55.3197 7.22563 55.5725 6.24207L56.4148 3.37457C56.05 3.34646 55.6848 3.29005 55.3478 3.20624V0.365763H61.7863V3.20624C61.3641 3.31859 60.9155 3.37455 60.4644 3.43139" fill="#007784"/>
<path d="M70.3341 8.37973C67.8026 8.37973 66.5105 8.91514 66.5105 10.2081C66.5105 10.9385 67.0161 11.4445 67.9158 11.4445C69.3497 11.4445 70.3341 10.123 70.3341 8.77342V8.37973ZM70.7274 14.3693C70.7274 13.6664 70.7274 12.9358 70.8406 12.2327H70.8138C70.1375 13.6936 68.4785 14.6519 66.539 14.6519C63.8662 14.6519 62.4604 13.0769 62.4604 10.8265C62.4604 7.28359 65.8908 5.76504 70.3341 5.70865V5.00576C70.3341 3.79597 69.7996 3.26185 68.0571 3.26185C67.4664 3.26185 66.9306 3.34569 66.482 3.45848C66.4249 3.90833 66.3411 4.47099 66.2279 5.00512H63.5006V0.730361C65.0192 0.28051 66.7344 -0.00125122 68.4215 -0.00125122C73.2861 -0.00125122 74.637 1.79905 74.637 5.00427V11.0772C75.3111 11.19 76.1828 11.3025 76.8859 11.3581V14.1428C75.0579 14.339 72.7524 14.4514 70.7274 14.3669" fill="#007784"/>
</g>
<path d="M84.3143 3.1213C82.9366 3.1213 82.0931 3.93715 82.0931 5.14589C82.0931 6.41164 82.8805 7.19853 84.342 7.19853C85.6644 7.19853 86.5351 6.4389 86.5351 5.17398C86.5351 3.93717 85.7478 3.1213 84.3143 3.1213ZM85.6583 15.0237H83.4363C83.2682 15.0237 83.0145 15.0237 82.8741 14.9965C82.2838 15.3908 81.8956 16.3175 81.8666 16.9087C81.8032 18.1651 82.1974 19.6458 84.3858 19.6458C86.3828 19.6458 87.4578 17.5273 87.4578 16.4303C87.4578 15.6723 86.9522 15.0244 85.6576 15.0244L85.6583 15.0237ZM83.939 22.8638C80.143 22.8638 77.6936 20.3837 77.6936 17.6284C77.6936 16.3071 78.6611 14.5096 79.7297 13.9733C78.9143 13.5809 78.3806 12.7931 78.3806 11.8096C78.3806 10.6855 79.1109 9.64451 80.0685 9.25084C78.8032 8.57689 77.9869 7.22643 77.9869 5.39843C77.9869 2.47288 80.0686 0.0267315 84.4565 0.0267315C85.4397 0.0267315 86.2546 0.167564 87.0709 0.365034H91.7667V3.73922H90.1638C90.4456 4.01993 90.586 4.47083 90.586 5.00496C90.586 8.09783 88.4763 10.0667 84.399 10.0667C84.1168 10.0667 83.7534 10.0386 83.4431 10.0099C83.0776 10.1514 82.9375 10.4608 82.9375 10.714C82.9375 11.2765 83.3312 11.4444 84.934 11.4444H86.8458C89.8552 11.4444 91.6134 13.2417 91.6134 16.0253C91.6134 19.0907 88.776 22.8638 83.9398 22.8638" fill="#007784"/>
<path d="M96.5412 18.0754C95.2989 18.0754 94.2881 19.0872 94.2881 20.3295C94.2881 21.5718 95.2989 22.5835 96.5412 22.5835C97.7827 22.5835 98.7947 21.5718 98.7947 20.3295C98.7947 19.0872 97.7827 18.0754 96.5412 18.0754ZM98.1138 20.3304C98.1138 21.1965 97.4086 21.9027 96.5412 21.9027C95.6742 21.9027 94.9699 21.1965 94.9699 20.3304C94.9699 19.4632 95.6742 18.7577 96.5412 18.7577C97.4086 18.7577 98.1138 19.4632 98.1138 20.3304Z" fill="#007784"/>
<mask id="mask1_13_316" style="mask-type:luminance" maskUnits="userSpaceOnUse" x="0" y="0" width="113" height="24">
<path d="M0 0H112.012V24H0V0Z" fill="white"/>
</mask>
<g mask="url(#mask1_13_316)">
<path d="M103.232 18.0755C101.99 18.0755 100.979 19.0872 100.979 20.3295C100.979 21.5718 101.99 22.5835 103.232 22.5835C104.476 22.5835 105.487 21.5718 105.487 20.3295C105.487 19.0872 104.476 18.0755 103.232 18.0755ZM104.807 20.3304C104.807 21.1965 104.1 21.9027 103.232 21.9027C102.365 21.9027 101.661 21.1965 101.661 20.3304C101.661 19.4632 102.365 18.7577 103.232 18.7577C104.1 18.7577 104.807 19.4632 104.807 20.3304Z" fill="#007784"/>
<path d="M109.759 18.0755C108.517 18.0755 107.506 19.0872 107.506 20.3295C107.506 21.5718 108.517 22.5835 109.759 22.5835C111.001 22.5835 112.013 21.5718 112.013 20.3295C112.013 19.0872 111.001 18.0755 109.759 18.0755ZM111.331 20.3304C111.331 21.1965 110.626 21.9027 109.759 21.9027C108.893 21.9027 108.187 21.1965 108.187 20.3304C108.187 19.4632 108.893 18.7577 109.759 18.7577C110.626 18.7577 111.331 19.4632 111.331 20.3304Z" fill="#007784"/>
<path d="M2.29613 20.4376C1.97947 20.4376 0.789495 20.4376 0.789495 21.2876C0.789495 21.5536 0.955467 22.012 1.65517 22.012C2.05395 22.012 2.3549 21.8525 2.54596 21.5612C2.7209 21.278 2.72897 21.0454 2.74514 20.4634C2.60424 20.4462 2.48763 20.4376 2.29613 20.4376ZM2.8375 22.4942C2.77832 22.2852 2.76217 22.0852 2.76217 21.8694C2.38767 22.5597 1.82246 22.627 1.47259 22.627C0.515445 22.627 0 22.086 0 21.3944C0 21.0626 0.114481 20.53 0.730336 20.171C1.18019 19.9214 1.8463 19.8969 2.17909 19.8969C2.37957 19.8969 2.50509 19.9058 2.74514 19.9214C2.74514 19.406 2.74515 19.1806 2.59576 18.9987C2.43786 18.7906 2.09608 18.7233 1.8718 18.7233C1.08101 18.7233 1.03934 19.2653 1.03124 19.4311H0.249404C0.273243 19.2151 0.298779 18.9238 0.540091 18.6422C0.856756 18.2924 1.44836 18.192 1.8884 18.192C2.49532 18.192 3.14519 18.3843 3.3695 18.8078C3.50269 19.057 3.51251 19.257 3.51251 19.4485L3.47803 21.4472C3.47803 21.5133 3.48697 22.0703 3.54528 22.4957H2.8375" fill="#007784"/>
<path d="M7.25704 18.8303C6.13302 18.8303 6.11684 20.0126 6.11684 20.3378C6.11684 20.6365 6.15898 21.2443 6.4586 21.6695C6.64117 21.9359 6.96635 22.0768 7.35663 22.0768C8.32275 22.0768 8.51427 21.3201 8.51427 20.4871C8.51427 20.1458 8.51429 18.8303 7.25704 18.8303ZM9.29653 18.3147C9.28803 18.4813 9.27993 18.8467 9.27993 18.9975V24.1001H8.49001V22.0268C8.42276 22.1264 8.33889 22.2609 8.14783 22.3858C7.79882 22.6262 7.40004 22.6518 7.20767 22.6518C6.1926 22.6518 5.30054 21.9359 5.30054 20.3871C5.30054 18.8467 6.17641 18.2472 7.05785 18.2472C7.90692 18.2472 8.29805 18.7145 8.48192 19.006L8.50661 18.3155H9.29738" fill="#007784"/>
</g>
<path d="M12.1358 18.3147V21.003C12.1358 21.412 12.2278 21.9274 13.0262 21.9274C13.4169 21.9274 13.7838 21.7953 14.0076 21.461C14.1834 21.2116 14.1834 20.8864 14.1834 20.6779V18.3141H14.9912V21.71C14.9912 21.7945 15.0078 22.2601 15.0163 22.4931H14.2L14.1834 21.7766C14.0336 22.067 13.751 22.5342 12.8517 22.5342C11.8205 22.5342 11.3369 21.9432 11.3369 21.118V18.3128H12.1363" fill="#007784"/>
<path d="M19.2196 20.4376C18.9034 20.4376 17.713 20.4376 17.713 21.2875C17.713 21.5535 17.8786 22.012 18.5783 22.012C18.9775 22.012 19.2779 21.8525 19.4682 21.5612C19.6435 21.278 19.652 21.0454 19.6691 20.4633C19.5274 20.4461 19.4103 20.4376 19.2196 20.4376ZM19.761 22.4942C19.7009 22.2852 19.6848 22.0852 19.6848 21.8694C19.3107 22.5597 18.7442 22.627 18.3961 22.627C17.4377 22.627 16.9214 22.086 16.9214 21.3944C16.9214 21.0626 17.038 20.53 17.6539 20.171C18.1033 19.9214 18.7697 19.8969 19.1017 19.8969C19.3022 19.8969 19.4273 19.9058 19.6691 19.9214C19.6691 19.406 19.6691 19.1806 19.5197 18.9987C19.361 18.7906 19.0192 18.7233 18.7945 18.7233C18.0037 18.7233 17.9624 19.2653 17.9539 19.4311H17.1708C17.1963 19.2151 17.2219 18.9237 17.4623 18.6422C17.7794 18.2924 18.3697 18.1919 18.8115 18.1919C19.4188 18.1919 20.0674 18.3843 20.293 18.8078C20.4258 19.057 20.4339 19.257 20.4339 19.4485L20.4007 21.4472C20.4007 21.5133 20.4092 22.0702 20.4671 22.4956H19.761" fill="#007784"/>
<path d="M21.9072 18.2991H22.6495V17.4246L23.4229 17.1751V18.2991H24.3554V18.8728H23.4229V21.379C23.4229 21.5867 23.4228 21.9366 23.9808 21.9366C24.1387 21.9366 24.2881 21.9121 24.3554 21.894V22.5022C24.2141 22.5269 23.9893 22.5518 23.7059 22.5518C22.9892 22.5518 22.6495 22.3428 22.6495 21.6614V18.8725H21.9072V18.2983" fill="#007784"/>
<path d="M26.0368 18.3145H26.8186V22.4941H26.0368V18.3145ZM25.9529 16.4999H26.8944V17.3579H25.9529V16.4999Z" fill="#007784"/>
<path d="M31.43 19.6547C31.4134 19.464 31.356 18.7819 30.5984 18.7819C29.5161 18.7819 29.5161 20.0373 29.5161 20.3543C29.5161 21.2124 29.7242 22.0121 30.5562 22.0121C31.2215 22.0121 31.4475 21.512 31.4645 21.1039H32.2553C32.205 21.9202 31.5973 22.6016 30.5652 22.6016C30.2822 22.6016 29.6323 22.5441 29.1918 22.0604C28.9424 21.7699 28.6921 21.3281 28.6921 20.4635C28.6921 18.7226 29.7583 18.2063 30.5912 18.2063C30.8649 18.2063 31.4892 18.2653 31.8727 18.7221C32.1808 19.0807 32.205 19.4214 32.2225 19.6538H31.4317" fill="#007784"/>
<path d="M37.1077 19.1633C37.1077 18.8803 37.0911 18.5888 37.0664 18.3145H37.858L37.8743 19.1216C38.0236 18.5394 38.5233 18.3483 38.8727 18.2981C39.1059 18.2645 39.28 18.2725 39.4149 18.2808V19.0469C39.372 19.0303 39.3221 19.022 39.2638 19.0139C39.2042 19.005 39.1306 19.005 39.0387 19.005C38.1151 19.005 37.8989 19.5543 37.8989 20.2704V22.4941H37.1077V19.1633Z" fill="#007784"/>
<path d="M43.6926 19.9962C43.7011 19.5974 43.625 18.765 42.6597 18.765C42.1524 18.765 41.5366 19.0726 41.5199 19.9962H43.6926ZM41.485 20.545C41.4693 21.4122 41.8268 22.0527 42.6844 22.0527C43.1921 22.0527 43.5995 21.7865 43.6663 21.1871H44.449C44.4234 21.3941 44.3902 21.7357 44.0906 22.0606C43.9076 22.2694 43.4913 22.6182 42.6503 22.6182C41.3352 22.6182 40.7104 21.8029 40.7104 20.4793C40.7104 19.6549 40.8773 18.9718 41.5344 18.5153C41.9336 18.231 42.4333 18.2065 42.6746 18.2065C44.5481 18.2065 44.506 19.8634 44.489 20.545H41.4842" fill="#007784"/>
<path d="M46.7966 21.2534C46.7881 21.5692 46.9558 22.0111 47.7125 22.0111C48.036 22.0111 48.2777 21.9519 48.4446 21.7433C48.5288 21.6357 48.5778 21.4937 48.5778 21.3527C48.5778 20.9453 48.2863 20.8696 47.6627 20.7282C46.789 20.5289 46.0557 20.3542 46.0557 19.4804C46.0557 18.7143 46.7217 18.2143 47.6866 18.2143C48.2122 18.2143 48.9442 18.3645 49.1936 18.8646C49.3021 19.097 49.3021 19.2964 49.3021 19.4723H48.5046C48.5288 18.8391 47.9802 18.7901 47.6972 18.7901C47.5798 18.7901 46.8473 18.7901 46.8473 19.3893C46.8473 19.772 47.2227 19.863 47.4384 19.9214C48.5961 20.1963 48.8446 20.2629 49.0936 20.497C49.3269 20.7138 49.4115 21.0041 49.4115 21.2703C49.4115 21.7365 49.1528 22.1366 48.8459 22.3281C48.4786 22.5528 48.0377 22.6113 47.6053 22.6113C46.7562 22.6113 45.965 22.2625 45.9735 21.2547H46.7975" fill="#007784"/>
<path d="M53.8968 19.9962C53.9053 19.5974 53.8313 18.765 52.866 18.765C52.3565 18.765 51.7407 19.0726 51.7241 19.9962H53.8968ZM51.6922 20.545C51.6752 21.4122 52.0313 22.0527 52.8902 22.0527C53.398 22.0527 53.8061 21.7865 53.8725 21.1871H54.654C54.6297 21.3941 54.5965 21.7357 54.2969 22.0606C54.1134 22.2694 53.6976 22.6182 52.8562 22.6182C51.5403 22.6182 50.9163 21.8029 50.9163 20.4793C50.9163 19.6549 51.0823 18.9718 51.7403 18.5153C52.1403 18.231 52.6392 18.2065 52.8818 18.2065C54.7535 18.2065 54.7123 19.8634 54.6948 20.545H51.6909" fill="#007784"/>
<path d="M58.5585 20.4376C58.2419 20.4376 57.051 20.4376 57.051 21.2875C57.051 21.5535 57.2178 22.012 57.9184 22.012C58.3172 22.012 58.6159 21.8525 58.8079 21.5612C58.9824 21.278 58.9909 21.0454 59.0079 20.4633C58.8666 20.4461 58.7492 20.4376 58.5585 20.4376ZM59.099 22.4942C59.0424 22.2852 59.025 22.0852 59.025 21.8694C58.6504 22.5597 58.0836 22.627 57.7346 22.627C56.7765 22.627 56.262 22.086 56.262 21.3944C56.262 21.0626 56.3785 20.53 56.994 20.171C57.4434 19.9214 58.1086 19.8969 58.4431 19.8969C58.6423 19.8969 58.7662 19.9058 59.0084 19.9214C59.0084 19.406 59.0083 19.1806 58.8572 18.9987C58.7007 18.7906 58.3585 18.7233 58.1342 18.7233C57.3426 18.7233 57.3013 19.2653 57.2941 19.4311H56.5114C56.5361 19.2151 56.5616 18.9237 56.8029 18.6422C57.12 18.2924 57.7116 18.1919 58.1516 18.1919C58.7594 18.1919 59.4084 18.3843 59.634 18.8078C59.7664 19.057 59.7744 19.257 59.7744 19.4485L59.7408 21.4472C59.7408 21.5133 59.751 22.0702 59.8081 22.4956H59.0999" fill="#007784"/>
<path d="M61.9306 19.1633C61.9306 18.8803 61.9127 18.5888 61.8884 18.3145H62.6792L62.6962 19.1216C62.8456 18.5394 63.3457 18.3483 63.6955 18.2981C63.9279 18.2645 64.1033 18.2725 64.2373 18.2808V19.0469C64.1956 19.0303 64.1454 19.022 64.0862 19.0139C64.0288 19.005 63.9535 19.005 63.8611 19.005C62.9388 19.005 62.7218 19.5543 62.7218 20.2704V22.4941H61.9318V19.1633" fill="#007784"/>
<path d="M68.2142 19.6547C68.1976 19.464 68.1392 18.7819 67.3829 18.7819C66.3002 18.7819 66.3002 20.0373 66.3002 20.3543C66.3002 21.2124 66.5083 22.0121 67.3412 22.0121C68.0069 22.0121 68.2329 21.512 68.2486 21.1039H69.0381C68.9892 21.9202 68.3814 22.6016 67.3498 22.6016C67.0663 22.6016 66.4177 22.5441 65.9755 22.0604C65.7252 21.7699 65.4758 21.3281 65.4758 20.4635C65.4758 18.7226 66.542 18.2063 67.3736 18.2063C67.6485 18.2063 68.2733 18.2653 68.6559 18.7221C68.9644 19.0807 68.9892 19.4214 69.0054 19.6538H68.2142" fill="#007784"/>
<path d="M70.2864 16.4916H71.0771V18.9303C71.3355 18.4892 71.8517 18.2389 72.4335 18.2389C72.8758 18.2389 73.5078 18.3985 73.7482 18.9054C73.8325 19.0722 73.89 19.2727 73.89 19.8792V22.4941H73.0915V20.0205C73.0915 19.6462 73.0915 18.8384 72.1922 18.8384C71.6091 18.8384 71.3189 19.1963 71.2099 19.3966C71.0771 19.6298 71.0771 20.0205 71.0771 20.2787V22.4941H70.2864V16.4916Z" fill="#007784"/>
</svg>
