<svg width="83" height="24" viewBox="0 0 83 24" fill="none" xmlns="http://www.w3.org/2000/svg">
<g clip-path="url(#clip0_15_425)">
<path d="M0 9.78113H5.17585V4.43774H17.3615V0H0V9.78113Z" fill="#007784"/>
<path d="M0 23.9999H17.3615V19.5621H5.17585V14.2188H0V23.9999Z" fill="#007784"/>
<path d="M5.17578 9.78125H16.3199V14.219H5.17578V9.78125Z" fill="#007784"/>
<path d="M38.9435 2.20543C38.2073 1.49866 37.3311 0.954109 36.3714 0.606935C35.136 0.172089 33.8316 -0.0335464 32.5223 0.000142212H21.7993V24.0001H26.9752V14.219H32.5223C33.8255 14.2505 35.1236 14.0449 36.3533 13.6122C37.3194 13.2673 38.202 12.7226 38.9435 12.0137C39.5877 11.3761 40.0812 10.6025 40.388 9.74958C40.9917 8.04756 40.9917 6.1897 40.388 4.48769C40.0824 3.62888 39.5889 2.84915 38.9435 2.20543ZM35.3208 8.48165C35.0554 8.83673 34.7029 9.11745 34.2974 9.29675C33.8259 9.49834 33.3267 9.62808 32.8167 9.68165C32.2366 9.75006 31.6529 9.78333 31.0688 9.78127H26.9752V4.43788H31.0733C31.6574 4.43583 32.2411 4.46909 32.8212 4.5375C33.3319 4.59022 33.8314 4.72159 34.302 4.92693C34.7064 5.10367 35.0577 5.3831 35.3208 5.7375C35.5923 6.13718 35.7287 6.61321 35.7103 7.09599C35.7346 7.58794 35.5979 8.07442 35.3208 8.48165Z" fill="#007784"/>
<path d="M70.4014 19.5623V0H65.2256V24H82.5871V19.5623H70.4014Z" fill="#007784"/>
<path d="M44.1147 9.78113H49.2906V4.43774H61.4763V0H44.1147V9.78113Z" fill="#007784"/>
<path d="M44.1147 14.2188H49.2906V23.9999H44.1147V14.2188Z" fill="#007784"/>
<path d="M49.2905 9.78125H60.4347V14.219H49.2905V9.78125Z" fill="#007784"/>
</g>
<defs>
<clipPath id="clip0_15_425">
<rect width="82.5962" height="24" fill="white"/>
</clipPath>
</defs>
</svg>
