<svg width="84" height="24" viewBox="0 0 84 24" fill="none" xmlns="http://www.w3.org/2000/svg">
<g clip-path="url(#clip0_15_487)">
<mask id="mask0_15_487" style="mask-type:luminance" maskUnits="userSpaceOnUse" x="0" y="-1" width="85" height="32">
<path d="M0 30.1526H84.7324V-0.00341797H0V30.1526Z" fill="white"/>
</mask>
<g mask="url(#mask0_15_487)">
<path d="M5.26164 5.64567L5.77881 6.31298L6.15918 6.01937L5.31502 4.93164L5.01807 5.16186C5.13485 5.34537 4.96801 5.56559 4.75781 5.72241L4.90796 5.91927L5.26164 5.64567Z" fill="#007784"/>
<path d="M6.63631 5.01842C6.66296 4.91165 6.73641 4.84825 6.84985 4.78819C7.01667 4.70474 7.15348 4.73817 7.21687 4.85826C7.27692 4.97504 7.19688 5.11518 7.04003 5.19526C6.91991 5.25864 6.74975 5.27526 6.69637 5.17857L6.29264 5.38544C6.46614 5.66572 6.80647 5.62234 7.16682 5.43883C7.55052 5.23864 7.76741 4.93834 7.61392 4.63471C7.48046 4.38113 7.19018 4.34776 6.85318 4.52127C6.72639 4.58798 6.6263 4.67142 6.57291 4.77485L6.5695 4.77829L6.51611 4.52137L7.25016 4.14768L7.12003 3.89404L6.07568 4.43128L6.26921 5.20537L6.63631 5.01842Z" fill="#007784"/>
<path d="M15.3849 4.5947C15.2581 4.52799 15.1313 4.50129 15.0178 4.51801L15.011 4.51457L15.1878 4.32438L15.9252 4.69474L16.052 4.44116L15.0043 3.91064L14.4905 4.52457L14.8575 4.70809C14.9576 4.66803 15.0544 4.69147 15.1678 4.75151C15.3347 4.83488 15.388 4.96501 15.328 5.08512C15.2679 5.20524 15.1111 5.22193 14.9509 5.14184C14.8308 5.08179 14.7174 4.95166 14.7641 4.8549L14.357 4.65136C14.2336 4.95499 14.4671 5.2019 14.8308 5.38541C15.2145 5.58227 15.5882 5.57893 15.7417 5.27531C15.8685 5.01839 15.7252 4.76486 15.3849 4.5947Z" fill="#007784"/>
<path d="M17.0534 5.12185C16.7498 4.88495 16.3694 4.84492 16.1859 5.07847C16.0224 5.29201 16.1024 5.60231 16.3927 5.8292C16.5195 5.92596 16.683 5.99936 16.8131 5.966L16.8166 5.96939C16.6964 6.10618 16.5263 6.18628 16.3294 6.03612C16.286 6.00272 16.246 5.95608 16.2226 5.91267C16.1992 5.86928 16.1926 5.81925 16.2093 5.7792L15.8757 5.51895C15.7689 5.76252 15.889 6.00609 16.1593 6.2163C16.6264 6.57665 17.0134 6.43985 17.2537 6.12621C17.4806 5.83593 17.4838 5.45217 17.0534 5.12185ZM17.0067 5.7058C16.9299 5.8059 16.7765 5.81255 16.623 5.69579C16.4762 5.58234 16.4495 5.4322 16.5296 5.3321C16.5996 5.23868 16.7598 5.23536 16.8933 5.34211C17.0501 5.45889 17.0835 5.60904 17.0067 5.7058Z" fill="#007784"/>
<path d="M1.83852 10.7707C2.07875 10.8507 2.2556 10.6172 2.39906 10.3736C2.53921 10.13 2.64597 9.87313 2.74941 9.90649C2.83615 9.93656 2.81945 10.0733 2.78613 10.1734C2.73941 10.3169 2.64933 10.4604 2.52922 10.4103L2.3724 10.8841C2.67603 10.9809 2.92627 10.6606 3.04305 10.3002C3.15649 9.96321 3.17317 9.52612 2.88289 9.42936C2.63599 9.34932 2.45916 9.58951 2.31901 9.82975C2.17888 10.0733 2.0721 10.3236 1.95199 10.2835C1.85189 10.2501 1.86523 10.0933 1.91192 9.94986C1.97863 9.74967 2.07208 9.63623 2.23224 9.6796L2.38906 9.20581C2.04538 9.0957 1.78847 9.41934 1.64833 9.83308C1.5182 10.2301 1.4982 10.6572 1.83852 10.7707Z" fill="#007784"/>
<path d="M1.68173 13.1463L1.72179 12.6491C1.56164 12.619 1.47155 12.4789 1.48823 12.2454C1.51488 11.9284 1.7318 11.8216 1.94201 11.8383C2.15221 11.855 2.34907 11.9918 2.32571 12.3121C2.30906 12.519 2.22225 12.6625 2.07878 12.6758L2.04205 13.1729C2.38238 13.1863 2.60927 12.7559 2.6393 12.3455C2.68602 11.7716 2.38906 11.3745 1.97866 11.3412C1.57159 11.3111 1.21792 11.6581 1.17454 12.232C1.13781 12.7158 1.32138 13.0895 1.68173 13.1463Z" fill="#007784"/>
<path d="M2.76936 14.738L2.2622 14.8247L2.1521 14.1807L2.65926 14.094L2.57251 13.6035L1.18115 13.8437L1.2679 14.3342L1.83846 14.2341L1.9519 14.8781L1.37801 14.9782L1.46145 15.4653L2.8528 15.2284L2.76936 14.738Z" fill="#007784"/>
<path d="M3.35632 16.4227C3.10941 15.8755 2.67565 15.6987 2.29862 15.8655C1.92826 16.0324 1.7681 16.4761 2.01501 17.0233C2.25858 17.5705 2.69568 17.7474 3.06937 17.5805C3.44307 17.4137 3.59988 16.9699 3.35632 16.4227ZM2.86584 17.1268C2.67565 17.2135 2.43209 17.1868 2.30196 16.8932C2.17184 16.6029 2.31195 16.4027 2.50215 16.3193C2.69567 16.2326 2.93591 16.2593 3.06604 16.5529C3.1995 16.8432 3.0592 17.04 2.86584 17.1268Z" fill="#007784"/>
<path d="M4.23095 17.9845L3.93066 17.5874L2.80957 18.4416L3.64705 19.546L3.89729 19.3525L3.36011 18.6451L4.23095 17.9845Z" fill="#007784"/>
<path d="M3.90723 19.8494L4.29427 20.1831L4.54785 20.0663L5.05501 20.5001L4.97829 20.7703L5.37201 21.1073L5.74904 19.5725L5.36867 19.2422L3.90723 19.8494ZM5.14176 20.2165L4.81478 19.9362L5.29858 19.7026L5.30541 19.706L5.14176 20.2165Z" fill="#007784"/>
<path d="M9.29884 21.558C9.4957 21.6014 9.63583 21.7048 9.62916 21.8249L10.113 21.925C10.1396 21.5713 9.75928 21.3311 9.37224 21.251C8.80836 21.1342 8.37794 21.3778 8.29453 21.7782C8.21108 22.1786 8.5114 22.5756 9.07529 22.6924C9.2488 22.7291 9.47568 22.7258 9.6325 22.619L9.62908 22.7758L9.94272 22.8425L10.0995 22.0851L9.31544 21.9216L9.26206 22.1886L9.59905 22.2586C9.549 22.3788 9.36883 22.4288 9.1286 22.3788C8.81496 22.3154 8.73822 22.0851 8.77826 21.8783C8.82165 21.6747 8.9852 21.4946 9.29884 21.558Z" fill="#007784"/>
<path d="M11.3444 22.5521L11.3311 22.2818L12.2653 22.2351L12.2486 21.9515L11.3177 21.9982L11.3044 21.7513L12.3254 21.6979L12.3121 21.4043L10.7939 21.481L10.864 22.8924L12.4088 22.8157L12.3921 22.4987L11.3444 22.5521Z" fill="#007784"/>
<path d="M13.9635 20.9674L14.2238 21.7982L14.217 21.8016L13.3261 21.1677L12.8423 21.3178L13.2594 22.6658L13.7065 22.5257L13.4462 21.6882L13.4496 21.6847L14.3438 22.3287L14.831 22.1785L14.4106 20.8306L13.9635 20.9674Z" fill="#007784"/>
<path d="M15.9254 21.2541L15.7819 21.0239L16.576 20.5334L16.4292 20.2932L15.6318 20.7837L15.5016 20.5735L16.3725 20.0363L16.219 19.7827L14.9277 20.5835L15.6685 21.7847L16.9831 20.9705L16.8162 20.7036L15.9254 21.2541Z" fill="#007784"/>
<path d="M17.4001 18.6716L17.8806 19.6759L17.8772 19.6827L16.8695 19.2056L16.5059 19.5759L17.9306 20.1431L18.331 19.7361L17.7637 18.3047L17.4001 18.6716Z" fill="#007784"/>
<path d="M19.1818 18.1313L18.9516 17.9945L19.4387 17.1938L19.1951 17.047L18.7113 17.8444L18.4978 17.7176L19.0283 16.8434L18.7747 16.6899L17.9873 17.9879L19.1951 18.7219L19.9959 17.4006L19.7257 17.2338L19.1818 18.1313Z" fill="#007784"/>
<path d="M19.3419 15.0716L20.176 15.3219L20.1726 15.3253L19.1483 15.709L19.0015 16.1961L20.3528 16.6032L20.4896 16.1561L19.6454 15.9025L19.6488 15.8991L20.6832 15.5187L20.83 15.0316L19.4787 14.6245L19.3419 15.0716Z" fill="#007784"/>
<path d="M20.5966 12.5457C20.343 12.5357 20.2362 12.8093 20.1661 13.0795C20.0961 13.3531 20.0627 13.6301 19.9559 13.6234C19.8625 13.62 19.8425 13.4866 19.8458 13.3798C19.8527 13.2263 19.8992 13.0662 20.0293 13.0795L20.0527 12.5857C19.7324 12.5724 19.5789 12.9494 19.5622 13.3264C19.5489 13.6835 19.6489 14.1072 19.9559 14.1205C20.2162 14.1339 20.3196 13.8503 20.3897 13.5834C20.4597 13.3098 20.4931 13.0395 20.6199 13.0462C20.7233 13.0496 20.7567 13.2063 20.75 13.3531C20.74 13.5667 20.68 13.7001 20.5131 13.7035L20.4931 14.2006C20.8535 14.2139 21.0136 13.8336 21.0303 13.3965C21.0503 12.9794 20.9536 12.5624 20.5966 12.5457Z" fill="#007784"/>
<path d="M19.549 11.9718L20.9471 11.7683L20.877 11.2778L19.479 11.4814L19.549 11.9718Z" fill="#007784"/>
<path d="M19.7728 10.7909C20.0164 10.7075 20.0097 10.4072 19.9764 10.1303C19.943 9.85336 19.8763 9.58643 19.993 9.54639C20.0931 9.513 20.1799 9.64649 20.2299 9.78663C20.2966 9.98682 20.2933 10.1336 20.1365 10.2004L20.3 10.6675C20.6403 10.5474 20.6503 10.137 20.5068 9.72323C20.37 9.32618 20.1298 8.97584 19.7928 9.09262C19.5492 9.17266 19.5492 9.46632 19.5859 9.74659C19.6227 10.0269 19.6927 10.2938 19.5894 10.3272C19.4993 10.3572 19.4325 10.2404 19.3958 10.1403C19.3458 9.99683 19.3358 9.83 19.4592 9.79664L19.2957 9.32618C18.9954 9.43295 18.9921 9.83668 19.1156 10.1937C19.2324 10.534 19.4792 10.891 19.7728 10.7909Z" fill="#007784"/>
<path d="M6.63961 21.0875C6.52617 21.2376 6.55615 21.4479 6.70631 21.5613C6.85313 21.6714 7.06333 21.6413 7.17677 21.4946C7.28688 21.3444 7.25681 21.1342 7.11006 21.0241C6.95992 20.9107 6.74971 20.9407 6.63961 21.0875Z" fill="#007784"/>
<path d="M3.88372 7.6409C3.99383 7.49075 3.96042 7.28054 3.81035 7.17044C3.6602 7.06033 3.44999 7.09372 3.33989 7.24379C3.22978 7.39394 3.2631 7.60414 3.41327 7.71425C3.56342 7.82435 3.77361 7.79097 3.88372 7.6409Z" fill="#007784"/>
<path d="M18.2041 7.24379C18.094 7.39394 18.1274 7.60748 18.2775 7.71425C18.4276 7.82435 18.6412 7.79097 18.748 7.6409C18.8581 7.49075 18.8247 7.28054 18.6746 7.17044C18.5244 7.06033 18.3142 7.09372 18.2041 7.24379Z" fill="#007784"/>
<path d="M11.9016 3.57357L11.6313 4.00065H12.2987V3.79378H12.0351L12.1819 3.5769L12.0351 3.35002H12.2953V3.14648H11.6313L11.9016 3.57357Z" fill="#007784"/>
<path d="M10.4568 3.79373L10.2933 3.79712V3.35002H10.4434V3.14648H9.89624V3.35002H10.0464V3.79712L9.88623 3.79373V4.0006H10.4568V3.79373Z" fill="#007784"/>
<path d="M11.2376 3.4467H10.8873L10.8907 3.14307H10.6338V4.00057H10.8907L10.8873 3.66024H11.2376V4.00057H11.4912V3.14307H11.2376V3.4467Z" fill="#007784"/>
<path d="M10.9539 2.63607C10.9539 2.56936 11.0006 2.5293 11.0706 2.5293C11.1307 2.5293 11.1741 2.57602 11.1741 2.63607L11.1775 2.93636H11.6546V2.68278H11.361V2.61938C11.361 2.43588 11.2742 2.28906 11.0674 2.28906C10.9072 2.28906 10.7971 2.37582 10.7771 2.5293C10.7737 2.56269 10.7737 2.59933 10.7737 2.63273V2.68278H10.4834L10.48 2.93641H10.9538L10.9539 2.63607Z" fill="#007784"/>
<path d="M11.0676 4.20068C10.9843 4.20068 10.9175 4.27073 10.9175 4.35417C10.9175 4.44092 10.9842 4.50765 11.0676 4.50765C11.1544 4.50765 11.2211 4.44094 11.2211 4.35417C11.2211 4.2708 11.1544 4.20068 11.0676 4.20068Z" fill="#007784"/>
<path d="M13.4364 2.16235L13.66 1.88541L12.3453 2.07893L12.5522 0.777668L11.5145 1.61849L11.0374 0.370605L10.5636 1.61849L9.52593 0.774331L9.73614 2.09562L8.41819 1.88208L8.64841 2.16568C3.70694 3.26676 0 7.68105 0 12.9495C0 19.0421 4.95482 24.0003 11.0474 24.0003C17.14 24.0003 22.0982 19.0421 22.0982 12.9495C22.0982 7.67772 18.3845 3.25675 13.4364 2.16235ZM11.0641 1.89209C11.8982 1.89209 12.5789 2.57275 12.5789 3.40689C12.5789 4.24103 11.8982 4.9217 11.0641 4.9217C10.2266 4.9217 9.54595 4.24103 9.54595 3.40689C9.54595 2.57275 10.2266 1.89209 11.0641 1.89209ZM12.4588 5.31875C14.1071 5.62571 15.5752 6.44985 16.6829 7.62099H15.9722V8.14817H15.3282V7.62099H14.4474V8.3517H13.9269C13.9269 8.3517 13.9337 7.23728 13.9337 7.22727C13.9337 6.97704 13.7302 6.77016 13.4766 6.77016C13.2264 6.77016 13.0228 6.97704 13.0228 7.22727C13.0228 7.23727 13.0262 13.1263 13.0262 13.1263L12.1254 13.9572V14.3976C11.7283 14.4543 11.398 14.7079 11.2312 15.0549V6.06614L11.5348 5.19196L12.5524 6.01943L12.4588 5.31875ZM12.8792 18.0478C12.6556 18.1346 12.4955 18.3514 12.4955 18.6083C12.4955 18.942 12.7657 19.2123 13.0961 19.2123H13.8568C14.1905 19.2123 14.4607 18.942 14.4607 18.6083C14.4607 18.3514 14.3006 18.1346 14.077 18.0478C15.1047 17.6908 15.8421 16.7132 15.8421 15.562C15.8421 14.9681 15.4016 14.481 14.8311 14.3976V13.9572L13.9269 13.1263V11.398H14.4474V12.1287H15.3282V11.5748H15.9722V12.1287H16.8531V10.1735H15.9722V10.6473H15.3282V10.1735H14.5975V9.57289H15.3282V9.10243H15.9722V9.57289H16.8531V7.80117C18.0709 9.1725 18.8116 10.9776 18.8116 12.9495C18.8116 17.1703 15.4283 20.6103 11.2309 20.7071V16.3461C11.4812 17.1402 12.0951 17.7742 12.8792 18.0478ZM11.7181 15.562C11.7181 15.2818 11.9249 15.0482 12.1919 14.9982C12.2152 15.3352 12.4921 15.6021 12.8325 15.6021H14.1237C14.4641 15.6021 14.741 15.3352 14.7644 14.9982C15.0313 15.0482 15.2348 15.2818 15.2348 15.562C15.2348 16.6498 14.4874 17.3071 13.4764 17.5573C12.4688 17.3071 11.7181 16.6498 11.7181 15.562ZM5.8557 9.80645C5.8123 9.86317 5.78565 9.92656 5.78565 9.99997C5.78565 10.0534 5.79897 10.1001 5.81904 10.1434L3.81042 10.1469C3.90051 9.92 3.99728 9.69645 4.10738 9.47957L5.8557 9.80645ZM4.5878 8.65199C4.81469 8.31167 5.06826 7.99136 5.3452 7.69106C5.48534 8.18154 5.78896 8.62529 6.19269 8.94228C6.13597 8.97567 6.08926 9.02232 6.06256 9.08908C6.04924 9.12914 6.04257 9.17254 6.04591 9.21254L4.5878 8.65199ZM3.86709 11.2278C3.86709 11.2278 4.82469 11.0477 5.87238 10.8541C5.86238 10.9075 5.86238 10.9642 5.8857 11.0176C5.89902 11.0544 5.91911 11.0843 5.94576 11.1111L3.9705 11.8818C3.69357 12.0486 3.61349 12.389 3.77031 12.6459C3.8471 12.7693 3.9705 12.8561 4.11398 12.8928C4.25745 12.9262 4.40426 12.9028 4.52771 12.8228L6.26276 11.7517C6.27608 11.8051 6.29616 11.8551 6.33614 11.8985C6.36279 11.9286 6.39285 11.9486 6.42622 11.9652L4.86137 13.3966C4.66451 13.6535 4.71122 13.9972 4.95146 14.1807C5.19502 14.3642 5.5387 14.3142 5.72221 14.0739L6.96675 12.4256C6.99682 12.4723 7.03346 12.5124 7.08353 12.5391C7.11018 12.5524 7.14025 12.5557 7.17028 12.5624C7.17711 12.5658 7.18028 12.5692 7.18694 12.5757L6.31943 14.3241C6.22934 14.6244 6.39613 14.9213 6.67644 15.0014C6.96005 15.0814 7.25367 14.9179 7.33708 14.6344L7.83757 12.8827C8.05111 12.9494 8.28133 12.9828 8.5149 12.9828C8.70842 12.9828 8.83521 12.9695 9.01538 12.9228C9.01197 13.2397 9.01197 13.54 9.01197 13.5701C8.96858 13.6134 7.42042 15.2984 7.42042 15.2984C7.14682 15.522 7.04672 15.5353 6.86988 15.3584L6.81984 15.305L6.33267 15.6854L6.39937 15.7521C6.58288 15.9323 6.75305 16.0591 6.98661 16.0824C6.64962 16.2593 6.3627 16.4094 6.31265 16.4361C6.25926 16.3827 6.00902 16.1225 5.87556 15.9857C5.85557 15.642 5.57191 15.3651 5.22156 15.3651C4.86122 15.3651 4.56426 15.6587 4.56426 16.0224V16.0558L4.81786 16.3094V16.1092C4.81786 16.0658 4.83451 16.0224 4.86457 15.9924C4.93128 15.929 5.03474 15.929 5.09814 15.9924C5.09814 15.9924 5.29499 16.2026 5.42178 16.3428V16.3461L5.47517 16.3995C5.50857 16.4396 5.53523 16.4663 5.53523 16.4663L5.53864 16.4628L5.68211 16.613H5.49527C5.36848 16.5095 5.215 16.4561 5.0515 16.4628C4.87466 16.4697 4.7145 16.5428 4.59439 16.673C4.50763 16.7664 4.45092 16.8799 4.4309 17.0033C3.70353 15.8222 3.28645 14.4342 3.28645 12.9494C3.28645 12.3255 3.36316 11.7215 3.49999 11.141C3.59675 11.2243 3.72363 11.2545 3.86709 11.2278ZM4.7613 17.3505C4.7613 17.3037 4.77795 17.2504 4.81468 17.2137C4.85474 17.1703 4.90478 17.1469 4.96149 17.1436L5.43529 17.147C5.19839 17.2004 4.99486 17.3539 4.88141 17.5774C4.8247 17.4941 4.76797 17.3973 4.7613 17.3572V17.3505ZM5.36188 18.0411C5.37188 17.9977 5.39862 17.9611 5.43526 17.9377L6.42622 17.3771L6.7065 17.6641L6.69964 17.6675L6.76968 17.7275L6.81976 17.7809L6.82317 17.7775L7.17685 18.1045C7.24023 18.1679 7.24023 18.2713 7.17343 18.3347C7.14337 18.3681 7.10004 18.3848 7.05663 18.3848H6.85643L7.11001 18.6384H7.14343C7.32027 18.6384 7.48376 18.5683 7.60722 18.4449C7.73401 18.3214 7.80074 18.1546 7.80074 17.9777C7.80074 17.6307 7.52714 17.3471 7.18347 17.3271C7.10344 17.2471 6.99329 17.1369 6.9399 17.0835C7.09672 16.9834 9.84272 15.2384 10.0996 15.0782C10.0129 16.0392 9.18542 17.1669 8.40132 17.8409C8.04431 18.2013 7.90751 18.5983 7.90751 18.9453C7.90751 19.249 8.01427 19.5159 8.1711 19.6694C8.30789 19.8095 8.51811 19.8496 8.6916 19.7728L8.80171 19.7228L8.71824 19.6393C8.57811 19.4992 8.5314 19.2589 8.5314 19.0787C8.5314 18.7184 8.62148 18.5349 8.79832 18.3447C8.83505 18.3814 8.91176 18.4581 9.02187 18.5683C8.9485 18.7684 8.91177 18.9686 8.91177 19.1622C8.91177 19.5492 9.04859 19.8995 9.27548 20.1264C9.3222 20.1732 9.82266 20.5869 10.0329 20.5168L10.183 20.4668L10.0562 20.3733C9.98287 20.3166 9.74594 20.043 9.66586 19.8729C9.59915 19.7394 9.5624 19.5792 9.5624 19.4091C9.5624 19.1321 9.67253 18.8152 9.92278 18.5649C9.9361 18.5449 10.4833 17.1936 10.7636 16.5396C10.7636 16.5563 10.7636 16.6697 10.7636 16.6697C10.767 16.8232 10.767 16.9734 10.767 17.1235C10.767 17.9109 10.7203 18.6083 10.3733 18.9553C10.1597 19.1722 9.75934 19.2856 9.75934 19.2856L9.86279 19.4057C9.87279 19.4191 10.0396 19.6727 10.3066 19.6827C10.3733 19.6861 10.4233 19.6426 10.48 19.6159C10.4934 20.2332 10.6068 20.4734 10.817 20.707C8.74836 20.6436 6.87987 19.7728 5.52188 18.3948L5.38174 18.1679C5.36509 18.1413 5.35844 18.1112 5.35844 18.0778C5.35844 18.0678 5.35846 18.0545 5.36188 18.0411ZM9.52591 7.01368L9.70942 6.69671H8.93867L9.02876 6.36638C9.02876 6.20957 8.89863 6.07944 8.74181 6.07944C8.70175 6.07944 8.66502 6.08626 8.6317 6.10274C8.63854 6.07268 8.64169 6.04604 8.64169 6.02272C8.64169 5.91928 8.55824 5.83253 8.4515 5.83253C8.34807 5.83253 8.26132 5.91928 8.26132 6.02272C8.26132 6.04604 8.26475 6.07276 8.27466 6.10274C8.24126 6.08609 8.20462 6.07944 8.16456 6.07944C8.0044 6.07944 7.87427 6.20957 7.87427 6.36638L7.9677 6.69671H7.76083C7.62403 6.69671 7.50725 6.7968 7.48056 6.93027C7.43717 6.91694 7.39381 6.9103 7.34709 6.9103C7.08351 6.9103 6.8733 7.1205 6.8733 7.38409C6.8733 7.46413 6.89329 7.54091 6.93002 7.61098C7.01006 7.46084 7.16692 7.36074 7.34709 7.36074C7.50725 7.36074 7.65072 7.44076 7.73414 7.56427C7.74746 7.58092 7.75412 7.59424 7.76411 7.61098C7.78752 7.65437 7.80083 7.70774 7.81083 7.75779H6.85323C6.58963 7.75779 6.37943 7.54758 6.37943 7.284V7.59096C6.37943 7.85121 6.58963 8.06475 6.85323 8.06475H7.76078C7.68074 8.20823 7.52722 8.30833 7.34704 8.30833C7.33705 8.30833 7.32706 8.3083 7.3204 8.30488C7.40385 8.43168 7.54729 8.5118 7.71078 8.5118C7.91098 8.5118 8.08447 8.38501 8.15121 8.20484H9.43579C9.69604 8.20484 9.90959 8.41833 9.90959 8.67858C9.90959 8.80203 9.90958 8.97225 9.78947 9.10238L9.66935 9.27922L8.8619 10.5271C8.71509 10.744 8.42147 10.8006 8.20459 10.6538C7.98771 10.5037 7.931 10.2001 8.0778 9.98652C8.26465 9.87975 8.33805 9.66292 8.30469 9.43937C8.2613 9.1591 8.00773 8.96892 7.72746 8.99561L7.57064 8.99217C6.55632 8.99217 5.79892 8.30817 5.69549 7.33722C6.76319 6.31623 8.12452 5.59553 9.63599 5.31859L9.52588 6.01928L10.5535 5.1818L10.9005 6.076V7.46068L9.52591 7.01368ZM11.0474 23.3396C5.31848 23.3396 0.65728 18.6784 0.65728 12.9495C0.65728 7.88119 4.30749 3.65041 9.11551 2.74286L9.25898 2.9197L8.0111 3.39683L9.25898 3.87396L8.41816 4.91164L9.73611 4.70143L9.69271 4.97169C5.87232 5.61899 2.95616 8.9489 2.95616 12.9495C2.95616 17.4105 6.58636 21.0407 11.0474 21.0407C15.5117 21.0407 19.1419 17.4105 19.1419 12.9495C19.1419 8.95224 16.2257 5.62233 12.412 4.97503L12.3753 4.70477L13.6599 4.91164L12.8524 3.86395L14.0669 3.40017L12.8391 2.89634L12.9659 2.73952C17.7806 3.64373 21.4374 7.87452 21.4374 12.9495C21.4374 18.6784 16.7763 23.3396 11.0474 23.3396Z" fill="#007784"/>
<path d="M28.9949 10.8005C26.5992 10.8005 26.062 9.42918 26.062 7.90103V2.68262H27.5201V7.8076C27.5201 8.81191 27.8371 9.5226 29.095 9.5226C30.2194 9.5226 30.6898 9.02545 30.6898 7.66413V2.68262H32.1413V7.5707C32.1413 9.74615 30.9935 10.8005 28.9949 10.8005Z" fill="#007784"/>
<path d="M38.0168 10.6705C38.0168 10.6705 35.154 5.44204 34.9271 4.92154C34.9738 5.60554 34.9971 6.8601 34.9971 7.81769V10.6705H33.5791V2.68604H35.4342C35.4342 2.68604 38.2436 7.77098 38.5239 8.3749C38.4672 7.57079 38.4472 6.14941 38.4472 5.16845V2.68604H39.8619V10.6705H38.0168Z" fill="#007784"/>
<path d="M41.5806 2.68604H43.042V10.6705H41.5806V2.68604Z" fill="#007784"/>
<path d="M48.3002 10.6705H46.6152L43.9727 2.68604H45.5709L47.0423 7.35724C47.1891 7.80768 47.356 8.33821 47.4927 8.91876H47.5127C47.6262 8.3749 47.7496 7.93782 47.9632 7.26382L49.4579 2.68604H50.9527L48.3002 10.6705Z" fill="#007784"/>
<path d="M51.9507 10.6705V2.68604H56.1181V3.97395H53.4255V5.9392H55.9846V7.19042H53.4255V9.35586H56.1181V10.6705H51.9507Z" fill="#007784"/>
<path d="M61.3294 10.6707L59.2174 7.37083H59.1606V10.6707H57.6992V2.68628C58.2965 2.64955 59.0038 2.63623 59.8813 2.63623C61.5563 2.63623 62.634 3.25349 62.634 4.88508C62.634 6.06957 61.8499 6.92039 60.7021 7.11058C60.9157 7.4042 61.1292 7.71117 61.3194 7.98477L63.1412 10.6707H61.3294ZM59.7345 3.89078C59.521 3.89078 59.3074 3.90408 59.1606 3.92749V6.23306C59.2641 6.24639 59.4643 6.25647 59.6912 6.25647C60.5653 6.25647 61.1059 5.78601 61.1059 5.03862C61.1059 4.27121 60.6554 3.89078 59.7345 3.89078Z" fill="#007784"/>
<path d="M65.6103 10.8008C65.0732 10.8008 64.5326 10.7407 64.0588 10.6106L64.1489 9.17918C64.576 9.33266 65.1833 9.46279 65.7338 9.46279C66.4745 9.46279 67.0484 9.14582 67.0484 8.41177C67.0484 6.88362 63.8687 7.58429 63.8687 4.95507C63.8687 3.53702 64.9364 2.55273 66.7581 2.55273C67.1852 2.55273 67.679 2.61278 68.1295 2.69621L68.0494 4.04418C67.6224 3.91406 67.1519 3.83064 66.6881 3.83064C65.8473 3.83064 65.4202 4.23437 65.4202 4.80159C65.4202 6.23298 68.61 5.70247 68.61 8.19822C68.61 9.69969 67.4755 10.8008 65.6103 10.8008Z" fill="#007784"/>
<path d="M69.791 2.68604H71.2524V10.6705H69.791V2.68604Z" fill="#007784"/>
<path d="M75.6801 3.99731V10.6705H74.2187V3.99731H72.2534V2.68604H77.6487V3.99731H75.6801Z" fill="#007784"/>
<path d="M78.8032 10.6704V2.68595H83.1441V3.97386H80.3414V5.93911H83.0006V7.19033H80.3414V9.35577H83.1441V10.6704H78.8032ZM80.4215 2.1621L79.901 1.30127L81.973 0L82.6002 1.04101L80.4215 2.1621Z" fill="#007784"/>
<path d="M28.3275 23.4596C27.4967 23.4596 26.776 23.4229 26.1021 23.3996V15.4385C26.7293 15.4118 27.7003 15.3784 28.6812 15.3784C31.1536 15.3784 32.7252 16.4795 32.7252 19.2823C32.7252 22.0283 30.9301 23.4596 28.3275 23.4596ZM28.5745 16.6664C28.2208 16.6664 27.8871 16.6797 27.6402 16.7031V22.085C27.8538 22.1217 28.1707 22.1451 28.481 22.1451C29.9825 22.1451 31.0702 21.2942 31.0702 19.399C31.0702 17.684 30.3962 16.6664 28.5745 16.6664Z" fill="#007784"/>
<path d="M33.7695 23.4097V15.4253H38.1104V16.7165H35.3077V18.6785H37.9669V19.933H35.3077V22.0984H38.1104V23.4097H33.7695Z" fill="#007784"/>
<path d="M49.1242 17.0802C48.4836 16.8333 47.7529 16.6798 47.0055 16.6798C45.434 16.6798 44.2962 17.6741 44.2962 19.4592C44.2962 21.1509 45.2205 22.1452 46.842 22.1452C47.2191 22.1452 47.5494 22.0984 47.8597 22.005V19.2223H49.3978V23.0327C48.6037 23.353 47.6228 23.5298 46.6619 23.5298C44.1327 23.5298 42.6279 22.0384 42.6279 19.6027C42.6279 17.0936 44.3329 15.3052 47.1023 15.3052C47.893 15.3052 48.6738 15.4486 49.3611 15.6488L49.1242 17.0802Z" fill="#007784"/>
<path d="M51.0298 23.4097V15.4253H55.3707V16.7165H52.5679V18.6785H55.2305V19.933H52.5679V22.0984H55.3707V23.4097H51.0298Z" fill="#007784"/>
<path d="M61.6367 23.4097C61.6367 23.4097 58.6237 18.1813 58.3868 17.6608C58.4336 18.3481 58.4602 19.6027 58.4602 20.5603V23.4097H56.9688V15.4253H58.924C58.924 15.4253 61.8769 20.5136 62.1738 21.1175C62.1138 20.31 62.0904 18.892 62.0904 17.911V15.4253H63.5819V23.4097H61.6367Z" fill="#007784"/>
<path d="M65.1802 23.4096V15.4252H69.5211V16.7165H66.7183V18.6784H69.3776V19.9329H66.7183V22.0984H69.5211V23.4096H65.1802ZM67.8161 14.918L65.6406 13.7936L66.2913 12.7393L68.3499 14.0405L67.8161 14.918Z" fill="#007784"/>
<path d="M75.0231 23.4097H73.248L70.4653 15.4253H72.147L73.6951 20.0998C73.8486 20.5469 74.0288 21.0808 74.1689 21.6614H74.1923C74.3125 21.1175 74.4426 20.6771 74.6661 20.0031L76.241 15.4253H77.8159L75.0231 23.4097Z" fill="#007784"/>
<path d="M78.8198 23.4097V15.4253H83.1607V16.7165H80.358V18.6785H83.0206V19.933H80.358V22.0984H83.1607V23.4097H78.8198Z" fill="#007784"/>
</g>
</g>
<defs>
<clipPath id="clip0_15_487">
<rect width="83.1609" height="24" fill="white"/>
</clipPath>
</defs>
</svg>
