<svg width="71" height="24" viewBox="0 0 71 24" fill="none" xmlns="http://www.w3.org/2000/svg">
<g clip-path="url(#clip0_13_308)">
<path d="M67.8891 24C68.7263 24 69.424 23.7317 69.9821 23.1843C70.5295 22.6476 70.8086 21.9499 70.8086 21.1127C70.8086 20.2755 70.5295 19.5778 69.9821 19.0411C69.4347 18.5045 68.737 18.2254 67.8891 18.2254C67.0411 18.2254 66.3757 18.4937 65.8283 19.0411C65.2809 19.5778 65.0018 20.2755 65.0018 21.1127C65.0018 21.9499 65.2809 22.6476 65.8283 23.1843C66.3757 23.7209 67.0626 24 67.8891 24ZM56.5975 5.38819V23.6136H61.7388V0H55.3095C54.4508 0 54.0215 0.418605 54.0215 1.26655V2.30769C54.0215 3.05903 54.3649 3.55277 55.0626 3.78891L55.5241 3.92844C56.2433 4.14311 56.5975 4.63685 56.5975 5.38819ZM46.068 5.14132H51.2093V0H46.068V5.14132ZM46.068 12.9231V23.6136H51.2093V7.50268H44.78C43.9213 7.50268 43.492 7.93202 43.492 8.7907V9.83184C43.492 10.5832 43.8354 11.0662 44.5331 11.2916L45.0268 11.4311C45.7245 11.6887 46.068 12.1825 46.068 12.9123M25.6744 12.9231V23.6136H30.8157V13.9428C30.8157 13.1592 31.0304 12.5367 31.449 12.0751C31.8676 11.6136 32.4472 11.3882 33.1771 11.3882C33.907 11.3882 34.4866 11.6136 34.9052 12.0751C35.3238 12.5367 35.5385 13.1592 35.5385 13.9428V23.6136H40.6798V13.2236C40.6798 11.3345 40.186 9.84258 39.1771 8.7263C38.1789 7.62075 36.8372 7.06261 35.1521 7.06261C33.4669 7.06261 33.102 7.30948 32.297 7.79249C31.4919 8.27549 30.8479 8.9839 30.3757 9.89624V7.50268H24.3864C23.5277 7.50268 23.0984 7.93202 23.0984 8.7907V9.83184C23.0984 10.5832 23.4419 11.0662 24.1395 11.2916L24.6118 11.4311C25.3309 11.6673 25.6852 12.161 25.6852 12.9123M11.3775 24C13.1699 24 14.737 23.678 16.068 23.0233C17.3989 22.3685 18.4186 21.4454 19.1163 20.2326C19.8247 19.0197 20.1789 17.5921 20.1789 15.9499V2.14669H15.0376V15.6708C15.0376 16.8301 14.7156 17.7317 14.0608 18.3971C13.4061 19.0519 12.5259 19.3846 11.4097 19.3846C10.2934 19.3846 9.4025 19.0519 8.7585 18.3971C8.11449 17.7424 7.78175 16.8301 7.78175 15.6708V2.14669H1.28801C0.429338 2.14669 0 2.57603 0 3.4347V4.47585C0 5.19499 0.34347 5.678 1.04114 5.9356L1.51342 6.07513C2.23256 6.2898 2.58676 6.78354 2.58676 7.53488V15.9499C2.58676 17.6029 2.94097 19.0304 3.64937 20.2326C4.35778 21.4454 5.36673 22.3685 6.69767 23.0233C8.02862 23.678 9.58497 24 11.3882 24" fill="#007784"/>
</g>
<defs>
<clipPath id="clip0_13_308">
<rect width="70.8086" height="24" fill="white"/>
</clipPath>
</defs>
</svg>
