<?xml version="1.0" encoding="UTF-8"?>
<svg version="1.1" xmlns="http://www.w3.org/2000/svg" width="1296" height="303">
  <defs>
    <mask id="hole-mask">
      <!-- Everything under a white area is visible -->
      <rect width="100%" height="100%" fill="white" />
      <!-- Everything under a black area is cut out -->
      <path d="M0 0 C8.12294077 6.68070435 13.57139868 14.59801101 15.13671875 25.2421875 C15.54193179 36.00129234 11.91712856 45.27105672 4.6875 53.1875 C-4.01324134 61.50994823 -13.10525966 63.83373949 -24.859375 63.6015625 C-31.20162306 63.22578565 -36.08486473 60.66425265 -41.3125 57.1875 C-42.23095703 56.61322266 -42.23095703 56.61322266 -43.16796875 56.02734375 C-49.54901447 51.45070685 -54.02673795 42.77349611 -55.3125 35.1875 C-56.17952211 23.06495456 -54.24347935 13.61521515 -46.3125 4.1875 C-32.95436602 -8.36768603 -15.36922128 -10.91946578 0 0 Z" fill="black" transform="translate(866.3125,200.8125)"/>
      <path d="M0 0 C0.66 0 1.32 0 2 0 C3.99859149 4.37609528 5.99229072 8.75437271 7.98144531 13.13476562 C8.65913291 14.62528849 9.33816455 16.11520102 10.01855469 17.60449219 C10.9950611 19.74255726 11.96674766 21.88275492 12.9375 24.0234375 C13.24373291 24.69120209 13.54996582 25.35896667 13.86547852 26.04696655 C16 30.77225659 16 30.77225659 16 33 C6.1 33 -3.8 33 -14 33 C-10.89357399 24.92329237 -7.78288672 17.03034857 -4.1875 9.1875 C-3.78080078 8.29224609 -3.37410156 7.39699219 -2.95507812 6.47460938 C-1.97337572 4.31486408 -0.98836693 2.1567013 0 0 Z" fill="black" transform="translate(1058,214)"/>
    </mask>
  </defs>

  <g mask="url(#hole-mask)">
    <path d="M0 0 C16.17 0 32.34 0 49 0 C47.13466724 5.59599828 45.42117441 10.56376821 42.98828125 15.83203125 C42.56004311 16.7657531 42.56004311 16.7657531 42.12315369 17.71833801 C41.50928837 19.0559733 40.89344043 20.39270025 40.27575684 21.72857666 C38.60203244 25.34953547 36.94430078 28.977812 35.28515625 32.60546875 C34.9383078 33.36299438 34.59145935 34.12052002 34.23410034 34.90100098 C30.17476366 43.78018239 26.20950667 52.70096305 22.25 61.625 C21.90643463 62.39848785 21.56286926 63.17197571 21.20889282 63.96890259 C20.22709415 66.17947531 19.24612015 68.39041133 18.265625 70.6015625 C17.83527199 71.57147881 17.83527199 71.57147881 17.39622498 72.56098938 C15.56604121 76.69492368 13.78114885 80.84398602 12 85 C40.38 85 68.76 85 98 85 C92.72 73.45 87.44 61.9 82 50 C79.11094472 43.54731132 76.22684143 37.09396008 73.375 30.625 C72.09251082 27.72074909 70.80851667 24.81716826 69.5234375 21.9140625 C69.22516052 21.23941956 68.92688354 20.56477661 68.61956787 19.86968994 C66.16483745 14.33342799 63.6258508 8.83951443 61.05322266 3.35693359 C60 1 60 1 60 0 C76.83 0 93.66 0 111 0 C121.72596089 23.21164974 132.42043171 46.43626621 143.03662109 69.69824219 C146.33470224 76.92483851 149.63556747 84.15016272 152.9375 91.375 C153.2647406 92.09102386 153.5919812 92.80704773 153.92913818 93.54476929 C158.46535113 103.46893842 163.00968844 113.38935453 167.56518555 123.3046875 C169.00811918 126.44540035 170.44818301 129.58740418 171.88598633 132.73046875 C175.12502921 139.80317278 178.39449906 146.85622295 181.7734375 153.86328125 C182.34975413 155.06935547 182.92561504 156.27564759 183.50097656 157.48217773 C184.54810665 159.6697855 185.60897523 161.85089564 186.68652344 164.02368164 C191.04937973 173.1858338 191.04937973 173.1858338 189 179 C186.54999565 181.70108312 184.46089994 182.21032741 180.95336914 182.40405273 C179.31414958 182.43056016 177.67458007 182.43933264 176.03515625 182.43359375 C174.72967079 182.44145653 174.72967079 182.44145653 173.39781189 182.44947815 C171.55957098 182.45589329 169.72128899 182.45456791 167.88305664 182.44604492 C165.07558809 182.43753965 162.27015798 182.46629436 159.46289062 182.49804688 C157.67447977 182.49965918 155.88606533 182.49908079 154.09765625 182.49609375 C152.84276146 182.51294472 152.84276146 182.51294472 151.56251526 182.53013611 C147.77020566 182.4849633 145.50858384 182.28587664 142.15380859 180.40014648 C139.59007443 177.54318995 137.98979399 174.57217115 136.44140625 171.1015625 C136.12977036 170.43015228 135.81813446 169.75874207 135.49705505 169.06698608 C134.50668496 166.92502321 133.5346103 164.77530121 132.5625 162.625 C131.9145547 161.21952447 131.26547497 159.81457134 130.61523438 158.41015625 C126.58832644 149.66825324 122.79371995 140.85201322 119 132 C76.76 132 34.52 132 -9 132 C-14.28 143.88 -19.56 155.76 -25 168 C-31 179 -31 179 -33.82983398 181.16040039 C-37.86791188 182.2298613 -41.55964376 182.44917095 -45.72265625 182.43359375 C-46.95730873 182.44145653 -46.95730873 182.44145653 -48.21690369 182.44947815 C-49.94903438 182.45587493 -51.68120866 182.45459184 -53.41333008 182.44604492 C-56.05824063 182.43751374 -58.70100439 182.4663606 -61.34570312 182.49804688 C-63.03385352 182.49965863 -64.72200773 182.49908184 -66.41015625 182.49609375 C-67.19673111 182.50732773 -67.98330597 182.51856171 -68.79371643 182.53013611 C-72.5516754 182.48256378 -74.78058967 182.13688574 -77.99755859 180.12988281 C-80 178 -80 178 -80.62890625 175.42578125 C-79.67318511 170.21977231 -77.31885671 165.88497587 -74.9375 161.1875 C-73.82353705 158.93130687 -72.71303002 156.67340508 -71.60546875 154.4140625 C-71.31282135 153.81886307 -71.02017395 153.22366364 -70.71865845 152.61042786 C-67.23750303 145.49992879 -64.00030022 138.28057474 -60.75 131.0625 C-55.6034176 119.65814693 -50.35209002 108.30932034 -45 97 C-39.71682109 85.8337571 -34.52629618 74.63117414 -29.4375 63.375 C-23.22246034 49.62843244 -16.86352317 35.95376619 -10.4375 22.3046875 C-6.94227229 14.87732862 -3.47132758 7.43855911 0 0 Z " fill="#00a6bf" transform="translate(594,105)"/>
    <path d="M0 0 C1.32451172 0.5259375 1.32451172 0.5259375 2.67578125 1.0625 C15.74527273 6.91633133 25.62740245 18.6171674 31.2109375 31.63671875 C36.23393017 46.68083047 35.19020105 61.49863731 28.6796875 75.92578125 C23.98981085 85.19020971 17.71285414 92.37294837 9 98 C14.25862514 102.21895426 18.49439569 103.72131948 25.25 103.44921875 C28.90793586 102.85168661 31.82542304 101.51106645 35.02734375 99.6796875 C37 99 37 99 38.83203125 99.5390625 C41.98021524 101.66054144 44.86016907 104.04205589 47.75 106.5 C48.35199219 106.99886719 48.95398438 107.49773437 49.57421875 108.01171875 C51.09048277 109.29418243 52.55043376 110.64260271 54 112 C54 112.66 54 113.32 54 114 C41.78751032 123.01580351 30.09080897 126.54930319 15 125 C6.91979711 122.89466366 0.21027958 118.33822613 -6.78515625 113.9296875 C-15.18986725 108.88481844 -22.92958276 106.67372024 -32.609375 105.51171875 C-41.54608728 104.16297531 -48.84940803 100.39667318 -56 95 C-56.82628906 94.38640625 -57.65257812 93.7728125 -58.50390625 93.140625 C-69.33422573 83.85265148 -75.36816618 69.6270008 -76.8125 55.6875 C-77.74823473 38.7248193 -72.1971907 24.64834662 -61 12 C-44.58395529 -4.22484286 -21.15221777 -8.4944177 0 0 Z " fill="#00a6bf" transform="translate(867,178)"/>
    <path d="M0 0 C4.53203269 0.12273616 6.57608465 1.92612278 9.6418457 5.1027832 C10.50169067 6.05737427 10.50169067 6.05737427 11.37890625 7.03125 C11.98887451 7.67473389 12.59884277 8.31821777 13.22729492 8.98120117 C16.81173736 12.78832152 20.30123525 16.68461221 23.6796875 20.67578125 C26.3481349 23.70087078 29.258379 26.48076366 32.12890625 29.3125 C34.71837506 31.93896122 37.10477589 34.70101458 39.50390625 37.5 C41.52733505 39.76763572 43.65293972 41.8970195 45.81640625 44.03125 C49.22359415 47.39239482 52.39098799 50.86826203 55.50390625 54.5 C57.52733505 56.76763572 59.65293972 58.8970195 61.81640625 61.03125 C64.58201033 63.75954407 67.22927656 66.51641834 69.75390625 69.46875 C73.25271762 73.55204958 77.05522724 77.28545122 80.87890625 81.0625 C83.69753164 83.91726162 86.33972807 86.88553137 88.94140625 89.9375 C90.01490311 91.18178045 91.15437584 92.36921959 92.31640625 93.53125 C92.32520561 91.8875367 92.32520561 91.8875367 92.33418274 90.21061707 C92.39133785 79.89538884 92.46406146 69.5803729 92.55212116 59.26536083 C92.5968933 53.96199747 92.63613425 48.65871215 92.6628418 43.35522461 C92.68880659 38.23928787 92.72916031 33.12365036 92.77959251 28.00789833 C92.79630752 26.05386381 92.80779285 24.09977747 92.81402016 22.14568138 C92.823611 19.41345042 92.8516094 16.68199305 92.8840332 13.94995117 C92.88188057 12.73183243 92.88188057 12.73183243 92.87968445 11.48910522 C92.97156354 6.03292626 92.97156354 6.03292626 94.69316101 3.52835083 C97.0210206 2.09843089 98.8166366 2.15924345 101.53515625 2.16796875 C103.05689453 2.16893555 103.05689453 2.16893555 104.609375 2.16992188 C105.66769531 2.18603516 106.72601563 2.20214844 107.81640625 2.21875 C108.87472656 2.21552734 109.93304688 2.21230469 111.0234375 2.20898438 C118.91574162 2.26414025 118.91574162 2.26414025 122.31640625 4.53125 C122.60251718 7.46182069 122.69445986 10.18012526 122.65698242 13.11181641 C122.6574205 13.99968338 122.65785858 14.88755035 122.65830994 15.80232239 C122.65621477 18.74604043 122.63284955 21.68919358 122.609375 24.6328125 C122.60378163 26.67019337 122.59951031 28.70757826 122.59651184 30.7449646 C122.58504268 36.11432992 122.55555768 41.48345281 122.5223999 46.85272217 C122.49174362 52.32886475 122.47801602 57.80504639 122.46289062 63.28125 C122.43068997 74.03135667 122.37946863 84.7812832 122.31640625 95.53125 C113.9798543 95.71717189 105.64417787 95.85903402 97.30606079 95.94574738 C93.4335981 95.98738115 89.56256049 96.04378146 85.69091797 96.13476562 C81.94955605 96.22213105 78.20955836 96.26961286 74.46725464 96.29026794 C73.04461193 96.30497297 71.6220383 96.33369118 70.19998169 96.37709045 C59.09753745 96.70223475 59.09753745 96.70223475 54.72363281 93.82666016 C52.69925075 91.82858675 51.00536135 89.81527529 49.31640625 87.53125 C48.24138455 86.29480746 47.15920855 85.06450589 46.06640625 83.84375 C45.504375 83.19019531 44.94234375 82.53664063 44.36328125 81.86328125 C41.25996276 78.32763022 38.0504257 74.89138518 34.84277344 71.45043945 C30.90667949 67.21434635 27.12999286 62.8896347 23.31640625 58.53125 C22.98640625 70.74125 22.65640625 82.95125 22.31640625 95.53125 C13.07640625 95.53125 3.83640625 95.53125 -5.68359375 95.53125 C-5.72871257 83.44010032 -5.76543363 71.34900621 -5.78721809 59.25779152 C-5.79767159 53.6438345 -5.81185928 48.02993788 -5.83447266 42.41601562 C-5.85614529 37.00198139 -5.86815056 31.58800538 -5.87334824 26.17393112 C-5.87705405 24.1045884 -5.88429019 22.03524899 -5.89505386 19.96593094 C-5.90949466 17.07568635 -5.91157481 14.1856848 -5.91064453 11.29541016 C-5.91783508 10.43298203 -5.92502563 9.57055389 -5.93243408 8.68199158 C-5.90501884 0.8516252 -5.90501884 0.8516252 0 0 Z " fill="#62c1ca" transform="translate(288.68359375,-0.53125)"/>
    <path d="M0 0 C1.17433594 0.39058594 2.34867187 0.78117188 3.55859375 1.18359375 C23.67477225 8.25228186 37.68623332 22.36269196 47.57421875 40.9609375 C52.73109485 51.77024535 55.17587779 62.90412167 55.1875 74.875 C55.20167969 76.19242187 55.21585938 77.50984375 55.23046875 78.8671875 C55 83 55 83 53 92 C43.43 92 33.86 92 24 92 C24.33 89.36 24.66 86.72 25 84 C26.16630074 68.4873958 24.26658649 55.29038999 14 43 C13.40316406 42.27941406 12.80632812 41.55882812 12.19140625 40.81640625 C6.99772727 35.10443914 1.03612645 32.01548276 -6 29 C-6.72832031 28.65839844 -7.45664063 28.31679688 -8.20703125 27.96484375 C-18.13286653 23.88443345 -30.45135966 24.93611667 -40.26171875 28.74609375 C-53.17368707 34.65870692 -62.1390655 42.94610043 -68 56 C-68.27070313 56.5772583 -68.54140625 57.1545166 -68.8203125 57.74926758 C-71.23820598 63.38555407 -71.38873344 68.48857661 -71.25 74.5625 C-71.24484375 75.46935547 -71.2396875 76.37621094 -71.234375 77.31054688 C-71.17561867 82.3746081 -70.72539813 86.92221308 -70 92 C-79.57 92 -89.14 92 -99 92 C-103.93811446 72.24754215 -100.28451439 52.2596791 -90.06884766 34.75439453 C-78.61579604 15.95548432 -62.17831752 4.0814018 -41 -1.875 C-27.89799486 -4.57578143 -12.63085218 -4.56934542 0 0 Z " fill="#62c1ca" transform="translate(205,3)"/>
    <path d="M0 0 C1.139443 0.91989179 2.26295519 1.85966865 3.375 2.8125 C4.33277344 3.57304687 5.29054688 4.33359375 6.27734375 5.1171875 C19.72315143 16.35612892 28.45092681 34.63327509 30.375 51.8125 C30.51263289 55.50113263 30.51481263 59.18418517 30.5 62.875 C30.50386719 63.84244141 30.50773437 64.80988281 30.51171875 65.80664062 C30.50978516 67.21913086 30.50978516 67.21913086 30.5078125 68.66015625 C30.50668457 69.50586182 30.50555664 70.35156738 30.50439453 71.22290039 C30.36027745 74.10714545 29.84975852 76.96394886 29.375 79.8125 C19.475 79.8125 9.575 79.8125 -0.625 79.8125 C0.035 76.1825 0.695 72.5525 1.375 68.8125 C2.61976801 54.23713503 -0.5923522 42.38123738 -9.625 30.8125 C-18.35503614 21.06805825 -30.48327189 14.54164385 -43.61328125 13.59765625 C-57.20320257 13.19842237 -69.2147269 17.08051572 -79.75 25.75 C-88.71955119 34.22516648 -95.09970676 46.31308319 -95.86328125 58.66796875 C-96.05159487 66.16738449 -95.28132482 72.35903832 -93.625 79.8125 C-103.195 79.8125 -112.765 79.8125 -122.625 79.8125 C-128.3564773 62.6180681 -124.62506407 43.31991896 -116.8125 27.375 C-113.6836957 21.32838699 -110.22717621 15.86158175 -105.625 10.8125 C-104.89796875 9.99394531 -104.1709375 9.17539062 -103.421875 8.33203125 C-97.2437674 1.74537138 -90.49064607 -2.81318586 -82.625 -7.1875 C-81.90441406 -7.60902344 -81.18382812 -8.03054687 -80.44140625 -8.46484375 C-55.57119401 -22.16672783 -22.00220314 -16.21876689 0 0 Z " fill="#62c1ca" transform="translate(1024.625,15.1875)"/>
    <path d="M0 0 C2.52456665 -0.38768005 2.52456665 -0.38768005 5.75634766 -0.40405273 C6.9658609 -0.41673691 8.17537415 -0.42942108 9.42153931 -0.44248962 C10.73907196 -0.43955399 12.05660461 -0.43661835 13.4140625 -0.43359375 C14.78535215 -0.43815907 16.15663951 -0.44346568 17.52792358 -0.44947815 C20.41486838 -0.45843473 23.30153717 -0.45596714 26.18847656 -0.44604492 C29.12138647 -0.43693575 32.05349497 -0.44356724 34.98632812 -0.46655273 C71.63698227 -0.75248033 71.63698227 -0.75248033 87.5 7.875 C88.16668701 8.22522217 88.83337402 8.57544434 89.52026367 8.9362793 C108.29226894 19.00002565 121.39260348 35.6054738 127.60424805 55.98217773 C129.29788318 62.56870306 129.26289856 69.04647133 129.1875 75.8125 C129.1865332 77.48989258 129.1865332 77.48989258 129.18554688 79.20117188 C129.1611233 83.72496152 129.10292696 87.58829218 128 92 C117.77 92 107.54 92 97 92 C97.33 89.69 97.66 87.38 98 85 C99.25037273 68.68817549 97.53275693 55.72034055 87.23046875 42.44140625 C79.70007319 34.1988542 68.64795314 28.43921938 57.42480469 27.79467773 C56.00728687 27.75312488 54.58962307 27.71636281 53.171875 27.68359375 C52.42286926 27.66281265 51.67386353 27.64203156 50.90216064 27.62062073 C48.51819712 27.55542912 46.13412688 27.49638217 43.75 27.4375 C42.13019746 27.39428584 40.51040557 27.35067063 38.890625 27.30664062 C34.92719168 27.19977904 30.9636514 27.09842667 27 27 C27.00222061 27.81210434 27.00444122 28.62420868 27.00672913 29.46092224 C27.02673071 37.09828948 27.04197345 44.7356441 27.05181217 52.37303066 C27.05704031 56.29988658 27.06413669 60.22672094 27.07543945 64.15356445 C27.0862708 67.94014257 27.09227736 71.7266999 27.09487724 75.51329231 C27.09673105 76.96104319 27.10035081 78.40879288 27.10573006 79.85653496 C27.11294367 81.87757135 27.11340808 83.89862848 27.11352539 85.91967773 C27.115746 87.07217514 27.11796661 88.22467255 27.12025452 89.41209412 C27 92 27 92 26 93 C23.92737924 93.08767112 21.85179706 93.10695873 19.77734375 93.09765625 C17.88725586 93.09282227 17.88725586 93.09282227 15.95898438 93.08789062 C14.61848891 93.07953403 13.27799412 93.07106907 11.9375 93.0625 C10.59310058 93.0574866 9.2486994 93.05292342 7.90429688 93.04882812 C4.60282059 93.03699488 1.30143197 93.02050971 -2 93 C-2.04629062 81.3172864 -2.08185254 69.63459453 -2.10362434 57.95180798 C-2.11407242 52.52732802 -2.1282503 47.1029107 -2.15087891 41.6784668 C-2.17257077 36.4459757 -2.18456091 31.21354493 -2.18975449 25.98101234 C-2.19345682 23.98227297 -2.20068632 21.98353699 -2.21146011 19.98482323 C-2.2259264 17.19057388 -2.22797998 14.39657554 -2.22705078 11.60229492 C-2.23424133 10.77151428 -2.24143188 9.94073364 -2.24884033 9.08477783 C-2.23480165 5.19691111 -2.20727666 3.31091499 0 0 Z " fill="#62c1ca" transform="translate(440,2)"/>
    <path d="M0 0 C0.8499353 0.00404846 1.69987061 0.00809692 2.57556152 0.01226807 C3.46996948 0.00876343 4.36437744 0.00525879 5.28588867 0.00164795 C8.25231613 -0.00717881 11.2185065 -0.00131688 14.18493652 0.00543213 C16.23995001 0.00408575 18.29496319 0.00214545 20.34997559 -0.00036621 C24.66087877 -0.00331876 28.97169919 0.00098437 33.28259277 0.01031494 C38.81791777 0.02170952 44.35304883 0.01515075 49.8883667 0.00317001 C54.13303091 -0.00404506 58.37764888 -0.00176228 62.62231445 0.0034256 C64.66373721 0.00476307 66.70516412 0.00311098 68.74658203 -0.00153351 C71.59593889 -0.00659294 74.4449784 0.00110327 77.29431152 0.01226807 C78.14424683 0.0082196 78.99418213 0.00417114 79.86987305 0 C85.70640867 0.04252928 85.70640867 0.04252928 87.93493652 2.27105713 C88.19372559 4.48590088 88.19372559 4.48590088 88.20056152 7.20855713 C88.20442871 8.67422119 88.20442871 8.67422119 88.20837402 10.16949463 C88.20063965 11.19301025 88.19290527 12.21652588 88.18493652 13.27105713 C88.19653809 14.80633057 88.19653809 14.80633057 88.20837402 16.37261963 C88.2057959 17.349729 88.20321777 18.32683838 88.20056152 19.33355713 C88.19830566 20.23203369 88.1960498 21.13051025 88.19372559 22.05621338 C87.93493652 24.27105713 87.93493652 24.27105713 85.93493652 26.27105713 C83.18881226 26.51156616 83.18881226 26.51156616 79.64929199 26.49810791 C79.00526428 26.49839996 78.36123657 26.49869202 77.69769287 26.49899292 C75.56570025 26.49759787 73.4340557 26.48202887 71.30212402 26.46636963 C69.82524812 26.46264011 68.34836974 26.45979285 66.87149048 26.45779419 C62.98176254 26.45015287 59.09218364 26.43050021 55.20251465 26.40838623 C50.53694234 26.38434425 45.87132024 26.37514918 41.20570374 26.36347961 C34.1153443 26.34407597 27.02531196 26.30575717 19.93493652 26.27105713 C19.93493652 39.80105713 19.93493652 53.33105713 19.93493652 67.27105713 C23.96583496 67.25945557 27.9967334 67.247854 32.14978027 67.23590088 C35.35571512 67.22947385 38.56164815 67.22404966 41.76758575 67.21930695 C45.15630884 67.21401744 48.54500708 67.20694432 51.93371582 67.19561768 C55.8182343 67.18271446 59.70274249 67.17782789 63.58728027 67.17340088 C64.80705063 67.16823959 66.02682098 67.16307831 67.28355408 67.15776062 C68.96518394 67.15764732 68.96518394 67.15764732 70.68078613 67.15753174 C71.67339951 67.15531113 72.66601288 67.15309052 73.68870544 67.15080261 C75.93493652 67.27105713 75.93493652 67.27105713 76.93493652 68.27105713 C77.03425806 69.96664439 77.06573659 71.6663146 77.06774902 73.36480713 C77.06903809 74.39476807 77.07032715 75.424729 77.07165527 76.48590088 C77.06778809 77.57000244 77.0639209 78.654104 77.05993652 79.77105713 C77.06380371 80.85515869 77.0676709 81.93926025 77.07165527 83.05621338 C77.07036621 84.08617432 77.06907715 85.11613525 77.06774902 86.17730713 C77.06662109 87.12927979 77.06549316 88.08125244 77.06433105 89.06207275 C76.93493652 91.27105713 76.93493652 91.27105713 75.93493652 92.27105713 C73.31805211 92.36615272 70.72764752 92.39661713 68.11047363 92.38458252 C67.29102768 92.38472855 66.47158173 92.38487457 65.62730408 92.38502502 C62.90560299 92.38432565 60.18396947 92.37653214 57.46228027 92.36871338 C55.58040911 92.36684929 53.69853747 92.36542534 51.81666565 92.36442566 C46.85345123 92.3605998 41.89026589 92.35076893 36.92706299 92.33972168 C31.86654046 92.32950902 26.80601325 92.32492835 21.7454834 92.31988525 C11.80862164 92.30914672 1.87178149 92.29206949 -8.06506348 92.27105713 C-8.11133087 80.57107276 -8.14690413 68.87111003 -8.16868782 57.17105293 C-8.17914099 51.73869733 -8.19332809 46.30640415 -8.21594238 40.87408447 C-8.23761618 35.63511412 -8.24962054 30.39620394 -8.25481796 25.15719223 C-8.25852357 23.15483528 -8.26575931 21.15248175 -8.27652359 19.1501503 C-8.29096595 16.3533024 -8.29304448 13.55670563 -8.29211426 10.75982666 C-8.29930481 9.92545074 -8.30649536 9.09107483 -8.31390381 8.23141479 C-8.28818877 1.12275958 -7.08502258 0.05162667 0 0 Z " fill="#62c1ca" transform="translate(8.0650634765625,1.72894287109375)"/>
    <path d="M0 0 C0.74121094 -0.01933594 1.48242188 -0.03867188 2.24609375 -0.05859375 C5.53183201 0.64509724 7.10347388 2.15935372 9.5625 4.4375 C11.25317383 7.36547852 11.25317383 7.36547852 12.76953125 10.81640625 C13.19311668 11.76395782 13.19311668 11.76395782 13.6252594 12.73065186 C14.55408531 14.81524089 15.46426923 16.90745029 16.375 19 C17.02734139 20.47159854 17.68117798 21.94253507 18.33642578 23.4128418 C19.71331964 26.50423691 21.08450035 29.59807963 22.45263672 32.69335938 C25.54175103 39.66199729 28.72875137 46.58575868 31.91049194 53.51245117 C33.58818233 57.16764563 35.25889466 60.82602376 36.9296875 64.484375 C37.55566346 65.85481798 38.18164 67.2252607 38.80761719 68.59570312 C39.10341675 69.24337646 39.39921631 69.8910498 39.70397949 70.55834961 C40.51465545 72.33277669 41.32614975 74.10682984 42.13769531 75.88085938 C43.4498965 78.75213804 44.75727056 81.62554708 46.0625 84.5 C46.43036621 85.30284424 46.79823242 86.10568848 47.17724609 86.93286133 C49.5625 92.20718711 49.5625 92.20718711 49.5625 94.4375 C16.8925 94.4375 -15.7775 94.4375 -49.4375 94.4375 C-48.52878717 89.89393585 -47.14156742 86.33767426 -45.1484375 82.234375 C-44.64546898 81.18045311 -44.64546898 81.18045311 -44.13233948 80.10523987 C-43.40830976 78.58888395 -42.68189177 77.07366654 -41.95333862 75.55947876 C-40.00715447 71.51306293 -38.07980487 67.45770364 -36.15234375 63.40234375 C-35.56070183 62.15864265 -35.56070183 62.15864265 -34.95710754 60.88981628 C-31.00031607 52.55313621 -27.17642502 44.15837873 -23.375 35.75 C-22.74898553 34.36920987 -22.12276791 32.98851182 -21.49633789 31.60791016 C-18.27855686 24.51483243 -18.27855686 24.51483243 -15.08105469 17.41259766 C-13.97989882 14.95825144 -12.86699027 12.50966736 -11.75 10.0625 C-11.45923584 9.40290283 -11.16847168 8.74330566 -10.86889648 8.0637207 C-8.44686033 2.80983207 -5.95838252 0.01032649 0 0 Z " fill="#62c1ca" transform="translate(649.4375,-0.4375)"/>
    <path d="M0 0 C1.2065625 0.0309375 1.2065625 0.0309375 2.4375 0.0625 C8.04387148 11.09884806 13.36287657 22.23833278 18.5 33.5 C19.23671241 35.10986675 19.9736139 36.71964698 20.71069336 38.3293457 C22.58990868 42.43581877 24.46527268 46.54403589 26.33886719 50.65307617 C27.40902707 53.0000557 28.47983932 55.34673661 29.55078125 57.69335938 C33.33448172 65.98643453 37.10684113 74.28455933 40.86474609 82.58935547 C41.85528169 84.77677543 42.84754985 86.96341245 43.84228516 89.14892578 C45.00397373 91.70124884 46.15948145 94.25625168 47.3125 96.8125 C47.78635132 97.848302 47.78635132 97.848302 48.26977539 98.9050293 C49.76978447 102.25379632 51.01698014 105.39990771 51.4375 109.0625 C50.4375 110.0625 50.4375 110.0625 48.57983398 110.17602539 C47.39369507 110.16817017 47.39369507 110.16817017 46.18359375 110.16015625 C45.32958984 110.15693359 44.47558594 110.15371094 43.59570312 110.15039062 C42.24895508 110.13782227 42.24895508 110.13782227 40.875 110.125 C39.97330078 110.12048828 39.07160156 110.11597656 38.14257812 110.11132812 C35.90748686 110.09950225 33.67252563 110.0830222 31.4375 110.0625 C30.47141677 108.21235947 29.5150093 106.35716527 28.5625 104.5 C28.02882813 103.46746094 27.49515625 102.43492187 26.9453125 101.37109375 C25.4375 98.0625 25.4375 98.0625 23.4375 91.0625 C7.9275 91.3925 -7.5825 91.7225 -23.5625 92.0625 C-26.2025 97.6725 -28.8425 103.2825 -31.5625 109.0625 C-32.5625 110.0625 -32.5625 110.0625 -34.42016602 110.17602539 C-35.60630493 110.16817017 -35.60630493 110.16817017 -36.81640625 110.16015625 C-37.67041016 110.15693359 -38.52441406 110.15371094 -39.40429688 110.15039062 C-40.30212891 110.14201172 -41.19996094 110.13363281 -42.125 110.125 C-43.02669922 110.12048828 -43.92839844 110.11597656 -44.85742188 110.11132812 C-47.09251314 110.09950225 -49.32747437 110.0830222 -51.5625 110.0625 C-52.01381129 104.73413172 -50.47530165 100.99193446 -48.15234375 96.32421875 C-47.79369232 95.57921616 -47.43504089 94.83421356 -47.06552124 94.06663513 C-46.29140919 92.46137436 -45.51211302 90.85860526 -44.72817993 89.25811768 C-42.63144232 84.97628198 -40.57277429 80.67613015 -38.5078125 76.37890625 C-38.08754288 75.50715759 -37.66727325 74.63540894 -37.23426819 73.73724365 C-33.32286602 65.6094506 -29.57811991 57.41177938 -25.875 49.1875 C-20.72382146 37.77553781 -15.49509507 26.40260813 -10.1875 15.0625 C-9.85795319 14.35643616 -9.52840637 13.65037231 -9.18887329 12.9229126 C-8.2663527 10.94746503 -7.34079333 8.97347529 -6.4140625 7 C-5.88635254 5.87464844 -5.35864258 4.74929687 -4.81494141 3.58984375 C-3.07311526 0.07495403 -3.07311526 0.07495403 0 0 Z " fill="#00a6bf" transform="translate(1059.5625,173.9375)"/>
    <path d="M0 0 C0.804375 -0.00128906 1.60875 -0.00257813 2.4375 -0.00390625 C3.283125 -0.00003906 4.12875 0.00382813 5 0.0078125 C6.2684375 0.00201172 6.2684375 0.00201172 7.5625 -0.00390625 C8.366875 -0.00261719 9.17125 -0.00132812 10 0 C10.7425 0.00112793 11.485 0.00225586 12.25 0.00341797 C14 0.1328125 14 0.1328125 15 1.1328125 C15.10293797 3.26301245 15.1357341 5.39661999 15.1418457 7.52929688 C15.14705734 8.53195587 15.14705734 8.53195587 15.15237427 9.55487061 C15.15974542 11.01229515 15.16508353 12.46973102 15.16866493 13.9271698 C15.17582331 16.24015399 15.19148884 18.55292514 15.21000671 20.86584473 C15.26247791 27.44438596 15.31037055 34.02281695 15.32592773 40.6015625 C15.33606174 44.62299193 15.36553192 48.6438948 15.40724754 52.66511536 C15.41949633 54.19273375 15.42469007 55.72042679 15.42244911 57.24809265 C15.41149176 67.16445409 15.81790036 75.2000796 22.4375 83.0078125 C28.52029996 88.05208564 32.71030975 88.66481322 40.54296875 88.484375 C46.47320614 87.88130001 50.14008008 85.99273242 54.3125 81.8203125 C57.92148872 76.0726638 59.37227638 71.63308972 59.41650391 64.83642578 C59.42508926 64.14450638 59.43367462 63.45258698 59.44252014 62.73970032 C59.46739712 60.47740221 59.47194096 58.21554685 59.4765625 55.953125 C59.49088425 54.37367428 59.50664337 52.794236 59.52377319 51.21481323 C59.56547467 47.07574926 59.59057751 42.93676251 59.61126709 38.79754639 C59.64720331 32.15158208 59.70793748 25.50580752 59.76975632 18.86004257 C59.7888845 16.53723962 59.80058266 14.2144878 59.81118774 11.89163208 C59.8213927 10.47869756 59.83175 9.06576413 59.84228516 7.65283203 C59.85202866 5.79587204 59.85202866 5.79587204 59.86196899 3.90139771 C60 1.1328125 60 1.1328125 61 0.1328125 C62.40348735 0.03421119 63.81180477 0.00202313 65.21875 0 C66.49298828 -0.00193359 66.49298828 -0.00193359 67.79296875 -0.00390625 C68.68628906 -0.00003906 69.57960938 0.00382813 70.5 0.0078125 C71.39332031 0.00394531 72.28664063 0.00007812 73.20703125 -0.00390625 C74.05652344 -0.00261719 74.90601563 -0.00132812 75.78125 0 C76.56564453 0.00112793 77.35003906 0.00225586 78.15820312 0.00341797 C80 0.1328125 80 0.1328125 81 1.1328125 C81.11544869 3.30274517 81.15971842 5.47648115 81.17700195 7.64941406 C81.18357315 8.33093536 81.19014435 9.01245667 81.19691467 9.71463013 C81.21671707 11.98423367 81.22833498 14.25377033 81.23828125 16.5234375 C81.24235678 17.30063896 81.2464323 18.07784042 81.25063133 18.87859344 C81.27153675 23.00434607 81.28581036 27.13006516 81.29516602 31.25585938 C81.30614789 35.48881954 81.34043751 39.72124189 81.38033772 43.95401382 C81.40670483 47.22976546 81.41487622 50.50539399 81.41844749 53.78124237 C81.42327394 55.33912474 81.43477316 56.89700311 81.45348549 58.45478058 C81.61868401 73.13846928 79.42664718 86.37785439 68.89453125 97.3203125 C64.33169608 101.59257125 59.82755987 104.86105187 54 107.1328125 C52.89591797 107.57947266 52.89591797 107.57947266 51.76953125 108.03515625 C40.70396028 111.95233227 29.99033885 110.97345672 19.19921875 106.68359375 C14.525131 104.41788821 10.7489788 101.71138318 7 98.1328125 C6.43796875 97.59914063 5.8759375 97.06546875 5.296875 96.515625 C-1.56432331 89.27324901 -5.1579016 79.66563191 -5.12939453 69.83154297 C-5.13114685 69.09143982 -5.13289917 68.35133667 -5.13470459 67.58880615 C-5.13910605 65.14251359 -5.13619171 62.6962933 -5.1328125 60.25 C-5.13348589 58.55274441 -5.1344562 56.85548891 -5.13571167 55.15823364 C-5.13718621 51.6023873 -5.13504136 48.04656608 -5.13037109 44.49072266 C-5.12466527 39.92280015 -5.12795974 35.35493628 -5.13394356 30.78701591 C-5.13754834 27.28357497 -5.13641112 23.78014805 -5.13381577 20.2767067 C-5.13314672 18.5917167 -5.13397416 16.90672544 -5.13629532 15.22173691 C-5.13882143 12.87288766 -5.13498227 10.52413498 -5.12939453 8.17529297 C-5.13141876 7.47294525 -5.13344299 6.77059753 -5.13552856 6.04696655 C-5.10877428 0.00776072 -5.10877428 0.00776072 0 0 Z " fill="#00a6bf" transform="translate(923,175.8671875)"/>
    <path d="M0 0 C9.24 0 18.48 0 28 0 C28.02291985 6.65694377 28.04284392 13.31375137 28.05493164 19.97070312 C28.05996926 22.23665836 28.06679952 24.50261033 28.07543945 26.76855469 C28.08752996 30.02019047 28.09323392 33.27178339 28.09765625 36.5234375 C28.10281754 37.54118256 28.10797882 38.55892761 28.11329651 39.60751343 C28.11340981 41.01874985 28.11340981 41.01874985 28.11352539 42.45849609 C28.115746 43.28900482 28.11796661 44.11951355 28.12025452 44.97518921 C28 47 28 47 27 49 C22.87505849 49.05784708 18.75022056 49.09354407 14.625 49.125 C13.449375 49.14175781 12.27375 49.15851563 11.0625 49.17578125 C9.38027344 49.18544922 9.38027344 49.18544922 7.6640625 49.1953125 C6.62717285 49.20578613 5.5902832 49.21625977 4.52197266 49.22705078 C2 49 2 49 0 47 C-0.24050903 44.97518921 -0.24050903 44.97518921 -0.22705078 42.45849609 C-0.22689972 41.51767181 -0.22674866 40.57684753 -0.22659302 39.60751343 C-0.21627045 38.58976837 -0.20594788 37.57202332 -0.1953125 36.5234375 C-0.1924826 35.48305328 -0.18965271 34.44266907 -0.18673706 33.37075806 C-0.17551704 30.03872306 -0.15040915 26.70695414 -0.125 23.375 C-0.11497256 21.11979554 -0.1058463 18.86458688 -0.09765625 16.609375 C-0.07727096 11.07273099 -0.03812546 5.5366643 0 0 Z " fill="#00a6bf" transform="translate(283,104)"/>
    <path d="M0 0 C9.1539047 0.00404846 1.83078094 0.00809692 2.77391052 0.01226807 C4.21793495 0.00701111 4.21793495 0.00701111 5.69113159 0.00164795 C8.88481277 -0.00718065 12.07827383 -0.0013162 15.2719574 0.00543213 C17.48391258 0.0040858 19.69586748 0.00214555 21.90782166 -0.00036621 C26.54827181 -0.00331901 31.18864507 0.00098518 35.8290863 0.01031494 C41.78814565 0.02170952 47.74702485 0.01515088 53.70607758 0.00317001 C58.27500271 -0.00404438 62.84388488 -0.00176259 67.41281128 0.0034256 C69.61053488 0.00476326 71.80826234 0.00311033 74.00598145 -0.00153351 C77.07326139 -0.00659181 80.14024639 0.00110174 83.20750427 0.01226807 C84.12289474 0.0082196 85.03828522 0.00417114 85.98141479 0 C92.26217998 0.04252971 92.26217998 0.04252971 94.4907074 2.27105713 C94.74949646 4.48590088 94.74949646 4.48590088 94.7563324 7.20855713 C94.76019958 8.67422119 94.76019958 8.67422119 94.7641449 10.16949463 C94.75641052 11.19301025 94.74867615 12.21652588 94.7407074 13.27105713 C94.75230896 14.80633057 94.75230896 14.80633057 94.7641449 16.37261963 C94.76156677 17.349729 94.75898865 18.32683838 94.7563324 19.33355713 C94.75407654 20.23203369 94.75182068 21.13051025 94.74949646 22.05621338 C94.4907074 24.27105713 94.4907074 24.27105713 92.4907074 26.27105713 C89.83876312 26.44609674 87.28998586 26.50275316 84.6391449 26.46636963 C83.95312195 26.46435547 83.267099 26.46234131 82.56028748 26.46026611 C79.99535953 26.44979471 77.43052681 26.42187209 74.8657074 26.39605713 C66.2650824 26.33418213 66.2650824 26.33418213 57.4907074 26.27105713 C57.4907074 48.38105713 57.4907074 70.49105713 57.4907074 93.27105713 C47.9207074 93.27105713 38.3507074 93.27105713 28.4907074 93.27105713 C28.4907074 71.16105713 28.4907074 49.05105713 28.4907074 26.27105713 C17.06214623 26.35020972 17.06214623 26.35020972 5.6337738 26.45123291 C4.20327552 26.45707297 2.77277393 26.46216968 1.3422699 26.46636963 C0.59678894 26.47660156 -0.14869202 26.4868335 -0.91676331 26.49737549 C-2.78246545 26.4980103 -4.64764115 26.39393405 -6.5092926 26.27105713 C-9.03983597 23.74051376 -8.76612489 22.83556831 -8.7749176 19.33355713 C-8.77749573 18.35644775 -8.78007385 17.37933838 -8.7827301 16.37261963 C-8.77499573 15.349104 -8.76726135 14.32558838 -8.7592926 13.27105713 C-8.76702698 12.2475415 -8.77476135 11.22402588 -8.7827301 10.16949463 C-8.78015198 9.19238525 -8.77757385 8.21527588 -8.7749176 7.20855713 C-8.77266174 6.31008057 -8.77040588 5.411604 -8.76808167 4.48590088 C-8.15819317 -0.73382405 -4.3519419 0.02946884 0 0 Z " fill="#62c1ca" transform="translate(738.5092926025391,1.72894287109375)"/>
    <path d="M0 0 C0.74121094 -0.01933594 1.48242188 -0.03867188 2.24609375 -0.05859375 C5.53183201 0.64509724 7.10347388 2.15935372 9.5625 4.4375 C11.25317383 7.36547852 11.25317383 7.36547852 12.76953125 10.81640625 C13.19311668 11.76395782 13.19311668 11.76395782 13.6252594 12.73065186 C14.55408531 14.81524089 15.46426923 16.90745029 16.375 19 C17.02734139 20.47159854 17.68117798 21.94253507 18.33642578 23.4128418 C19.71331964 26.50423691 21.08450035 29.59807963 22.45263672 32.69335938 C25.54175103 39.66199729 28.72875137 46.58575868 31.91049194 53.51245117 C33.58818233 57.16764563 35.25889466 60.82602376 36.9296875 64.484375 C37.55566346 65.85481798 38.18164 67.2252607 38.80761719 68.59570312 C39.10341675 69.24337646 39.39921631 69.8910498 39.70397949 70.55834961 C40.51465545 72.33277669 41.32614975 74.10682984 42.13769531 75.88085938 C43.4498965 78.75213804 44.75727056 81.62554708 46.0625 84.5 C46.43036621 85.30284424 46.79823242 86.10568848 47.17724609 86.93286133 C49.5625 92.20718711 49.5625 92.20718711 49.5625 94.4375 C16.8925 94.4375 -15.7775 94.4375 -49.4375 94.4375 C-48.52878717 89.89393585 -47.14156742 86.33767426 -45.1484375 82.234375 C-44.64546898 81.18045311 -44.64546898 81.18045311 -44.13233948 80.10523987 C-43.40830976 78.58888395 -42.68189177 77.07366654 -41.95333862 75.55947876 C-40.00715447 71.51306293 -38.07980487 67.45770364 -36.15234375 63.40234375 C-35.56070183 62.15864265 -35.56070183 62.15864265 -34.95710754 60.88981628 C-31.00031607 52.55313621 -27.17642502 44.15837873 -23.375 35.75 C-22.74898553 34.36920987 -22.12276791 32.98851182 -21.49633789 31.60791016 C-18.27855686 24.51483243 -18.27855686 24.51483243 -15.08105469 17.41259766 C-13.97989882 14.95825144 -12.86699027 12.50966736 -11.75 10.0625 C-11.45923584 9.40290283 -11.16847168 8.74330566 -10.86889648 8.0637207 C-8.44686033 2.80983207 -5.95838252 0.01032649 0 0 Z " fill="#62c1ca" transform="translate(649.4375,-0.4375)"/>
  
    <path d="M0 0 C3.46876997 -0.13134757 6.04483715 -0.16375896 8.984375 1.828125 C10.81507234 3.64636862 12.45367597 5.53785952 14.08203125 7.5390625 C15.20366248 8.83365555 16.32871206 10.12529425 17.45703125 11.4140625 C18.03195312 12.08179688 18.606875 12.74953125 19.19921875 13.4375 C21.24925399 15.72571361 23.39498217 17.88166832 25.58203125 20.0390625 C28.98921915 23.40020732 32.15661299 26.87607453 35.26953125 30.5078125 C37.29296005 32.77544822 39.41856472 34.904832 41.58203125 37.0390625 C44.98921915 40.40020732 48.15661299 43.87607453 51.26953125 47.5078125 C53.29296005 49.77544822 55.41856472 51.904832 57.58203125 54.0390625 C60.98921915 57.40020732 64.15661299 60.87607453 67.26953125 64.5078125 C69.29296005 66.77544822 71.41856472 68.904832 73.58203125 71.0390625 C76.98087181 74.39197278 80.14453855 77.85465929 83.2421875 81.484375 C86.12283469 84.70140349 89.2426683 87.66962288 92.359375 90.65625 C94.08203125 92.5390625 94.08203125 92.5390625 94.08203125 94.5390625 C89.08348548 94.73776625 84.08726598 94.8824147 79.08569336 94.97851562 C77.38704361 95.01859413 75.68866725 95.07307682 73.9909668 95.14257812 C59.93291344 95.70341569 59.93291344 95.70341569 55.61376953 92.98632812 C53.83419559 90.93859921 52.48252636 88.85859289 51.08203125 86.5390625 C49.94664586 85.25039602 48.77933799 83.98916048 47.58203125 82.7578125 C47.00815674 82.14711914 46.43428223 81.53642578 45.84301758 80.90722656 C45.26189209 80.29073242 44.6807666 79.67423828 44.08203125 79.0390625 C39.77332956 74.44872773 35.50246377 69.84426576 31.4140625 65.0546875 C30.07359003 63.48144664 30.07359003 63.48144664 28.40625 61.9609375 C27.08203125 60.5390625 27.08203125 60.5390625 27.08203125 58.5390625 C26.42203125 58.5390625 25.76203125 58.5390625 25.08203125 58.5390625 C25.08203125 70.7490625 25.08203125 82.9590625 25.08203125 95.5390625 C20.48265625 95.5596875 15.88328125 95.5803125 11.14453125 95.6015625 C9.69183838 95.6106665 8.23914551 95.61977051 6.74243164 95.62915039 C5.60797607 95.63164795 4.47352051 95.63414551 3.3046875 95.63671875 C1.55297241 95.64457397 1.55297241 95.64457397 -0.23413086 95.65258789 C-2.91796875 95.5390625 -2.91796875 95.5390625 -3.91796875 94.5390625 C-4.02383163 91.72467788 -4.06474647 88.93470304 -4.06323242 86.11962891 C-4.06659103 85.23672684 -4.06994965 84.35382477 -4.07341003 83.44416809 C-4.0829512 80.50963963 -4.0848648 77.57516803 -4.0859375 74.640625 C-4.08914814 72.60899837 -4.09251206 70.57737198 -4.09602356 68.54574585 C-4.10202294 64.28016626 -4.10386266 60.01460695 -4.10327148 55.74902344 C-4.10316988 50.27543694 -4.11681722 44.80198019 -4.13404369 39.32842445 C-4.14514759 35.13004964 -4.14719118 30.93170633 -4.14666176 26.73331833 C-4.1478445 24.71504647 -4.15228263 22.69677386 -4.15999413 20.67851639 C-4.16976054 17.85801291 -4.16976054 17.85801291 -4.16088867 12.21728516 C-4.16650818 11.37872482 -4.17212769 10.54016449 -4.17791748 9.67619324 C-4.1314343 1.16117705 -4.1314343 1.16117705 0 0 Z " fill="#62c1ca" transform="translate(1081.91796875,-0.5390625)"/>
  
    <path d="M0 0 C0.70079681 -0.00175232 1.40159363 -0.00350464 2.12362671 -0.00531006 C4.45093224 -0.00972813 6.77816239 -0.00679076 9.10546875 -0.00341797 C10.71590184 -0.00409102 12.32633484 -0.00506106 13.93676758 -0.00631714 C17.3162533 -0.00779405 20.69571265 -0.00563978 24.07519531 -0.00097656 C28.4167338 0.00472073 32.75821048 0.00144169 37.0997467 -0.00454903 C40.42647776 -0.00815482 43.75319405 -0.00701597 47.07992554 -0.00442123 C48.68118293 -0.00375202 50.28244165 -0.00458021 51.88369751 -0.00690079 C54.11781386 -0.00942762 56.35182875 -0.00558632 58.5859375 0 C60.49669067 0.00119339 60.49669067 0.00119339 62.44604492 0.00241089 C65.29296875 0.12939453 65.29296875 0.12939453 66.29296875 1.12939453 C66.41955097 3.7876211 66.47817089 6.40826877 66.48046875 9.06689453 C66.49271484 9.80875 66.50496094 10.55060547 66.51757812 11.31494141 C66.52285353 13.25453083 66.41485777 15.19363163 66.29296875 17.12939453 C64.29296875 19.12939453 64.29296875 19.12939453 61.86279297 19.35644531 C60.86779785 19.34597168 59.87280273 19.33549805 58.84765625 19.32470703 C57.77128906 19.31826172 56.69492188 19.31181641 55.5859375 19.30517578 C54.45800781 19.28841797 53.33007812 19.27166016 52.16796875 19.25439453 C51.03230469 19.24537109 49.89664062 19.23634766 48.7265625 19.22705078 C45.91515576 19.20342551 43.10416577 19.17048466 40.29296875 19.12939453 C40.29740997 20.21489594 40.3018512 21.30039734 40.306427 22.41879272 C40.3469089 32.63116139 40.37692221 42.84351385 40.39659309 53.05594444 C40.40704592 58.30669871 40.42123238 63.55738838 40.44384766 68.80810547 C40.4655227 73.87201195 40.47752607 78.93585617 40.48272324 83.99980545 C40.48642862 85.93517665 40.49366394 87.87054432 40.50442886 89.80588913 C40.51887289 92.5093405 40.52094968 95.2125321 40.52001953 97.91601562 C40.52721008 98.72233932 40.53440063 99.52866302 40.54180908 100.35942078 C40.52107307 105.90129021 40.52107307 105.90129021 38.29296875 108.12939453 C36.42944336 108.37231445 36.42944336 108.37231445 34.1953125 108.35986328 C33.39416016 108.35792969 32.59300781 108.35599609 31.76757812 108.35400391 C30.93033203 108.34175781 30.09308594 108.32951172 29.23046875 108.31689453 C28.38935547 108.31625 27.54824219 108.31560547 26.68164062 108.31494141 C20.43320059 108.26962637 20.43320059 108.26962637 19.29296875 107.12939453 C19.19780664 104.39051033 19.16742281 101.67691512 19.17944336 98.93774414 C19.17929733 98.07928391 19.17915131 97.22082367 19.17900085 96.33634949 C19.17970028 93.48478715 19.18749405 90.63328928 19.1953125 87.78173828 C19.19717657 85.81018611 19.19860053 83.83863348 19.19960022 81.86708069 C19.20342624 76.66713186 19.21325723 71.46721078 19.2243042 66.26727295 C19.23451653 60.96545792 19.23909746 55.66363843 19.24414062 50.36181641 C19.25487942 39.9509969 19.27195684 29.54019802 19.29296875 19.12939453 C18.54611816 19.13986816 17.79926758 19.1503418 17.02978516 19.16113281 C13.65921367 19.20260223 10.28869575 19.22869182 6.91796875 19.25439453 C5.74234375 19.27115234 4.56671875 19.28791016 3.35546875 19.30517578 C1.67324219 19.31484375 1.67324219 19.31484375 -0.04296875 19.32470703 C-1.0798584 19.33518066 -2.11674805 19.3456543 -3.18505859 19.35644531 C-5.70703125 19.12939453 -5.70703125 19.12939453 -7.70703125 17.12939453 C-7.87874028 14.4024223 -7.93948805 11.79032985 -7.89453125 9.06689453 C-7.89388672 8.32117188 -7.89324219 7.57544922 -7.89257812 6.80712891 C-7.83361199 -0.40639501 -7.00236715 0.00437343 0 0 Z " fill="#00a6bf" transform="translate(1108.70703125,175.87060546875)"/>
    <path d="M0 0 C4.2496893 -0.24950755 8.49538191 -0.4296499 12.75024414 -0.54931641 C14.19305729 -0.59924074 15.63537385 -0.66721814 17.07641602 -0.75439453 C29.04279967 -1.45951939 29.04279967 -1.45951939 33.86499023 2.13647461 C36.11297236 4.65595997 38.03936508 7.25548074 40 10 C48.69944943 18.4644604 59.49926127 22.44204356 71.5625 22.5625 C85.81581443 22.30800511 98.67898449 16.82953858 109 7 C109.84256348 5.45578369 109.84256348 5.45578369 110.70214844 3.88037109 C113 1 113 1 116.39160156 0.31884766 C117.72498682 0.3197913 119.05862273 0.35334102 120.390625 0.4140625 C121.44754547 0.42679703 121.44754547 0.42679703 122.52581787 0.43978882 C124.76879081 0.47328692 127.00812099 0.54853952 129.25 0.625 C130.77338543 0.65510515 132.29682744 0.68248003 133.8203125 0.70703125 C137.54805187 0.77305981 141.27367025 0.87654871 145 1 C143.13279699 11.17885711 136.67548372 19.35018533 130 27 C129.48050781 27.61488281 128.96101563 28.22976562 128.42578125 28.86328125 C115.39472682 43.14164064 94.61082412 50.82780759 75.73046875 52.16015625 C53.5098751 52.92638362 33.54285262 44.40761133 17.4140625 29.40234375 C9.61953549 21.64565425 4.21288495 13.12408914 0 3 C0 2.01 0 1.02 0 0 Z " fill="#00a6bf" transform="translate(905,104)"/>
    <path d="M0 0 C4.37372727 -0.27475092 8.74273181 -0.4727289 13.12255859 -0.60424805 C14.60717307 -0.65912053 16.09120534 -0.73386328 17.57373047 -0.82983398 C29.92173 -1.60834913 29.92173 -1.60834913 35.02001953 2.3371582 C36.71722847 4.26314099 38.3511163 6.24707935 39.91162109 8.28540039 C42.66466322 11.86396894 45.1724479 13.43949348 49.125 15.5625 C50.24132812 16.18253906 51.35765625 16.80257812 52.5078125 17.44140625 C63.4566524 22.32796902 76.96278668 22.93241269 88.4375 19.4375 C96.77851115 16.13104945 103.56177341 12.1562873 108.796875 4.796875 C112.19077031 0.94568134 114.57091368 -0.59417248 119.76509094 -0.95004272 C123.3773478 -0.99536184 126.95738029 -0.8359188 130.5625 -0.625 C132.06300174 -0.57475094 133.5636663 -0.529139 135.06445312 -0.48828125 C138.71306195 -0.37895598 142.35547183 -0.20694883 146 0 C138.44697824 19.77699118 125.64413527 34.72576574 106.12890625 43.6484375 C105.09636719 44.09445313 104.06382812 44.54046875 103 45 C101.49759766 45.73089844 101.49759766 45.73089844 99.96484375 46.4765625 C83.94799968 53.18303054 61.55612415 52.84288212 45.39453125 46.609375 C24.09856835 36.51278499 9.44440923 22.64083174 0 1 C0 0.67 0 0.34 0 0 Z " fill="#00a6bf" transform="translate(109,105)"/>
    <path d="M0 0 C9.24 0 18.48 0 28 0 C28 7.59 28 15.18 28 23 C32.51747479 22.92547965 37.03315325 22.84219828 41.54980469 22.73754883 C43.08193209 22.70457045 44.61417309 22.67645689 46.14648438 22.65356445 C54.7846643 22.52105973 62.86972777 22.26945075 71 19 C71.95132813 18.62359375 72.90265625 18.2471875 73.8828125 17.859375 C83.33232268 13.19568214 83.33232268 13.19568214 89.76782227 5.22924805 C90.94437963 2.82344255 91.8172012 1.59106503 94 0 C99.4524716 -0.90410981 104.8077729 -0.65778409 110.3125 -0.4375 C111.83130889 -0.40236712 113.35019533 -0.37043152 114.86914062 -0.34179688 C118.58104392 -0.26486369 122.2900311 -0.1441903 126 0 C120.22321358 18.74177704 107.19222881 32.2062339 90.21875 41.52734375 C77.90061476 47.48714742 65.86031314 49.61111164 52.265625 49.4609375 C50.81069096 49.45854534 49.35575379 49.45764938 47.90081787 49.4581604 C44.88549848 49.45506567 41.87066589 49.43874188 38.85546875 49.41162109 C34.98847895 49.37727619 31.12201122 49.37000467 27.25488663 49.37151146 C24.26608286 49.37096907 21.27739346 49.36002912 18.28862762 49.34550858 C16.86125296 49.33914848 15.43386542 49.33520352 14.00647736 49.33372116 C12.02542948 49.32940072 10.04443011 49.31033594 8.06347656 49.29052734 C6.37475433 49.27909195 6.37475433 49.27909195 4.6519165 49.26742554 C2 49 2 49 0 47 C-0.24050903 44.97518921 -0.24050903 44.97518921 -0.22705078 42.45849609 C-0.22689972 41.51767181 -0.22674866 40.57684753 -0.22659302 39.60751343 C-0.21627045 38.58976837 -0.20594788 37.57202332 -0.1953125 36.5234375 C-0.1924826 35.48305328 -0.18965271 34.44266907 -0.18673706 33.37075806 C-0.17551704 30.03872306 -0.15040915 26.70695414 -0.125 23.375 C-0.11497256 21.11979554 -0.1058463 18.86458688 -0.09765625 16.609375 C-0.07727096 11.07273099 -0.03812546 5.5366643 0 0 Z " fill="#00a6bf" transform="translate(438,104)"/>
    <path d="M0 0 C0.1328125 1.625 1.1328125 1.625 0.9921875 4.015625 C0.08113267 6.78191876 -1.0292181 8.93574803 -2.6171875 11.375 C-3.35195312 12.54289062 -3.35195312 12.54289062 -4.1015625 13.734375 C-5.8671875 15.625 -5.8671875 15.625 -8.19921875 16.56640625 C-11.74540261 16.6442873 -13.71000627 15.51318068 -16.8046875 13.8125 C-23.27258928 10.29896884 -29.39277805 7.38919127 -36.8671875 8.625 C-40.61931026 10.64002889 -42.50362845 12.07966142 -44.8671875 15.625 C-45.36376125 19.34930313 -45.02841117 21.29583501 -43.3671875 24.6875 C-38.54248275 30.35652808 -31.90379396 33.17244425 -25.203125 36.1628418 C-16.13337166 40.21825654 -8.47385136 44.02164117 -1.8671875 51.625 C-1.3309375 52.23085937 -0.7946875 52.83671875 -0.2421875 53.4609375 C4.14118365 58.96505696 5.68364918 65.45546075 5.4375 72.4296875 C4.18069231 81.48514806 0.06846994 88.7225655 -6.8671875 94.625 C-10.08085115 96.65337721 -13.33001206 98.24450363 -16.8671875 99.625 C-17.79144531 99.98980469 -18.71570312 100.35460937 -19.66796875 100.73046875 C-31.62135606 104.07274676 -44.87913072 101.67314801 -55.75 96.1640625 C-60.01938991 93.71196392 -63.46538784 91.20421778 -66.8671875 87.625 C-65.37913039 81.82157726 -62.27621195 77.44909121 -58.8671875 72.625 C-54.95503494 73.19479842 -52.35814309 74.35462173 -49.0546875 76.5 C-41.98926466 80.85439393 -36.26269019 83.437468 -27.8671875 82.625 C-23.79381177 81.08787708 -20.76620064 79.63402774 -18.8671875 75.625 C-18.02373549 70.71423496 -18.07414274 67.79432875 -20.93359375 63.578125 C-23.91569679 60.24717616 -27.27622862 58.56526614 -31.3046875 56.75 C-32.73059462 56.06938983 -34.15504829 55.38572731 -35.578125 54.69921875 C-36.29323242 54.35681152 -37.00833984 54.0144043 -37.74511719 53.66162109 C-49.01680489 48.15545612 -59.5119741 42.46942667 -64.984375 30.63671875 C-67.11057682 23.38317185 -67.44442608 13.9576396 -64.1796875 7 C-63.05078125 5.21875 -63.05078125 5.21875 -61.8671875 3.625 C-61.1659375 2.59375 -60.4646875 1.5625 -59.7421875 0.5 C-44.43740569 -16.7355389 -16.76795298 -12.34794864 0 0 Z " fill="#00a6bf" transform="translate(1290.8671875,184.375)"/>
    <path d="M0 0 C1.06734375 -0.00257812 2.1346875 -0.00515625 3.234375 -0.0078125 C4.91273437 0.00378906 4.91273437 0.00378906 6.625 0.015625 C7.74390625 0.00789062 8.8628125 0.00015625 10.015625 -0.0078125 C11.08296875 -0.00523438 12.1503125 -0.00265625 13.25 0 C14.23226563 0.00225586 15.21453125 0.00451172 16.2265625 0.00683594 C18.625 0.265625 18.625 0.265625 20.625 2.265625 C20.81324486 5.15785053 20.87670246 7.9536064 20.85205078 10.84619141 C20.85234283 11.73405838 20.85263489 12.62192535 20.85293579 13.53669739 C20.85153907 16.48029247 20.83596184 19.42363647 20.8203125 22.3671875 C20.81658358 24.40457013 20.81373604 26.44195454 20.81173706 28.4793396 C20.80409104 33.84864225 20.78443425 39.21783716 20.7623291 44.58709717 C20.74189151 50.06325828 20.73273982 55.53943676 20.72265625 61.015625 C20.70118925 71.76568002 20.66599923 82.51562671 20.625 93.265625 C11.385 93.265625 2.145 93.265625 -7.375 93.265625 C-7.42011969 81.435243 -7.45684038 69.60491781 -7.47862434 57.77446938 C-7.48907763 52.28157997 -7.50326493 46.7887523 -7.52587891 41.29589844 C-7.5475523 35.99857346 -7.55955698 30.70130799 -7.56475449 25.40394211 C-7.56846016 23.37925657 -7.57569604 21.35457441 -7.58646011 19.32991409 C-7.60090194 16.50193398 -7.60298102 13.67420224 -7.60205078 10.84619141 C-7.60924133 10.00246475 -7.61643188 9.1587381 -7.62384033 8.28944397 C-7.59991378 1.6019716 -6.69683763 0.01537988 0 0 Z " fill="#62c1ca" transform="translate(1185.375,1.734375)"/>
    <path d="M0 0 C1.06734375 -0.00257812 2.1346875 -0.00515625 3.234375 -0.0078125 C4.91273438 0.00378906 4.91273437 0.00378906 6.625 0.015625 C7.74390625 0.00789062 8.8628125 0.00015625 10.015625 -0.0078125 C11.08296875 -0.00523438 12.1503125 -0.00265625 13.25 0 C14.23226562 0.00225586 15.21453125 0.00451172 16.2265625 0.00683594 C18.625 0.265625 18.625 0.265625 20.625 2.265625 C20.81320955 5.1275995 20.87671793 7.8920729 20.85205078 10.75439453 C20.85234283 11.63250793 20.85263489 12.51062134 20.85293579 13.41534424 C20.85153912 16.32647481 20.83596213 19.23735147 20.8203125 22.1484375 C20.81658357 24.16339986 20.81373603 26.17836404 20.81173706 28.19332886 C20.80409118 33.50344832 20.7844345 38.81345882 20.7623291 44.12353516 C20.74189121 49.53937303 20.73273975 54.95522845 20.72265625 60.37109375 C20.70118949 71.0026598 20.66599959 81.63411631 20.625 92.265625 C11.385 92.265625 2.145 92.265625 -7.375 92.265625 C-7.42012014 80.56562685 -7.45684064 68.86568614 -7.47862434 57.1656208 C-7.48907752 51.7332652 -7.50326461 46.30097202 -7.52587891 40.86865234 C-7.5475527 35.62968199 -7.55955706 30.39077181 -7.56475449 25.1517601 C-7.56846009 23.14940315 -7.57569583 21.14704962 -7.58646011 19.14471817 C-7.60090247 16.34787027 -7.602981 13.5512735 -7.60205078 10.75439453 C-7.60924133 9.92001862 -7.61643188 9.0856427 -7.62384033 8.22598267 C-7.59974503 1.56508841 -6.65744213 0.0152894 0 0 Z " fill="#62c1ca" transform="translate(856.375,1.734375)"/>
    <path d="M0 0 C1.27423828 -0.00193359 1.27423828 -0.00193359 2.57421875 -0.00390625 C3.91419922 0.00189453 3.91419922 0.00189453 5.28125 0.0078125 C6.17457031 0.00394531 7.06789063 0.00007812 7.98828125 -0.00390625 C8.83777344 -0.00261719 9.68726563 -0.00132812 10.5625 0 C11.34689453 0.00112793 12.13128906 0.00225586 12.93945312 0.00341797 C14.78125 0.1328125 14.78125 0.1328125 15.78125 1.1328125 C15.87879565 2.50924149 15.90756619 3.89062685 15.90823364 5.27050781 C15.91105347 6.16233765 15.91387329 7.05416748 15.91677856 7.97302246 C15.91475433 8.95903442 15.9127301 9.94504639 15.91064453 10.9609375 C15.91239685 11.99335571 15.91414917 13.02577393 15.91595459 14.08947754 C15.92037533 17.52060602 15.91743433 20.95168344 15.9140625 24.3828125 C15.91473548 26.75553396 15.91570545 29.12825534 15.91696167 31.50097656 C15.91843894 36.48112645 15.91628314 41.46125844 15.91162109 46.44140625 C15.9059238 52.84109929 15.90920264 59.2407504 15.91519356 65.64044189 C15.91879837 70.54215819 15.91766095 75.44386446 15.91506577 80.34558105 C15.91439628 82.70601405 15.91522568 85.06644794 15.91754532 87.42687988 C15.92007054 90.71950713 15.91623309 94.01206542 15.91064453 97.3046875 C15.91266876 98.29069946 15.91469299 99.27671143 15.91677856 100.29260254 C15.91254883 101.63034729 15.91254883 101.63034729 15.90823364 102.99511719 C15.90785662 103.77457703 15.90747959 104.55403687 15.90709114 105.3571167 C15.78125 107.1328125 15.78125 107.1328125 14.78125 108.1328125 C13.36554877 108.21932861 11.945655 108.23986154 10.52734375 108.23046875 C9.67333984 108.22724609 8.81933594 108.22402344 7.93945312 108.22070312 C7.04162109 108.21232422 6.14378906 108.20394531 5.21875 108.1953125 C4.31705078 108.19080078 3.41535156 108.18628906 2.48632812 108.18164062 C0.25123686 108.16981475 -1.98372437 108.1533347 -4.21875 108.1328125 C-5.37760952 105.81509347 -5.34447249 104.49236931 -5.34573364 101.91282654 C-5.34855347 101.02803619 -5.35137329 100.14324585 -5.35427856 99.23164368 C-5.35225433 98.25857773 -5.3502301 97.28551178 -5.34814453 96.28295898 C-5.34989685 95.26014832 -5.35164917 94.23733765 -5.35345459 93.18353271 C-5.35786911 89.79030682 -5.35493672 86.39713271 -5.3515625 83.00390625 C-5.3522356 80.65503428 -5.35320568 78.30616238 -5.35446167 75.95729065 C-5.35593806 71.0301955 -5.35378577 66.10311844 -5.34912109 61.17602539 C-5.34342072 54.84474213 -5.34670515 48.51350122 -5.35269356 42.18221951 C-5.35629808 37.33111753 -5.35516114 32.48002569 -5.35256577 27.62892342 C-5.35189636 25.2936102 -5.3527254 22.95829609 -5.35504532 20.62298393 C-5.3575704 17.36638814 -5.35373342 14.10986206 -5.34814453 10.85327148 C-5.35016876 9.8781813 -5.35219299 8.90309113 -5.35427856 7.89845276 C-5.35145874 7.01648224 -5.34863892 6.13451172 -5.34573364 5.22581482 C-5.34535662 4.45502814 -5.34497959 3.68424147 -5.34459114 2.89009762 C-5.09398371 -0.6094631 -3.00173353 0.00431638 0 0 Z " fill="#00a6bf" transform="translate(1191.21875,175.8671875)"/>
    <path d="M0 0 C7.81452752 -0.02526563 15.62904458 -0.04283105 23.44360352 -0.05493164 C26.10441481 -0.05997383 28.76522332 -0.06680736 31.42602539 -0.07543945 C35.24105516 -0.08751009 39.05604844 -0.09322929 42.87109375 -0.09765625 C44.66793861 -0.10539818 44.66793861 -0.10539818 46.50108337 -0.11329651 C48.15268211 -0.11340981 48.15268211 -0.11340981 49.83764648 -0.11352539 C50.81249496 -0.115746 51.78734344 -0.11796661 52.79173279 -0.12025452 C55 0 55 0 56 1 C56.10350194 2.49321297 56.13850739 3.99125657 56.14526367 5.48803711 C56.15164352 6.44250229 56.15802338 7.39696747 56.16459656 8.38035583 C56.16570938 9.41886185 56.1668222 10.45736786 56.16796875 11.52734375 C56.17296135 13.11622154 56.17296135 13.11622154 56.17805481 14.73719788 C56.18312869 16.98259038 56.18546299 19.22799045 56.18530273 21.47338867 C56.18748841 24.91923378 56.20563721 28.36475852 56.22460938 31.81054688 C56.22754329 33.98697807 56.2295281 36.16341079 56.23046875 38.33984375 C56.23765427 39.37632553 56.24483978 40.41280731 56.25224304 41.48069763 C56.24916641 42.43831497 56.24608978 43.39593231 56.24291992 44.38256836 C56.24434494 45.22782578 56.24576996 46.07308319 56.24723816 46.94395447 C56 49 56 49 54 51 C50.88914401 51.74414361 48.11906978 51.68340594 45 51 C41.99028276 48.96947159 39.81716415 46.39893066 37.5 43.625 C36.8512793 42.89055664 36.20255859 42.15611328 35.53417969 41.39941406 C34.24737196 39.93914748 32.97065448 38.46991615 31.70507812 36.99121094 C29.60066678 34.53365381 27.42941489 32.14108468 25.25 29.75 C24.56421875 28.98171875 23.8784375 28.2134375 23.171875 27.421875 C20.63632968 24.59446834 18.0697079 21.79629095 15.5 19 C14.57540944 17.99098748 13.65092926 16.9818738 12.7265625 15.97265625 C10.93502288 14.0170305 9.13730966 12.06773786 7.3359375 10.12109375 C6.52382812 9.23550781 5.71171875 8.34992188 4.875 7.4375 C4.15054687 6.65246094 3.42609375 5.86742188 2.6796875 5.05859375 C1 3 1 3 0 0 Z " fill="#00a6bf" transform="translate(1151,104)"/>
    <path d="M0 0 C18.15 0 36.3 0 55 0 C55.020625 7.87875 55.04125 15.7575 55.0625 23.875 C55.071604 26.36272949 55.08070801 28.85045898 55.09008789 31.41357422 C55.09300749 33.3772781 55.09555594 35.34098258 55.09765625 37.3046875 C55.10277222 38.33086182 55.10788818 39.35703613 55.11315918 40.41430664 C55.11334045 41.87574097 55.11334045 41.87574097 55.11352539 43.36669922 C55.115746 44.21497284 55.11796661 45.06324646 55.12025452 45.93722534 C55 48 55 48 54 50 C50.49053945 50.6593976 47.50012082 50.77671221 44 50 C40.40943328 47.15951743 37.81953005 43.58422788 35 40 C33.20271143 37.96613841 31.35186633 35.98411962 29.5 34 C25.41007636 29.55624253 21.3601187 25.07797044 17.33203125 20.578125 C15.61363334 18.67838861 13.88379548 16.79486194 12.13671875 14.921875 C11.646875 14.39464844 11.15703125 13.86742188 10.65234375 13.32421875 C9.26479634 11.8330678 7.87276232 10.34609541 6.48046875 8.859375 C4 6 4 6 0 0 Z " fill="#00a6bf" transform="translate(356,105)"/>
    <path d="M0 0 C9.57 0 19.14 0 29 0 C29.09175203 6.63927848 29.17141537 13.27636446 29.21972656 19.91577148 C29.23986166 22.17496182 29.26717189 24.43409992 29.30175781 26.69311523 C29.35019162 29.93746821 29.37294976 33.18113317 29.390625 36.42578125 C29.41127014 37.43836502 29.43191528 38.45094879 29.45318604 39.49421692 C29.45348816 40.43496567 29.45379028 41.37571442 29.45410156 42.3449707 C29.46298401 43.17325882 29.47186646 44.00154694 29.48101807 44.85493469 C29 47 29 47 27.11651611 48.76667786 C24.60431243 50.23057242 23.04989711 50.38668835 20.15625 50.3984375 C19.23972656 50.40230469 18.32320312 50.40617187 17.37890625 50.41015625 C15.95384766 50.39275391 15.95384766 50.39275391 14.5 50.375 C13.54996094 50.38660156 12.59992187 50.39820313 11.62109375 50.41015625 C10.70457031 50.40628906 9.78804687 50.40242188 8.84375 50.3984375 C8.01037109 50.39505371 7.17699219 50.39166992 6.31835938 50.38818359 C3.41165837 49.90148871 2.14302598 49.01012421 0 47 C-0.48101807 44.85493469 -0.48101807 44.85493469 -0.45410156 42.3449707 C-0.45379944 41.40422195 -0.45349731 40.46347321 -0.45318604 39.49421692 C-0.43254089 38.48163315 -0.41189575 37.46904938 -0.390625 36.42578125 C-0.38496521 35.38681198 -0.37930542 34.34784271 -0.37347412 33.27738953 C-0.35106327 29.95529319 -0.3008569 26.63427096 -0.25 23.3125 C-0.22994115 21.06186452 -0.21168931 18.81121216 -0.1953125 16.56054688 C-0.15458266 11.03961675 -0.07629806 5.52101213 0 0 Z " fill="#00a6bf" transform="translate(767,104)"/>
    <path d="M0 0 C1.16781006 0.00523682 2.33562012 0.01047363 3.53881836 0.01586914 C4.79887695 0.0190918 6.05893555 0.02231445 7.35717773 0.02563477 C8.6976732 0.03399136 10.03816799 0.04245632 11.37866211 0.05102539 C12.72306153 0.05603879 14.06746271 0.06060197 15.41186523 0.06469727 C18.71334151 0.07653051 22.01473014 0.09301568 25.31616211 0.11352539 C25.36675371 6.77039353 25.40184971 13.42721233 25.42602539 20.08422852 C25.4361007 22.35019788 25.44976129 24.6161542 25.46704102 26.88208008 C25.49122222 30.1337404 25.50262974 33.38522926 25.51147461 36.63696289 C25.52179718 37.65470795 25.53211975 38.672453 25.54275513 39.72103882 C25.54290619 40.6618631 25.54305725 41.60268738 25.54321289 42.57202148 C25.54765411 43.40253021 25.55209534 44.23303894 25.55667114 45.0887146 C25.31616211 47.11352539 25.31616211 47.11352539 23.31616211 49.11352539 C20.82592773 49.37231445 20.82592773 49.37231445 17.72241211 49.37915039 C16.60995117 49.38172852 15.49749023 49.38430664 14.35131836 49.38696289 C13.1847168 49.37922852 12.01811523 49.37149414 10.81616211 49.36352539 C9.64956055 49.37125977 8.48295898 49.37899414 7.28100586 49.38696289 C6.16854492 49.38438477 5.05608398 49.38180664 3.90991211 49.37915039 C2.88575195 49.37689453 1.8615918 49.37463867 0.80639648 49.37231445 C-1.68383789 49.11352539 -1.68383789 49.11352539 -3.68383789 47.11352539 C-3.93107605 45.13340759 -3.93107605 45.13340759 -3.92675781 42.6796875 C-3.92983444 41.76211166 -3.93291107 40.84453583 -3.93608093 39.89915466 C-3.92889542 38.90642044 -3.9217099 37.91368622 -3.91430664 36.89086914 C-3.91384842 35.87505264 -3.9217099 37.91368622 -3.91430664 36.89086914 C-3.91384842 35.87505264 -3.9133902 34.85923615 -3.91291809 33.81263733 C-3.90989385 31.66316562 -3.90200245 29.51369614 -3.88964844 27.36425781 C-3.87139413 24.06120097 -3.86913869 20.75842427 -3.86938477 17.45532227 C-3.86446968 15.37133545 -3.8586414 13.28735054 -3.85180664 11.20336914 C-3.85013741 9.71123146 -3.85013741 9.71123146 -3.84843445 8.18894958 C-3.8420546 7.27452591 -3.83567474 6.36010223 -3.82910156 5.41796875 C-3.82528976 4.60903671 -3.82147797 3.80010468 -3.81755066 2.96665955 C-3.60064655 -0.03942894 -3.03631471 0.12843504 0 0 Z " fill="#00a6bf" transform="translate(851.683837890625,103.886474609375)"/>
    <path d="M0 0 C9.24 0 18.48 0 28 0 C28.04584059 6.65707195 28.08568728 13.31359926 28.10986328 19.97070312 C28.11993859 22.23667249 28.13359918 24.50262881 28.15087891 26.76855469 C28.17506011 30.02021501 28.18646763 33.27170387 28.1953125 36.5234375 C28.20563507 37.54118256 28.21595764 38.55892761 28.22659302 39.60751343 C28.22674408 40.54833771 28.22689514 41.48916199 28.22705078 42.45849609 C28.231492 43.28900482 28.23593323 44.11951355 28.24050903 44.97518921 C28 47 28 47 26 49 C23.49389648 49.24291992 23.49389648 49.24291992 20.37109375 49.23046875 C19.25412109 49.22853516 18.13714844 49.22660156 16.98632812 49.22460938 C15.2296582 49.20624023 15.2296582 49.20624023 13.4375 49.1875 C12.26251953 49.18685547 11.08753906 49.18621094 9.87695312 49.18554688 C1.14012141 49.14012141 1.14012141 49.14012141 0 48 C-0.09311889 46.49581261 -0.11746028 44.98728644 -0.11352539 43.48022461 C-0.11344986 42.51930405 -0.11337433 41.55838348 -0.11329651 40.56834412 C-0.10813522 39.523564 -0.10297394 38.47878387 -0.09765625 37.40234375 C-0.0962413 36.33834854 -0.09482635 35.27435333 -0.09336853 34.17811584 C-0.08775064 30.76454917 -0.07519511 27.351047 -0.0625 23.9375 C-0.05748731 21.62955824 -0.052924 19.32161545 -0.04882812 17.01367188 C-0.03862433 11.34240279 -0.01905243 5.67127399 0 0 Z " fill="#00a6bf" transform="translate(1079,104)"/>
    <path d="M0 0 C9.24 0 18.48 0 28 0 C28.02291985 6.65694377 28.04284392 13.31375137 28.05493164 19.97070312 C28.05996926 22.23665836 28.06679952 24.50261033 28.07543945 26.76855469 C28.08752996 30.02019047 28.09323392 33.27178339 28.09765625 36.5234375 C28.10281754 37.54118256 28.10797882 38.55892761 28.11329651 39.60751343 C28.11340981 41.01874985 28.11340981 41.01874985 28.11352539 42.45849609 C28.115746 43.28900482 28.11796661 44.11951355 28.12025452 44.97518921 C28 47 28 47 27 49 C22.68751391 49.02886537 18.37505238 49.04675255 14.0625 49.0625 C12.83080078 49.07087891 11.59910156 49.07925781 10.33007812 49.08789062 C9.16025391 49.09111328 7.99042969 49.09433594 6.78515625 49.09765625 C5.15912476 49.10551147 5.15912476 49.10551147 3.50024414 49.11352539 C1 49 1 49 0 48 C-0.09311889 46.49581261 -0.11746028 44.98728644 -0.11352539 43.48022461 C-0.11344986 42.51930405 -0.11337433 41.55838348 -0.11329651 40.56834412 C-0.10813522 39.523564 -0.10297394 38.47878387 -0.09765625 37.40234375 C-0.0962413 36.33834854 -0.09482635 35.27435333 -0.09336853 34.17811584 C-0.08775064 30.76454917 -0.07519511 27.351047 -0.0625 23.9375 C-0.05748731 21.62955824 -0.052924 19.32161545 -0.04882812 17.01367188 C-0.03862433 11.34240279 -0.01905243 5.67127399 0 0 Z " fill="#00a6bf" transform="translate(0,104)"/>
  </g>
</svg>