<svg width="292" height="48" viewBox="0 0 292 48" fill="none" xmlns="http://www.w3.org/2000/svg">
<g clip-path="url(#clip0_45_2630)">
<path d="M172.804 4.38917C172.804 3.88357 172.35 3.42704 171.846 3.42704H167.161C166.657 3.42704 166.203 3.88357 166.203 4.38917V24.531H172.804V4.38917ZM103.855 4.4713C103.847 4.21867 103.744 3.97857 103.566 3.79985C103.388 3.62112 103.149 3.51718 102.898 3.50917H98.11C97.9842 3.50889 97.8596 3.53358 97.7433 3.58184C97.627 3.63009 97.5213 3.70095 97.4323 3.79035C97.3434 3.87974 97.2728 3.98592 97.2248 4.10278C97.1768 4.21964 97.1522 4.34488 97.1525 4.4713V24.531H103.855V4.4713ZM82.49 4.4713C82.4902 4.34497 82.4657 4.21981 82.4177 4.10303C82.3698 3.98624 82.2994 3.88011 82.2105 3.79072C82.1216 3.70134 82.0161 3.63046 81.8999 3.58214C81.7837 3.53383 81.6592 3.50903 81.5335 3.50917H76.7436C76.2404 3.50917 75.7861 3.96464 75.7861 4.4713V24.531H82.49V4.4713ZM40.9652 20.946C40.9652 14.5652 46.1563 9.24784 52.5067 9.24784C58.855 9.24784 64.097 14.5652 64.097 20.946C64.0953 22.1646 63.8989 23.375 63.5153 24.531H70.2733C70.5206 23.3525 70.6462 22.1515 70.648 20.947C70.648 10.819 62.5843 2.6665 52.5056 2.6665C42.427 2.6665 34.4163 10.819 34.4163 20.946C34.4163 22.1748 34.5373 23.3716 34.7613 24.531H41.5406C41.162 23.3744 40.9685 22.1647 40.9673 20.947M191.443 17.9924C187.359 16.3209 185.496 14.7017 185.496 12.322C185.496 10.7006 187.059 8.77637 189.93 8.77637C192.701 8.77637 196.532 11.3076 196.935 11.5604C197.539 11.9678 198.297 11.5604 198.699 10.9545L200.614 8.0681C200.967 7.5625 200.815 6.7017 200.31 6.3977C199.304 5.63824 195.374 3.0057 190.232 3.0057C182.219 3.0057 178.894 8.21957 178.894 12.7273C178.894 18.7017 183.631 21.7406 188.369 23.6628C189.072 23.9508 189.715 24.2388 190.304 24.531H200.655C198.699 21.2617 194.888 19.3833 191.443 17.9924ZM151.57 9.5881H159.28C159.406 9.58853 159.531 9.56394 159.647 9.51575C159.764 9.46756 159.87 9.39672 159.959 9.30731C160.048 9.2179 160.118 9.11167 160.167 8.99474C160.215 8.87781 160.239 8.75249 160.239 8.62597V4.47237C160.239 4.34593 160.214 4.22073 160.166 4.10393C160.118 3.98713 160.047 3.88102 159.958 3.79166C159.869 3.70231 159.763 3.63146 159.647 3.58317C159.531 3.53488 159.406 3.5101 159.28 3.51024H137.258C137.132 3.50996 137.007 3.53465 136.891 3.5829C136.775 3.63115 136.669 3.70201 136.58 3.79141C136.491 3.88081 136.421 3.98699 136.373 4.10385C136.325 4.2207 136.3 4.34594 136.3 4.47237V8.62597C136.3 8.75222 136.325 8.87723 136.373 8.99384C136.421 9.11045 136.492 9.21638 136.581 9.30555C136.67 9.39472 136.775 9.46539 136.892 9.51351C137.008 9.56163 137.132 9.58625 137.258 9.58597H144.968V24.531H151.57V9.5881ZM17.0637 15.3748H17.2145L21.3568 24.53H28.0787L18.3737 3.2233C18.2219 2.92144 18.0213 2.66864 17.517 2.66864H17.0117C16.5584 2.66864 16.3079 2.92144 16.1561 3.2233L6.17725 24.531H13.0032L17.0637 15.3748ZM122.219 15.3748H122.371L126.512 24.53H133.233L123.531 3.22224C123.379 2.92037 123.176 2.66757 122.675 2.66757H122.17C121.716 2.66757 121.466 2.92037 121.313 3.22224L111.334 24.53H118.16L122.219 15.3748Z" fill="#00A5B5"/>
<path d="M166.203 37.9069C166.203 38.4136 166.657 38.8691 167.159 38.8691H171.846C172.35 38.8691 172.804 38.4146 172.804 37.9069V27.0291H166.203V37.9069ZM89.797 32.5384C86.1876 32.5384 83.5761 30.2408 82.7608 27.0301H75.9179C76.799 33.8557 82.5241 39.1208 89.797 39.1208C97.1144 39.1208 102.841 33.8557 103.723 27.0301H96.8851C96.0656 30.2259 93.4138 32.5384 89.797 32.5384ZM51.3487 39.0845C54.0249 39.7672 56.4188 40.8445 58.4889 42.3005L59.043 42.7112C61.35 44.4244 64.1457 45.3439 67.0144 45.3331C69.99 45.3331 72.6801 44.5469 74.7947 43.0546L77.178 41.3693L71.869 36.772L70.4826 37.54C69.2257 38.2408 68.0431 38.596 66.9635 38.596C65.3244 38.596 63.905 37.8856 62.9549 37.2488L62.8084 37.1389C62.6651 37.0365 62.2235 36.7571 61.8604 36.5267C65.3997 34.2717 68.145 30.9363 69.5675 27.0301H62.3382C60.2851 30.3261 56.6343 32.5384 52.5047 32.5384C48.3752 32.5384 44.7467 30.3261 42.7064 27.0301H35.4356C37.7743 33.7651 43.9091 38.6173 51.3338 39.0813C51.3391 39.0813 51.3444 39.0813 51.3487 39.0845ZM194.765 29.7373C194.765 31.9165 192.801 33.6371 190.181 33.6371C186.903 33.6371 182.821 30.6483 182.57 30.4989C182.116 30.1448 181.261 30.1448 180.856 30.8541L179.043 33.9923C178.589 34.8029 178.84 35.0547 179.295 35.5122C180.302 36.4744 184.032 39.46 190.381 39.46C197.488 39.46 201.971 34.6504 201.971 29.4376C201.971 28.5725 201.867 27.7736 201.684 27.028H193.767C194.426 27.8387 194.765 28.7261 194.765 29.7373ZM144.966 37.908C144.966 38.4136 145.421 38.868 145.924 38.868H150.61C151.113 38.868 151.568 38.4136 151.568 37.908V27.0312H144.966V37.908ZM0.100914 37.556C-0.201636 38.2141 0.202826 38.8691 0.957609 38.8691H5.62856C6.43536 38.8691 6.88972 38.3656 7.08929 37.8589L9.65513 32.1352H24.7211L27.2901 37.8589C27.6447 38.5683 27.9971 38.8691 28.754 38.8691H33.1383C33.8931 38.8691 34.2955 38.2141 33.994 37.5549L29.2169 27.0269H5.00647L0.100914 37.556ZM105.246 37.556C104.944 38.2141 105.346 38.8691 106.104 38.8691H110.775C111.58 38.8691 112.036 38.3656 112.235 37.8589L114.812 32.1352H129.878L132.477 37.8589C132.831 38.5683 133.183 38.8691 133.94 38.8691H138.324C139.08 38.8691 139.481 38.2141 139.18 37.5549L134.374 27.0269H110.162L105.246 37.556Z" fill="#007582"/>
<path fill-rule="evenodd" clip-rule="evenodd" d="M226.114 3.40579C225.44 3.39677 224.771 3.52184 224.145 3.77379C223.576 4.00446 223.059 4.34842 222.625 4.78499C222.198 5.22045 221.865 5.73922 221.645 6.30926C221.41 6.91996 221.293 7.57013 221.299 8.22499C221.299 8.91299 221.414 9.55299 221.645 10.1429C221.864 10.7146 222.198 11.2349 222.625 11.6714C223.059 12.1082 223.576 12.4522 224.145 12.6826C224.737 12.9279 225.393 13.0495 226.114 13.0495C226.553 13.0508 226.991 13.0007 227.419 12.9002L228.694 14.3242C228.833 14.4781 229.008 14.5944 229.203 14.6623C229.385 14.7242 229.596 14.7519 229.828 14.7519H231.427L229.052 12.1461C229.345 11.9327 229.607 11.6863 229.841 11.4037C230.074 11.1223 230.272 10.8135 230.431 10.4842C230.593 10.1438 230.715 9.78592 230.795 9.41752C230.88 9.03886 230.923 8.63992 230.923 8.22499C230.923 7.54019 230.806 6.90446 230.575 6.31566C230.356 5.74569 230.023 5.22644 229.598 4.78926C229.166 4.35021 228.65 4.00462 228.081 3.77379C227.456 3.52206 226.787 3.39699 226.114 3.40579ZM213.75 3.51032L210.081 12.9461H211.601C211.749 12.9513 211.893 12.9037 212.009 12.8117C212.108 12.7337 212.186 12.6321 212.236 12.5162L212.87 10.7146H216.609L217.244 12.5173C217.293 12.64 217.375 12.7466 217.481 12.8255C217.587 12.9055 217.724 12.9461 217.892 12.9461H219.399L215.737 3.51032H213.75ZM233.838 3.51032V9.12846C233.838 9.70019 233.929 10.2271 234.114 10.7061C234.287 11.1689 234.555 11.5903 234.899 11.9434C235.253 12.2986 235.678 12.5755 236.144 12.7562C236.634 12.9514 237.185 13.0495 237.797 13.0495C238.41 13.0495 238.96 12.9514 239.448 12.7562C239.914 12.5756 240.337 12.2995 240.69 11.9455C241.035 11.5913 241.304 11.1688 241.478 10.705C241.665 10.201 241.759 9.66651 241.753 9.12846V3.50926H239.81V9.12739C239.81 9.47406 239.764 9.78659 239.674 10.0639C239.584 10.3413 239.451 10.5759 239.279 10.7722C239.105 10.9692 238.888 11.1239 238.646 11.2245C238.395 11.3311 238.113 11.3845 237.797 11.3845C237.479 11.3845 237.194 11.3311 236.944 11.2245C236.693 11.1178 236.482 10.9674 236.31 10.7722C236.131 10.5659 235.996 10.3243 235.915 10.0629C235.821 9.76023 235.775 9.44447 235.779 9.12739V3.50926L233.838 3.51032ZM247.543 3.51032L243.872 12.9461H245.393C245.54 12.951 245.684 12.9034 245.8 12.8117C245.899 12.7343 245.978 12.6326 246.028 12.5162L246.662 10.7146H250.402L251.036 12.5173C251.085 12.6396 251.166 12.7462 251.271 12.8255C251.377 12.9055 251.515 12.9461 251.684 12.9461H253.191L249.529 3.51032H247.543ZM255.667 3.51032V12.9439H257.609V9.35032H258.269C258.44 9.35032 258.571 9.37592 258.66 9.42712C258.759 9.48952 258.842 9.57425 258.903 9.67459L260.689 12.5674C260.836 12.8191 261.071 12.9439 261.401 12.9439H263.154L260.967 9.55192C260.808 9.30041 260.587 9.09404 260.326 8.95246C260.64 8.84366 260.921 8.70072 261.168 8.52366C261.406 8.35344 261.615 8.14684 261.789 7.91139C261.958 7.68015 262.088 7.42246 262.173 7.14872C262.261 6.86926 262.306 6.57272 262.306 6.26019C262.306 5.85699 262.237 5.48899 262.099 5.15299C261.958 4.81231 261.733 4.51321 261.445 4.28366C261.148 4.04152 260.766 3.85166 260.299 3.71512C259.835 3.57859 259.274 3.51032 258.618 3.51032H255.667ZM265.835 3.51032V12.9439H267.79V3.51032H265.835ZM270.837 3.51032V9.12846C270.837 9.70019 270.929 10.2271 271.113 10.7061C271.286 11.1689 271.554 11.5903 271.898 11.9434C272.253 12.2987 272.677 12.5755 273.144 12.7562C273.633 12.9514 274.184 13.0495 274.797 13.0495C275.41 13.0495 275.96 12.9514 276.448 12.7562C276.914 12.5756 277.337 12.2995 277.69 11.9455C278.035 11.5911 278.302 11.1687 278.476 10.705C278.661 10.2261 278.751 9.70019 278.751 9.12846V3.50926H276.809V9.12739C276.809 9.47406 276.765 9.78659 276.673 10.0639C276.583 10.3413 276.451 10.5759 276.279 10.7722C276.104 10.9688 275.887 11.1234 275.645 11.2245C275.394 11.3311 275.112 11.3845 274.797 11.3845C274.478 11.3845 274.194 11.3311 273.943 11.2245C273.694 11.1178 273.481 10.9674 273.309 10.7722C273.13 10.5659 272.996 10.3243 272.914 10.0629C272.82 9.7603 272.774 9.4445 272.779 9.12739V3.50926L270.837 3.51032ZM281.413 3.51032V12.9439H283.128V7.15192C283.128 7.03032 283.123 6.89912 283.115 6.75726C283.107 6.61859 283.096 6.46926 283.083 6.31992L285.782 11.457C285.843 11.5862 285.939 11.695 286.06 11.7706C286.177 11.8421 286.31 11.8794 286.461 11.8794H286.733C287.039 11.8794 287.264 11.7386 287.412 11.457L290.098 6.33699C290.081 6.47764 290.068 6.61889 290.061 6.76046C290.055 6.89912 290.053 7.03032 290.053 7.15086V12.9439H291.767V3.51032H290.291C290.205 3.51032 290.131 3.51139 290.068 3.51672C290.01 3.52068 289.953 3.53289 289.899 3.55299C289.848 3.57424 289.801 3.6046 289.761 3.64259C289.711 3.69328 289.67 3.75162 289.639 3.81539L287.03 8.82872C286.946 8.98377 286.87 9.14251 286.8 9.30446C286.729 9.46872 286.662 9.63726 286.597 9.81006C286.534 9.64385 286.466 9.47952 286.393 9.31726C286.323 9.15806 286.246 9.00184 286.163 8.84899L283.537 3.81432C283.505 3.75125 283.464 3.69335 283.416 3.64259C283.377 3.6037 283.331 3.5732 283.28 3.55299C283.224 3.53262 283.166 3.5204 283.108 3.51672C283.035 3.51211 282.961 3.50998 282.888 3.51032H281.413ZM257.609 4.99299H258.618C259.223 4.99299 259.671 5.11672 259.966 5.36312C260.263 5.61059 260.41 5.95726 260.41 6.40312C260.41 6.62819 260.375 6.83832 260.306 7.02819C260.239 7.21709 260.128 7.38739 259.983 7.52526C259.822 7.67542 259.63 7.78892 259.421 7.85806C259.157 7.94257 258.881 7.98258 258.604 7.97646V7.97859H257.609V4.99299ZM226.114 5.04419C226.553 5.04419 226.947 5.11779 227.294 5.26286C227.634 5.40254 227.937 5.61813 228.182 5.89326C228.435 6.18496 228.625 6.52592 228.741 6.89486C228.871 7.28739 228.934 7.73112 228.934 8.22499C228.934 8.72312 228.871 9.16899 228.741 9.56046C228.612 9.95512 228.426 10.2858 228.182 10.5578C227.937 10.8324 227.634 11.0476 227.294 11.1871C226.919 11.3373 226.517 11.4109 226.114 11.4037C225.708 11.4105 225.306 11.3365 224.929 11.1861C224.589 11.048 224.285 10.8339 224.04 10.5599C223.786 10.2698 223.595 9.92929 223.48 9.56046C223.344 9.1286 223.279 8.67772 223.286 8.22499C223.286 7.73112 223.349 7.28632 223.48 6.89486C223.596 6.52571 223.787 6.18469 224.04 5.89326C224.285 5.61802 224.589 5.40273 224.929 5.26392C225.279 5.11779 225.672 5.04419 226.114 5.04419ZM214.74 5.27886C214.841 5.68578 214.969 6.08558 215.122 6.47566L216.139 9.36206H213.349L214.358 6.48952C214.419 6.33699 214.482 6.15886 214.55 5.95086C214.616 5.74606 214.678 5.52099 214.74 5.27886ZM248.532 5.27886C248.633 5.68576 248.76 6.08555 248.913 6.47566L249.929 9.36206H247.139L248.15 6.48952C248.305 6.09509 248.433 5.69125 248.532 5.27886ZM210.082 15.0997L213.861 24.5354H215.621L219.4 15.0997H217.827C217.679 15.0948 217.534 15.1424 217.417 15.2341C217.316 15.3107 217.237 15.4126 217.187 15.5295L215.168 20.9663C215.09 21.169 215.018 21.393 214.951 21.633C214.884 21.8741 214.824 22.1258 214.766 22.3903C214.649 21.907 214.503 21.4314 214.327 20.9663L212.295 15.5295C212.245 15.4069 212.163 15.3001 212.058 15.2202C211.939 15.1358 211.795 15.0935 211.649 15.0997H210.082ZM222.986 15.0997V24.5354H224.942V15.0997H222.986ZM228.532 15.0997L232.311 24.5354H234.07L237.849 15.0997H236.277C236.129 15.0946 235.983 15.1422 235.866 15.2341C235.766 15.3107 235.686 15.4126 235.637 15.5295L233.617 20.9663C233.54 21.169 233.468 21.393 233.4 21.633C233.333 21.8741 233.272 22.1258 233.216 22.3903C233.099 21.907 232.952 21.4314 232.777 20.9663L230.743 15.5295C230.694 15.407 230.612 15.3001 230.507 15.2202C230.387 15.1359 230.243 15.0935 230.097 15.0997H228.532ZM243.245 15.0997L239.574 24.5354H241.095C241.242 24.5412 241.386 24.4943 241.502 24.4031C241.602 24.3255 241.681 24.2234 241.731 24.1066L242.364 22.3039H246.105L246.739 24.1066C246.788 24.2293 246.869 24.3363 246.974 24.4159C247.08 24.4959 247.218 24.5354 247.387 24.5354H248.894L245.232 15.0997H243.245ZM252.483 15.0997V24.5354H254.425V20.9397H255.084C255.256 20.9397 255.387 20.9663 255.476 21.0186C255.574 21.0809 255.657 21.1652 255.718 21.265L257.506 24.1578C257.652 24.4106 257.889 24.5354 258.217 24.5354H259.971L257.784 21.1423C257.624 20.8906 257.403 20.6842 257.141 20.5429C257.442 20.4423 257.726 20.2978 257.984 20.1141C258.222 19.9438 258.431 19.7372 258.604 19.5018C258.774 19.2708 258.904 19.013 258.99 18.7391C259.078 18.4597 259.122 18.1631 259.122 17.8506C259.122 17.4463 259.053 17.0794 258.915 16.7434C258.774 16.4022 258.549 16.1027 258.261 15.873C257.964 15.6309 257.582 15.4421 257.117 15.3055C256.65 15.1679 256.089 15.0997 255.434 15.0997H252.483ZM263.612 15.0997V24.5354H265.565V15.0997H263.612ZM269.898 15.0997V20.7199C269.898 21.2917 269.991 21.8175 270.173 22.2965C270.347 22.7591 270.615 23.1804 270.959 23.5338C271.313 23.8894 271.737 24.1666 272.204 24.3477C272.694 24.5429 273.245 24.641 273.858 24.641C274.422 24.6493 274.981 24.5498 275.508 24.3477C275.974 24.1665 276.397 23.8896 276.75 23.5349C277.095 23.1806 277.363 22.7582 277.538 22.2943C277.721 21.8165 277.812 21.2917 277.812 20.7199V15.0997H275.871V20.7199C275.871 21.0655 275.825 21.3781 275.735 21.6554C275.644 21.9327 275.512 22.1674 275.34 22.3637C275.165 22.5602 274.949 22.7144 274.706 22.8149C274.456 22.9215 274.173 22.9749 273.857 22.9749C273.539 22.9749 273.254 22.9215 273.004 22.8149C272.761 22.714 272.545 22.5598 272.37 22.3637C272.191 22.1573 272.056 21.9158 271.975 21.6543C271.88 21.3521 271.834 21.0367 271.839 20.7199V15.0997H269.898ZM281.413 15.0997V24.5354H283.128V18.7434C283.128 18.6218 283.123 18.4895 283.115 18.3487C283.106 18.2021 283.095 18.0556 283.083 17.9093L285.782 23.0463C285.842 23.1763 285.939 23.2859 286.06 23.3621C286.177 23.4335 286.31 23.4687 286.461 23.4687H286.733C287.039 23.4687 287.264 23.329 287.412 23.0463L290.098 17.9285C290.082 18.0688 290.07 18.2097 290.063 18.3509C290.056 18.4895 290.053 18.6207 290.053 18.7423V24.5354H291.767V15.0997H290.291C290.205 15.0997 290.132 15.1018 290.071 15.1061C290.013 15.1097 289.955 15.1219 289.901 15.1423C289.849 15.1632 289.801 15.1944 289.762 15.2341C289.711 15.2844 289.67 15.3428 289.639 15.4069L287.03 20.4191C286.946 20.5742 286.87 20.7329 286.8 20.8949C286.729 21.0591 286.662 21.2277 286.597 21.4005C286.534 21.2343 286.466 21.07 286.393 20.9077C286.323 20.7481 286.246 20.5915 286.163 20.4383L283.537 15.4069C283.505 15.3434 283.464 15.2851 283.416 15.2341C283.377 15.1944 283.331 15.1632 283.28 15.1423C283.224 15.122 283.166 15.1097 283.108 15.1061C283.035 15.1014 282.961 15.0993 282.888 15.0997H281.413ZM254.425 16.5823H255.433C256.038 16.5823 256.488 16.7061 256.783 16.9535C257.079 17.201 257.226 17.5487 257.226 17.9946C257.226 18.2197 257.191 18.4277 257.123 18.6186C257.056 18.8077 256.945 18.9783 256.8 19.1167C256.638 19.2661 256.446 19.3789 256.237 19.4474C255.973 19.533 255.698 19.5737 255.421 19.5679H254.425V16.5823ZM244.234 16.8682C244.336 17.2751 244.464 17.6751 244.616 18.0661L245.632 20.9525H242.842L243.853 18.0789C244.009 17.685 244.136 17.2804 244.235 16.8682H244.234Z" fill="#00A5B5"/>
<path d="M216.426 38.1184V38.8427H210.424V27.0507H211.224V38.1184H216.426ZM225.743 34.56L223.507 28.6016C223.418 28.3727 223.343 28.1387 223.282 27.9008C223.252 28.0284 223.218 28.155 223.18 28.2805C223.147 28.3918 223.108 28.5014 223.065 28.6091L220.828 34.56H225.743ZM228.174 38.8437H227.56C227.495 38.8461 227.431 38.8236 227.382 38.7808C227.333 38.7363 227.296 38.6806 227.274 38.6187L225.984 35.1936H220.588L219.298 38.6176C219.277 38.6799 219.24 38.7352 219.19 38.7776C219.138 38.822 219.071 38.8456 219.003 38.8437H218.398L222.893 27.0507H223.678L228.174 38.8437ZM233.982 38.2357C234.471 38.2443 234.955 38.1434 235.4 37.9403C235.809 37.7479 236.171 37.4671 236.46 37.1179C236.758 36.752 236.983 36.332 237.123 35.8805C237.279 35.383 237.356 34.864 237.352 34.3424V27.0507H238.144V34.3413C238.15 34.9604 238.053 35.576 237.858 36.1632C237.679 36.7038 237.398 37.2044 237.03 37.6373C236.668 38.0583 236.221 38.3956 235.718 38.6261C235.172 38.8708 234.579 38.9927 233.982 38.9835C233.341 38.9835 232.761 38.8651 232.246 38.6261C231.743 38.3952 231.295 38.058 230.934 37.6373C230.567 37.2041 230.286 36.7035 230.108 36.1632C229.912 35.5762 229.815 34.9605 229.82 34.3413V27.0507H230.621V34.3349C230.621 34.8843 230.695 35.3963 230.849 35.872C230.989 36.3229 231.213 36.7428 231.509 37.1093C231.796 37.4596 232.156 37.7416 232.565 37.9349C232.982 38.1344 233.454 38.2336 233.982 38.2336M247.013 28.4832C246.966 28.5771 246.898 28.6251 246.811 28.6251C246.743 28.6251 246.656 28.5739 246.55 28.4704C246.416 28.3452 246.272 28.231 246.12 28.1291C245.907 27.988 245.679 27.8717 245.441 27.7824C245.168 27.6768 244.832 27.6245 244.434 27.6245C244.036 27.6245 243.685 27.6864 243.383 27.808C243.097 27.9188 242.837 28.0893 242.621 28.3083C242.418 28.518 242.259 28.7674 242.156 29.0411C242.05 29.3184 241.997 29.6107 241.997 29.9168C241.997 30.3157 242.075 30.6475 242.233 30.9088C242.392 31.1691 242.6 31.392 242.858 31.5755C243.118 31.7579 243.411 31.9125 243.74 32.0373C244.069 32.1621 244.405 32.2869 244.753 32.4085C245.1 32.5301 245.437 32.6656 245.766 32.8128C246.096 32.96 246.389 33.1435 246.648 33.3675C246.907 33.5893 247.115 33.8624 247.273 34.1877C247.43 34.5131 247.51 34.9163 247.51 35.3995C247.513 35.8756 247.433 36.3486 247.273 36.7968C247.123 37.219 246.889 37.606 246.585 37.9339C246.275 38.2626 245.899 38.5221 245.483 38.6955C245.048 38.8821 244.552 38.9749 243.991 38.9749C243.266 38.9749 242.643 38.8384 242.121 38.5632C241.591 38.2833 241.124 37.8987 240.746 37.4325L240.964 37.0667C241.025 36.9845 241.099 36.9419 241.181 36.9419C241.227 36.9419 241.288 36.9739 241.359 37.0421C241.432 37.1083 241.52 37.1915 241.624 37.2875C241.727 37.3856 241.851 37.4901 241.996 37.6043C242.141 37.7184 242.31 37.824 242.501 37.9211C242.692 38.0192 242.912 38.1003 243.161 38.1675C243.41 38.2336 243.692 38.2667 244.007 38.2667C244.443 38.2667 244.83 38.1963 245.172 38.0555C245.497 37.924 245.792 37.7265 246.038 37.4752C246.274 37.2299 246.453 36.9408 246.577 36.6048C246.704 36.2592 246.767 35.8935 246.764 35.5253C246.764 35.1093 246.685 34.7659 246.527 34.496C246.37 34.2279 246.157 33.9975 245.902 33.8208C245.629 33.6327 245.333 33.4803 245.021 33.3675C244.685 33.2426 244.347 33.1228 244.007 33.008C243.664 32.8929 243.326 32.7627 242.994 32.6176C242.674 32.478 242.377 32.291 242.112 32.0629C241.848 31.8292 241.635 31.5421 241.487 31.2203C241.33 30.8843 241.25 30.4629 241.25 29.9595C241.25 29.5637 241.321 29.184 241.461 28.8171C241.6 28.4501 241.805 28.1259 242.074 27.8464C242.358 27.5555 242.697 27.3258 243.072 27.1712C243.468 27.0005 243.919 26.9163 244.427 26.9163C244.996 26.9163 245.507 27.0133 245.961 27.2085C246.414 27.4027 246.826 27.6992 247.198 28.1003L247.013 28.4832ZM256.176 34.5589L253.94 28.6005C253.851 28.3715 253.776 28.1375 253.716 27.8997C253.685 28.0272 253.651 28.1538 253.614 28.2795C253.58 28.3907 253.542 28.5004 253.498 28.608L251.261 34.5589H256.176ZM258.607 38.8427H257.994C257.928 38.8451 257.865 38.8226 257.815 38.7797C257.767 38.7351 257.729 38.6796 257.706 38.6176L256.417 35.1925H251.02L249.731 38.6165C249.71 38.6787 249.673 38.734 249.623 38.7765C249.571 38.821 249.505 38.8445 249.436 38.8427H248.831L253.327 27.0496H254.11L258.607 38.8427ZM269.34 27.0496V38.8416H268.967C268.909 38.8442 268.851 38.8317 268.8 38.8053C268.748 38.7722 268.704 38.7277 268.672 38.6752L261.536 28.4416C261.551 28.608 261.558 28.7659 261.558 28.9163V38.8416H260.86V27.0507H261.256C261.313 27.0481 261.37 27.0579 261.423 27.0795C261.475 27.1121 261.519 27.1567 261.551 27.2096L268.672 37.4176C268.657 37.2595 268.649 37.1007 268.649 36.9419V27.0517H269.34V27.0496ZM281.493 27.0496V38.8416H281.12C281.062 38.8442 281.004 38.8317 280.952 38.8053C280.901 38.7722 280.857 38.7277 280.825 38.6752L273.689 28.4416C273.704 28.608 273.711 28.7659 273.711 28.9163V38.8416H273.013V27.0507H273.409C273.466 27.0481 273.523 27.0579 273.576 27.0795C273.628 27.1121 273.672 27.1567 273.704 27.2096L280.824 37.4176C280.809 37.2594 280.802 37.1007 280.802 36.9419V27.0517H281.492L281.493 27.0496ZM291.767 38.1344L291.752 38.8416H285.167V27.0507H291.752V27.7589H285.966V32.5269H290.781V33.2181H285.967V38.1355L291.767 38.1344Z" fill="#007582"/>
</g>
<defs>
<clipPath id="clip0_45_2630">
<rect width="291.934" height="48" fill="white"/>
</clipPath>
</defs>
</svg>
