<svg
  xmlns="http://www.w3.org/2000/svg"
  viewBox="0 0 768 768"
  width="768"
  height="768"
>
  <defs>
    <radialGradient id="bulbFill" cx="45%" cy="40%" r="70%">
      <stop offset="0%" stop-color="#fff76a" />
      <stop offset="45%" stop-color="#d8ef1b" />
      <stop offset="100%" stop-color="#98c800" />
    </radialGradient>

    <radialGradient id="bulbCenter" cx="50%" cy="50%" r="55%">
      <stop offset="0%" stop-color="#9dff3b" />
      <stop offset="55%" stop-color="#20b11f" />
      <stop offset="100%" stop-color="#0c7a16" />
    </radialGradient>

    <linearGradient id="stemFill" x1="0%" y1="0%" x2="100%" y2="100%">
      <stop offset="0%" stop-color="#58cc73" />
      <stop offset="100%" stop-color="#2fb34f" />
    </linearGradient>

    <filter id="softShadow" x="-20%" y="-20%" width="140%" height="140%">
      <feDropShadow dx="0" dy="2" stdDeviation="2" flood-color="#5d8f00" flood-opacity="0.35" />
    </filter>
  </defs>

  <g filter="url(#softShadow)">
    <!-- Main crossed stems -->
    <path
      d="M270 315
         C305 345, 330 365, 362 392
         C372 401, 385 401, 395 392
         C430 360, 455 338, 494 310
         C516 294, 539 318, 523 342
         C489 393, 457 424, 413 460
         C404 468, 404 481, 413 490
         C444 521, 472 546, 500 570"
      fill="none"
      stroke="url(#stemFill)"
      stroke-width="46"
      stroke-linecap="round"
      stroke-linejoin="round"
    />

    <path
      d="M498 315
         C463 345, 438 365, 406 392
         C396 401, 383 401, 373 392
         C338 360, 313 338, 274 310
         C252 294, 229 318, 245 342
         C279 393, 311 424, 355 460
         C364 468, 364 481, 355 490
         C324 521, 296 546, 268 570"
      fill="none"
      stroke="url(#stemFill)"
      stroke-width="46"
      stroke-linecap="round"
      stroke-linejoin="round"
    />

    <!-- Upper-left cluster -->
    <g>
      <path
        d="M250 315 C210 275, 170 255, 105 255"
        fill="none"
        stroke="url(#stemFill)"
        stroke-width="28"
        stroke-linecap="round"
      />
      <path
        d="M250 315 C215 250, 180 210, 140 185"
        fill="none"
        stroke="url(#stemFill)"
        stroke-width="28"
        stroke-linecap="round"
      />
      <path
        d="M250 315 C245 235, 255 175, 275 125"
        fill="none"
        stroke="url(#stemFill)"
        stroke-width="28"
        stroke-linecap="round"
      />
      <path
        d="M250 315 C215 235, 175 175, 105 125"
        fill="none"
        stroke="url(#stemFill)"
        stroke-width="28"
        stroke-linecap="round"
      />

      <ellipse cx="70" cy="330" rx="46" ry="40" fill="url(#bulbFill)" stroke="#e6a2d8" stroke-width="4" />
      <ellipse cx="90" cy="326" rx="16" ry="24" fill="url(#bulbCenter)" transform="rotate(-10 90 326)" />

      <ellipse cx="78" cy="205" rx="46" ry="40" fill="url(#bulbFill)" stroke="#e6a2d8" stroke-width="4" />
      <ellipse cx="96" cy="219" rx="16" ry="24" fill="url(#bulbCenter)" transform="rotate(8 96 219)" />

      <ellipse cx="150" cy="128" rx="46" ry="40" fill="url(#bulbFill)" stroke="#e6a2d8" stroke-width="4" />
      <ellipse cx="168" cy="151" rx="16" ry="24" fill="url(#bulbCenter)" transform="rotate(28 168 151)" />

      <ellipse cx="273" cy="88" rx="46" ry="42" fill="url(#bulbFill)" stroke="#e6a2d8" stroke-width="4" />
      <ellipse cx="273" cy="128" rx="24" ry="15" fill="url(#bulbCenter)" transform="rotate(-10 273 128)" />
    </g>

    <!-- Upper-right cluster -->
    <g>
      <path
        d="M518 315 C558 275, 598 255, 663 255"
        fill="none"
        stroke="url(#stemFill)"
        stroke-width="28"
        stroke-linecap="round"
      />
      <path
        d="M518 315 C553 250, 588 210, 628 185"
        fill="none"
        stroke="url(#stemFill)"
        stroke-width="28"
        stroke-linecap="round"
      />
      <path
        d="M518 315 C523 235, 513 175, 493 125"
        fill="none"
        stroke="url(#stemFill)"
        stroke-width="28"
        stroke-linecap="round"
      />
      <path
        d="M518 315 C553 235, 593 175, 663 125"
        fill="none"
        stroke="url(#stemFill)"
        stroke-width="28"
        stroke-linecap="round"
      />

      <ellipse cx="698" cy="330" rx="46" ry="40" fill="url(#bulbFill)" stroke="#e6a2d8" stroke-width="4" />
      <ellipse cx="680" cy="326" rx="16" ry="24" fill="url(#bulbCenter)" transform="rotate(10 680 326)" />

      <ellipse cx="690" cy="205" rx="46" ry="40" fill="url(#bulbFill)" stroke="#e6a2d8" stroke-width="4" />
      <ellipse cx="672" cy="219" rx="16" ry="24" fill="url(#bulbCenter)" transform="rotate(-8 672 219)" />

      <ellipse cx="618" cy="128" rx="46" ry="40" fill="url(#bulbFill)" stroke="#e6a2d8" stroke-width="4" />
      <ellipse cx="600" cy="151" rx="16" ry="24" fill="url(#bulbCenter)" transform="rotate(-28 600 151)" />

      <ellipse cx="495" cy="88" rx="46" ry="42" fill="url(#bulbFill)" stroke="#e6a2d8" stroke-width="4" />
      <ellipse cx="495" cy="128" rx="24" ry="15" fill="url(#bulbCenter)" transform="rotate(10 495 128)" />
    </g>

    <!-- Lower-left cluster -->
    <g>
      <path
        d="M250 520 C210 530, 170 525, 100 520"
        fill="none"
        stroke="url(#stemFill)"
        stroke-width="28"
        stroke-linecap="round"
      />
      <path
        d="M250 520 C200 555, 165 580, 125 610"
        fill="none"
        stroke="url(#stemFill)"
        stroke-width="28"
        stroke-linecap="round"
      />
      <path
        d="M250 520 C230 580, 220 630, 205 682"
        fill="none"
        stroke="url(#stemFill)"
        stroke-width="28"
        stroke-linecap="round"
      />
      <path
        d="M250 520 C265 585, 280 635, 297 690"
        fill="none"
        stroke="url(#stemFill)"
        stroke-width="28"
        stroke-linecap="round"
      />

      <ellipse cx="82" cy="486" rx="46" ry="40" fill="url(#bulbFill)" stroke="#e6a2d8" stroke-width="4" />
      <ellipse cx="86" cy="486" rx="16" ry="24" fill="url(#bulbCenter)" transform="rotate(-8 86 486)" />

      <ellipse cx="76" cy="606" rx="46" ry="40" fill="url(#bulbFill)" stroke="#e6a2d8" stroke-width="4" />
      <ellipse cx="94" cy="593" rx="16" ry="24" fill="url(#bulbCenter)" transform="rotate(12 94 593)" />

      <ellipse cx="172" cy="684" rx="46" ry="40" fill="url(#bulbFill)" stroke="#e6a2d8" stroke-width="4" />
      <ellipse cx="185" cy="670" rx="24" ry="15" fill="url(#bulbCenter)" transform="rotate(-18 185 670)" />

      <ellipse cx="305" cy="690" rx="46" ry="40" fill="url(#bulbFill)" stroke="#e6a2d8" stroke-width="4" />
      <ellipse cx="289" cy="684" rx="24" ry="15" fill="url(#bulbCenter)" transform="rotate(5 289 684)" />
    </g>

    <!-- Lower-right cluster -->
    <g>
      <path
        d="M518 520 C558 530, 598 525, 668 520"
        fill="none"
        stroke="url(#stemFill)"
        stroke-width="28"
        stroke-linecap="round"
      />
      <path
        d="M518 520 C568 555, 603 580, 643 610"
        fill="none"
        stroke="url(#stemFill)"
        stroke-width="28"
        stroke-linecap="round"
      />
      <path
        d="M518 520 C538 580, 548 630, 563 682"
        fill="none"
        stroke="url(#stemFill)"
        stroke-width="28"
        stroke-linecap="round"
      />
      <path
        d="M518 520 C503 585, 488 635, 471 690"
        fill="none"
        stroke="url(#stemFill)"
        stroke-width="28"
        stroke-linecap="round"
      />

      <ellipse cx="686" cy="486" rx="46" ry="40" fill="url(#bulbFill)" stroke="#e6a2d8" stroke-width="4" />
      <ellipse cx="662" cy="486" rx="16" ry="24" fill="url(#bulbCenter)" transform="rotate(8 662 486)" />

      <ellipse cx="692" cy="606" rx="46" ry="40" fill="url(#bulbFill)" stroke="#e6a2d8" stroke-width="4" />
      <ellipse cx="674" cy="593" rx="16" ry="24" fill="url(#bulbCenter)" transform="rotate(-12 674 593)" />

      <ellipse cx="596" cy="684" rx="46" ry="40" fill="url(#bulbFill)" stroke="#e6a2d8" stroke-width="4" />
      <ellipse cx="583" cy="670" rx="24" ry="15" fill="url(#bulbCenter)" transform="rotate(18 583 670)" />

      <ellipse cx="463" cy="690" rx="46" ry="40" fill="url(#bulbFill)" stroke="#e6a2d8" stroke-width="4" />
      <ellipse cx="459" cy="684" rx="24" ry="15" fill="url(#bulbCenter)" transform="rotate(-5 459 684)" />
    </g>
  </g>
</svg>